<?xml version="1.0" encoding="utf-8"?>
<!-- Generator: Adobe Illustrator 22.0.1, SVG Export Plug-In . SVG Version: 6.00 Build 0)  -->
<svg version="1.1" id="Layer_1" xmlns="http://www.w3.org/2000/svg" xmlns:xlink="http://www.w3.org/1999/xlink" x="0px" y="0px"
	 viewBox="0 0 482.9 113.4" style="enable-background:new 0 0 482.9 113.4;" xml:space="preserve">
<style type="text/css">
	.st0{fill:none;stroke:#FF1717;stroke-width:1.9231;stroke-miterlimit:10;}
	.st1{fill:#FF1A1A;}
	.st2{fill:none;stroke:#000000;stroke-width:0.4808;stroke-miterlimit:10;}
</style>
<g>
	<path d="M212.2,6.1c0,0,0.2-3.2-5.4-2.6s-11.2,3.9-11.8,7.7c-0.6,3.7,0.7,9,1.1,13.3c0.4,4.3,1.9,11.6-3,12.3
		c-4.9,0.7-13.8-1.9-17.9-2.1c-4.1-0.2-10.8,1.1-10.8,1.1s-5.6-7.5-13.4-8.8c-7.8-1.3-18.5-1.7-30.6,7.1S98.5,53.5,90.1,55.7
		S74,58.2,68,55.9c-6-2.2-6.9-3-6.9-3l1.3,7.3c0,0-2.8,5.4-6.7,6.7s-21.5,8.4-22,13.4c-0.6,5,3.4,7.1,5.4,6.5c2.1-0.6,3-3.5,3.4-4.1
		s2.6-5,5.6-5.2c3-0.2,8.6,0.6,8.6,0.6s-1.3,2.4-0.2,4.5c1.1,2.1,6.7,6.3,14.9,3.5c8.2-2.8,14.9-8.4,14.9-8.4s15.1-0.4,15.9,0.9
		s0.6,11.4,0.6,11.4s1.1,0.9-1.3,2.6c-2.4,1.7-8.4,4.5-8,6.2c0.4,1.7,9.7,1.1,9.7,1.1s1.9-3.2,5.8-7.7s10.5-9.7,10.6-11
		s0.2-5.2,0.2-5.2s5.8-1.1,8.6-3.4c2.8-2.2,6.3-6.7,8-6.7s1.3,3.2,3.9,6.5c2.6,3.4,6.7,8.2,12,9.5c-1.3,5.4-3.5,12.1-5.8,13.3
		c-2.2,1.1-7.3,1.3-7.7,2.4c-0.4,1.1-0.4,3.7-0.4,3.7l11.2-0.4c0,0,11.4-15.1,12.7-17.4c1.3-2.2-0.7-12.5,0.4-15.3s7.1-9.7,7.3-17.7
		c0.2-8-2.1-9.2-2.1-9.2s6.3-1.1,11.8,0.4c5.4,1.5,12.3,2.4,16.6-0.9s6.7-4.7,5.6-14.2s-2.2-13.8,0.4-16.2s5.6,0.4,8-0.4
		S212.4,7.9,212.2,6.1z"/>
	<path class="st0" d="M479.2,95.3c0,0-49.3,15.7-108.7,7.8s-117.1-3.4-142.9-2.2s-31.9,0.6-37-1.1c-5-1.7-7.5-9.9-23.9-5
		c-16.4,4.9-42.2,5.6-60.9,3.7c-18.7-1.9-42.6-1.9-49.7,1.1s-11.8-0.9-10.6-3.5s7-5.9,7.8-1.4c0.8,4.5-5,9.5-8.7,5.9
		C41.1,97,42,85.5,38.1,83.6s-14.3-1.4-14.3-1.4s-2.8,14.6-9.5,16c-6.7,1.4-12.9,3.6-9.2,4.8c3.6,1.1,18.5,0.3,18.5,0.3"/>
	<circle class="st1" cx="23.5" cy="95.3" r="12"/>
</g>
<line class="st2" x1="64.1" y1="84.3" x2="61.5" y2="89.9"/>
<line class="st2" x1="64.6" y1="84.9" x2="62.9" y2="90.8"/>
</svg>
