<?xml version="1.0" encoding="utf-8"?>
<!-- Generator: Adobe Illustrator 22.0.1, SVG Export Plug-In . SVG Version: 6.00 Build 0)  -->
<svg version="1.1" id="Layer_1" xmlns="http://www.w3.org/2000/svg" xmlns:xlink="http://www.w3.org/1999/xlink" x="0px" y="0px"
	 viewBox="0 0 500 408.7" style="enable-background:new 0 0 500 408.7;" xml:space="preserve">
<style type="text/css">
	.st0{fill:#DD0E27;}
	.st1{opacity:0.5;}
	.st2{fill:#B7132F;}
	.st3{fill:#E5E5E5;}
	.st4{fill:#F3F3F1;}
	.st5{fill:none;stroke:#FCFCFA;stroke-width:1.0511;stroke-miterlimit:10;}
	.st6{fill:#FFF4E9;}
	.st7{fill:#1E1E1E;}
	.st8{opacity:0.31;}
</style>
<path class="st0" d="M393.8,119.8H143.1V86.4c0-5.8,4.7-10.5,10.5-10.5h229.6c5.8,0,10.5,4.7,10.5,10.5V119.8z"/>
<ellipse transform="matrix(0.9835 -0.181 0.181 0.9835 -15.664 6.3444)" class="st0" cx="26.9" cy="89" rx="14.5" ry="44.2"/>
<rect x="33.4" y="119.8" class="st0" width="34.8" height="12.8"/>
<ellipse transform="matrix(0.9636 -0.2674 0.2674 0.9636 -19.6659 10.9005)" class="st1" cx="30.2" cy="77.7" rx="8.6" ry="30.6"/>
<path class="st0" d="M473.8,405.3H63.1c-11.9,0-21.1-10.5-19.5-22.3l19-142.4h411.7l19,142.4C494.9,394.8,485.7,405.3,473.8,405.3z"
	/>
<rect x="62.6" y="218.6" class="st2" width="411.7" height="23.8"/>
<polygon points="470.7,359.5 66.3,359.5 80.9,258.9 456,258.9 "/>
<polygon class="st2" points="491.7,372.3 45.1,372.5 45.6,368.7 491.2,368.7 "/>
<g>
	<ellipse class="st3" cx="126.2" cy="299.7" rx="11.9" ry="9.1"/>
	<ellipse class="st3" cx="156.9" cy="299.6" rx="11.9" ry="9.1"/>
	<ellipse class="st3" cx="188.1" cy="299.6" rx="11.9" ry="9.1"/>
	<ellipse class="st3" cx="218.6" cy="299.6" rx="11.9" ry="9.1"/>
	<ellipse class="st3" cx="248.7" cy="299.6" rx="11.9" ry="9.1"/>
	<ellipse class="st3" cx="280.2" cy="299.6" rx="11.9" ry="9.1"/>
	<ellipse class="st3" cx="310.7" cy="299.6" rx="11.9" ry="9.1"/>
	<ellipse class="st3" cx="342.2" cy="299.6" rx="11.9" ry="9.1"/>
	<ellipse class="st3" cx="372.6" cy="299.6" rx="11.9" ry="9.1"/>
	<ellipse class="st3" cx="402" cy="299.6" rx="11.9" ry="9.1"/>
	<ellipse class="st4" cx="125.8" cy="298.6" rx="11.9" ry="9.1"/>
	<ellipse class="st4" cx="156.9" cy="298.6" rx="11.9" ry="9.1"/>
	<ellipse class="st4" cx="187.6" cy="298.6" rx="11.9" ry="9.1"/>
	<ellipse class="st4" cx="218.3" cy="298.6" rx="11.9" ry="9.1"/>
	<ellipse class="st4" cx="249.1" cy="298.6" rx="11.9" ry="9.1"/>
	<ellipse class="st4" cx="279.8" cy="298.6" rx="11.9" ry="9.1"/>
	<ellipse class="st4" cx="310.6" cy="298.6" rx="11.9" ry="9.1"/>
	<ellipse class="st4" cx="341.8" cy="298.8" rx="11.9" ry="9.1"/>
	<ellipse class="st4" cx="371.9" cy="298.6" rx="11.9" ry="9.1"/>
	<ellipse class="st4" cx="402" cy="298.6" rx="11.9" ry="9.1"/>
	<ellipse class="st4" cx="341.3" cy="298.6" rx="11.9" ry="9.1"/>
	<ellipse class="st5" cx="125.8" cy="298.6" rx="10.4" ry="8"/>
	<ellipse class="st5" cx="157" cy="298.6" rx="10.4" ry="8"/>
	<ellipse class="st5" cx="187.5" cy="298.6" rx="10.4" ry="8"/>
	<ellipse class="st5" cx="218.3" cy="298.6" rx="10.4" ry="8"/>
	<ellipse class="st5" cx="248.7" cy="298.6" rx="10.4" ry="8"/>
	<ellipse class="st5" cx="279.9" cy="298.6" rx="10.4" ry="8"/>
	<ellipse class="st5" cx="310.4" cy="298.6" rx="10.4" ry="8"/>
	<ellipse class="st5" cx="341.9" cy="298.6" rx="10.4" ry="8"/>
	<ellipse class="st5" cx="372.3" cy="298.6" rx="10.4" ry="8"/>
	<ellipse class="st3" cx="144" cy="322.7" rx="11.9" ry="9.1"/>
	<ellipse class="st3" cx="174.8" cy="322.7" rx="11.9" ry="9.1"/>
	<ellipse class="st3" cx="206" cy="322.7" rx="11.9" ry="9.1"/>
	<ellipse class="st3" cx="236.4" cy="322.7" rx="11.9" ry="9.1"/>
	<ellipse class="st3" cx="266.5" cy="322.7" rx="11.9" ry="9.1"/>
	<ellipse class="st3" cx="298" cy="322.7" rx="11.9" ry="9.1"/>
	<ellipse class="st3" cx="328.5" cy="322.7" rx="11.9" ry="9.1"/>
	<ellipse class="st3" cx="360" cy="322.7" rx="11.9" ry="9.1"/>
	<ellipse class="st3" cx="390.5" cy="322.7" rx="11.9" ry="9.1"/>
	<ellipse class="st4" cx="143.7" cy="321.6" rx="11.9" ry="9.1"/>
	<ellipse class="st4" cx="174.7" cy="321.6" rx="11.9" ry="9.1"/>
	<ellipse class="st4" cx="205.5" cy="321.6" rx="11.9" ry="9.1"/>
	<ellipse class="st4" cx="236.2" cy="321.6" rx="11.9" ry="9.1"/>
	<ellipse class="st4" cx="266.9" cy="321.6" rx="11.9" ry="9.1"/>
	<ellipse class="st4" cx="297.7" cy="321.6" rx="11.9" ry="9.1"/>
	<ellipse class="st4" cx="328.4" cy="321.6" rx="11.9" ry="9.1"/>
	<ellipse class="st4" cx="359.7" cy="321.9" rx="11.9" ry="9.1"/>
	<ellipse class="st4" cx="389.8" cy="321.6" rx="11.9" ry="9.1"/>
	<ellipse class="st4" cx="359.2" cy="321.6" rx="11.9" ry="9.1"/>
	<ellipse class="st5" cx="143.7" cy="321.6" rx="10.4" ry="8"/>
	<ellipse class="st5" cx="174.9" cy="321.6" rx="10.4" ry="8"/>
	<ellipse class="st5" cx="205.3" cy="321.6" rx="10.4" ry="8"/>
	<ellipse class="st5" cx="236.1" cy="321.6" rx="10.4" ry="8"/>
	<ellipse class="st5" cx="266.6" cy="321.6" rx="10.4" ry="8"/>
	<ellipse class="st5" cx="297.8" cy="321.6" rx="10.4" ry="8"/>
	<ellipse class="st5" cx="328.2" cy="321.6" rx="10.4" ry="8"/>
	<ellipse class="st5" cx="359.7" cy="321.6" rx="10.4" ry="8"/>
	<ellipse class="st5" cx="390.2" cy="321.6" rx="10.4" ry="8"/>
	<ellipse class="st3" cx="160.1" cy="344.9" rx="11.9" ry="9.1"/>
	<ellipse class="st3" cx="190.9" cy="344.9" rx="11.9" ry="9.1"/>
	<ellipse class="st3" cx="222.1" cy="344.9" rx="11.9" ry="9.1"/>
	<ellipse class="st3" cx="252.5" cy="344.9" rx="11.9" ry="9.1"/>
	<ellipse class="st3" cx="282.6" cy="344.9" rx="11.9" ry="9.1"/>
	<ellipse class="st3" cx="314.2" cy="344.9" rx="11.9" ry="9.1"/>
	<ellipse class="st3" cx="344.6" cy="344.9" rx="11.9" ry="9.1"/>
	<ellipse class="st3" cx="376.1" cy="344.9" rx="11.9" ry="9.1"/>
	<ellipse class="st3" cx="406.6" cy="344.9" rx="11.9" ry="9.1"/>
	<ellipse class="st4" cx="159.8" cy="343.9" rx="11.9" ry="9.1"/>
	<ellipse class="st4" cx="190.8" cy="343.9" rx="11.9" ry="9.1"/>
	<ellipse class="st4" cx="221.6" cy="343.9" rx="11.9" ry="9.1"/>
	<ellipse class="st4" cx="252.3" cy="343.9" rx="11.9" ry="9.1"/>
	<ellipse class="st4" cx="283.1" cy="343.9" rx="11.9" ry="9.1"/>
	<ellipse class="st4" cx="313.8" cy="343.9" rx="11.9" ry="9.1"/>
	<ellipse class="st4" cx="344.5" cy="343.9" rx="11.9" ry="9.1"/>
	<ellipse class="st4" cx="375.8" cy="344.1" rx="11.9" ry="9.1"/>
	<ellipse class="st4" cx="405.9" cy="343.9" rx="11.9" ry="9.1"/>
	<ellipse class="st4" cx="375.3" cy="343.9" rx="11.9" ry="9.1"/>
	<ellipse class="st5" cx="159.8" cy="343.9" rx="10.4" ry="8"/>
	<ellipse class="st5" cx="191" cy="343.9" rx="10.4" ry="8"/>
	<ellipse class="st5" cx="221.4" cy="343.9" rx="10.4" ry="8"/>
	<ellipse class="st5" cx="252.2" cy="343.9" rx="10.4" ry="8"/>
	<ellipse class="st5" cx="282.7" cy="343.9" rx="10.4" ry="8"/>
	<ellipse class="st5" cx="313.9" cy="343.9" rx="10.4" ry="8"/>
	<ellipse class="st5" cx="344.3" cy="343.9" rx="10.4" ry="8"/>
	<ellipse class="st5" cx="375.8" cy="343.9" rx="10.4" ry="8"/>
	<ellipse class="st5" cx="406.3" cy="343.9" rx="10.4" ry="8"/>
	<ellipse class="st5" cx="402.1" cy="298.6" rx="10.4" ry="8"/>
	<ellipse class="st4" cx="431.5" cy="299.1" rx="11.9" ry="9.1"/>
	<ellipse class="st3" cx="115" cy="276.4" rx="11.9" ry="9.1"/>
	<ellipse class="st3" cx="145.7" cy="276.3" rx="11.9" ry="9.1"/>
	<ellipse class="st3" cx="176.9" cy="276.3" rx="11.9" ry="9.1"/>
	<ellipse class="st3" cx="207.4" cy="276.3" rx="11.9" ry="9.1"/>
	<ellipse class="st3" cx="237.5" cy="276.3" rx="11.9" ry="9.1"/>
	<ellipse class="st3" cx="269" cy="276.3" rx="11.9" ry="9.1"/>
	<ellipse class="st3" cx="299.4" cy="276.3" rx="11.9" ry="9.1"/>
	<ellipse class="st3" cx="331" cy="276.3" rx="11.9" ry="9.1"/>
	<ellipse class="st3" cx="361.4" cy="276.3" rx="11.9" ry="9.1"/>
	<ellipse class="st3" cx="390.8" cy="276.3" rx="11.9" ry="9.1"/>
	<ellipse class="st3" cx="420.3" cy="276.3" rx="11.9" ry="9.1"/>
	<ellipse class="st4" cx="114.6" cy="275.3" rx="11.9" ry="9.1"/>
	<ellipse class="st4" cx="145.7" cy="275.3" rx="11.9" ry="9.1"/>
	<ellipse class="st4" cx="176.4" cy="275.3" rx="11.9" ry="9.1"/>
	<ellipse class="st4" cx="207.1" cy="275.3" rx="11.9" ry="9.1"/>
	<ellipse class="st4" cx="237.9" cy="275.3" rx="11.9" ry="9.1"/>
	<ellipse class="st4" cx="268.6" cy="275.3" rx="11.9" ry="9.1"/>
	<ellipse class="st4" cx="299.4" cy="275.3" rx="11.9" ry="9.1"/>
	<ellipse class="st4" cx="330.6" cy="275.5" rx="11.9" ry="9.1"/>
	<ellipse class="st4" cx="360.7" cy="275.3" rx="11.9" ry="9.1"/>
	<ellipse class="st4" cx="390.8" cy="275.3" rx="11.9" ry="9.1"/>
	<ellipse class="st4" cx="330.1" cy="275.3" rx="11.9" ry="9.1"/>
	<ellipse class="st4" cx="421" cy="275.3" rx="11.9" ry="9.1"/>
	<ellipse class="st4" cx="419.6" cy="322.1" rx="11.9" ry="9.1"/>
	<ellipse class="st4" cx="447.6" cy="322.1" rx="11.9" ry="9.1"/>
	<g>
		<path d="M121.8,298c0-0.2-0.7-0.4-1.1-0.5c-0.1,0-0.1,0-0.1,0c0-0.1,0.3-0.2,0.5-0.2c0.4,0,1.4,0.1,1.4,0.3c0,0.1,0,0.2,0,0.3v1.3
			l5.5-0.1v-1.8c0-0.2-0.3-0.4-1-0.6c0,0-0.1,0-0.1,0c0-0.1,0.2-0.1,0.3-0.1h0c0.7,0.1,1.5,0.2,1.5,0.5c0,0.1-0.1,0.2-0.1,0.2v4.5
			c0,0.4-0.2,0.8-0.4,0.8c-0.2,0-0.3-0.2-0.3-0.4l-5.5,0.1c0,0.3-0.2,0.6-0.4,0.6c-0.1,0-0.2-0.2-0.2-0.5V298z M122.5,299.5v2.5
			l5.5-0.1v-2.5L122.5,299.5z"/>
	</g>
	<g>
		<path d="M156.1,297.6c0-0.1-0.1-0.3-0.2-0.4c-0.4,0-0.7,0-1,0.1c-1.2,0.1-1.4,0.3-1.7,0.3c-0.3,0-1.5-0.5-1.5-0.7c0,0,0,0,0.1,0
			c0,0,0.1,0,0.2,0c0.7,0.1,0.8,0.2,1.7,0.2c0.7,0,4.1-0.2,4.3-0.2c0.6,0,0.5-0.3,1.3-0.3c0.1,0,1.1,0.1,1.1,0.4
			c0,0.2-0.4,0.2-0.9,0.2c-0.8,0-2,0-3.1,0.1c0.4,0.3,0.6,0.5,0.6,0.6c0,0.2-0.3,0.3-0.5,0.6c2.8,2.3,2.3,1.1,3.9,2.3
			c0.5,0.4,0.6,0.6,0.6,0.8c0,0.1-0.1,0.2-0.2,0.2c-0.1,0-0.2-0.1-0.5-0.2l-4-2.8c-2.5,2.7-5.3,3.3-5.5,3.3c-0.1,0-0.1,0-0.1,0
			c0,0,0.1-0.1,0.3-0.2C152,301.4,155.2,299.6,156.1,297.6L156.1,297.6z"/>
	</g>
	<g>
		<path d="M187.8,296.7c1.7-0.1,1-0.3,2.3-0.3c0.7,0,0.9,0.1,0.9,0.4c0,0.2-0.2,0.2-0.8,0.2h-6.8v3.1c0,0.4,0.2,0.6,1.2,0.6h3.7
			c1.5,0,1.2-0.3,2.5-0.3c0.7,0,0.9,0.2,0.9,0.4c0,0.2-0.2,0.2-0.6,0.3h-6.9c-0.8,0-1.4-0.2-1.4-0.7v-2.8c0-0.3-0.1-0.5-1-0.6
			c-0.1,0-0.2,0-0.2-0.1c0-0.1,0.3-0.1,0.5-0.1c0.6,0,1,0.1,1.3,0.2H187.8z"/>
	</g>
	<g>
		<path d="M220,296.3c0.7-0.1,0.6-0.2,1.1-0.2c0.8,0,0.8,0.1,0.8,0.2c0,0.1-0.2,0.3-0.2,0.6v3.3c0,1.4-0.4,1.4-0.5,1.4
			c-0.2,0-0.2-0.4-0.2-0.9v-4l-5.1,0.3c-0.9,0.1-1.1,0.2-1.4,0.2c-0.3,0-1.6-0.6-1.6-0.7c0,0,0.1-0.1,0.1-0.1c0,0,0.1,0,0.2,0
			c0.6,0.1,1.3,0.2,2.2,0.2C216.6,296.5,218.1,296.4,220,296.3L220,296.3z"/>
	</g>
	<g>
		<path d="M248.4,297.3c-2.3,2.8-5.4,3.8-5.5,3.8c-0.1,0-0.1,0-0.1,0c0,0,0-0.1,0.1-0.1c2.3-0.9,4.3-2.8,5.3-4.7c0,0,0-0.1,0-0.2
			c0-0.2-0.4-0.5-0.9-0.7c0,0,0,0,0,0c0,0,0.1-0.1,0.3-0.1c0,0,0.1,0,0.1,0c0.4,0.2,1.5,0.6,1.5,0.8c0,0.1-0.1,0.2-0.2,0.3
			c-0.1,0.2-0.3,0.4-0.5,0.7c3.3,2.5,3,1.5,4.2,2.5c0.5,0.4,0.6,0.7,0.6,0.9c0,0.1-0.1,0.2-0.2,0.2c-0.1,0-0.2-0.1-0.3-0.1
			L248.4,297.3z"/>
	</g>
	<g>
		<path d="M282.7,300c0.8,0,1-0.3,1.6-0.3c0.1,0,0.3,0,0.5,0c0.8,0.1,0.9,0.2,0.9,0.4c-0.1,0.2-0.1,0.2-0.4,0.2
			c-0.3,0-0.8-0.1-1.8-0.1c-0.4,0-0.8,0-1.2,0c-1.7,0-4,0-5.7,0.1c-1.3,0-1.3,0.2-1.5,0.2c-0.3,0-1.9-0.5-1.9-0.7c0,0,0,0,0.1,0
			c0,0,0.1,0,0.2,0c0.8,0.2,1.8,0.2,2.9,0.2c0.3,0,0.5,0,0.8,0c-0.2-0.3-0.2-1.6-0.4-2.3c-0.1-0.3-0.2-0.7-0.6-1.2c0,0,0-0.1,0-0.1
			s0,0,0.1,0c0,0,0.1,0,0.2,0.1l0.9,0.4c0.3,0.2,0.4,0.3,0.4,0.4c0,0.1-0.2,0.2-0.2,0.4c0.1,0.8,0.1,1.3,0.1,1.6
			c0,0.6-0.1,0.6-0.2,0.7c0.5,0,2.7,0,3.2,0l0.6-3.5c0,0,0-0.1,0-0.1c0-0.2-0.1-0.4-0.8-0.6c0,0,0,0,0,0c0-0.1,0.1-0.1,0.3-0.1
			c0.1,0,1.5,0.2,1.5,0.5c0,0.1-0.1,0.2-0.1,0.3c-0.2,1.1-0.6,2.6-0.8,3.5H282.7z"/>
	</g>
	<g>
		<path d="M312.2,297.1c-0.7,0-1.2,0-2.1,0.1c-0.8,0.1-0.8,0.2-1,0.2c-0.2,0-1.3-0.3-1.3-0.5c0,0,0,0,0.1,0c0.1,0,0.3,0,0.5,0.1
			c0.3,0,0.6,0,1,0c0.7,0,1.6,0,2.9-0.1v-2.1c0-0.2-0.5-0.4-1.4-0.7c-0.1,0-0.1,0-0.1-0.1c0-0.1,0.2-0.1,0.4-0.1
			c0.5,0.1,1.3,0.2,1.6,0.3c0.2,0.1,0.3,0.1,0.3,0.2s0,0.2,0,0.2v7.6c0,0.5-0.2,1-0.5,1c-0.2,0-0.3-0.3-0.3-0.6v-2.9
			c-0.7,0-1.2,0.1-2.1,0.1c-0.8,0.1-0.8,0.2-1,0.2c-0.2,0-1.3-0.3-1.3-0.5c0,0,0,0,0.1,0c0.1,0,0.3,0,0.5,0.1c0.3,0,0.6,0,0.9,0
			c0.7,0,1.6,0,3-0.1V297.1z"/>
	</g>
	<g>
		<path d="M341.3,294.9c0-0.2-0.6-0.4-1.4-0.7c-0.1,0-0.1,0-0.1-0.1c0-0.1,0.2-0.1,0.4-0.1c0.5,0.1,1.2,0.2,1.6,0.3
			c0.2,0.1,0.3,0.1,0.3,0.2c0,0.1-0.1,0.2-0.1,0.2v2.6h1.4c0.6,0,0.6-0.3,1.2-0.3c0.6,0,0.9,0.1,0.9,0.3c0,0.1-0.1,0.2-0.5,0.2H342
			v2.5h1.4c0.6,0,0.6-0.2,1.2-0.3c0.6,0,0.9,0.1,0.9,0.3c0,0.1-0.1,0.2-0.4,0.2H342v2.1c0,0.5-0.2,1-0.4,1c-0.1,0-0.3-0.3-0.3-0.6
			V294.9z"/>
	</g>
	<g>
		<path d="M373.2,294.4c0-0.2-0.2-0.3-1.4-0.7c0,0-0.1,0-0.1,0c0-0.1,0.2-0.1,0.4-0.1c0.8,0.1,1.2,0.2,1.5,0.3
			c0.2,0.1,0.3,0.1,0.3,0.2c0,0.1-0.1,0.2-0.1,0.3v7.6c0,0.5-0.2,1-0.4,1c-0.1,0-0.3-0.3-0.3-0.6v-3.8h-3v2.8c0,0.5-0.2,1-0.4,1
			c-0.1,0-0.3-0.3-0.3-0.6V295c0-0.2-0.2-0.4-1.1-0.6c0,0-0.1,0-0.1,0c0-0.1,0.2-0.1,0.4-0.1c0.5,0.1,0.9,0.2,1.2,0.2
			c0.2,0.1,0.3,0.1,0.3,0.2c0,0.1-0.1,0.2-0.1,0.2v3.4h3V294.4z"/>
	</g>
	<g>
		<path d="M402.9,298.1c-0.9,0-1.1,0.1-1.5,0.1c-0.8,0.1-0.8,0.2-1,0.2c-0.2,0-1.3-0.4-1.3-0.5c0,0,0,0,0.1,0c0.1,0,0.3,0,0.5,0.1
			c0.3,0,0.6,0,0.9,0c0.7,0,1.4,0,2.3-0.1v-2.8c0-0.3-0.5-0.4-1.2-0.7c0,0-0.1,0-0.1,0c0-0.1,0.2-0.1,0.3-0.1c0.1,0,1,0.2,1.4,0.3
			c0.2,0.1,0.3,0.1,0.3,0.2c0,0.1,0,0.2,0,0.2v6.2c0,0.5-0.2,1-0.4,1c-0.2,0-0.3-0.3-0.3-0.6V298.1z M405.8,294.4
			c0-0.2-0.5-0.4-1.4-0.7c0,0-0.1,0-0.1,0c0,0,0.2-0.1,0.3-0.1c0.1,0,1,0.2,1.6,0.3c0.2,0.1,0.3,0.1,0.3,0.2c0,0.1,0,0.2,0,0.2v7.6
			c0,0.5-0.2,1-0.5,1c-0.1,0-0.3-0.3-0.3-0.6V294.4z"/>
	</g>
	<g>
		<path d="M140.9,321c0-0.2-0.4-0.4-1-0.5c-0.1,0-0.1,0-0.1-0.1c0-0.1,0.2-0.2,0.5-0.2c0.5,0,1.1,0.1,1.4,0.2l5.4-0.1
			c0.9,0,0.8-0.2,1.3-0.2c0.4,0,0.9,0.1,0.9,0.2c0,0.1-0.3,0.3-0.3,0.5l-0.8,3.2c0.4,0,0.6,0.1,0.6,0.2c0,0.2-0.2,0.3-0.4,0.3
			l-6.4,0.1c0,0.3-0.2,0.6-0.3,0.6c-0.1,0-0.2-0.2-0.3-0.5L140.9,321z M141.6,320.7l0.2,3.7l4.3-0.1c0.9,0,0.9-0.2,1.4-0.2l0.5-3.5
			L141.6,320.7z"/>
	</g>
	<g>
		<path d="M171.7,323.7c0,0.5,0.2,0.6,0.8,0.6h3.3c2.2,0,1.5-0.3,2.9-0.3c0.8,0,1,0.1,1,0.3c0,0.2-0.1,0.3-0.7,0.3h-6.9
			c-0.6,0-1.2-0.3-1.2-0.7V321c0-0.2-0.4-0.4-1-0.5c-0.1,0-0.2-0.1-0.2-0.1c0-0.1,0.1-0.1,0.3-0.1c0.4,0,1,0.1,1.5,0.2
			c0.2,0,0.3,0.1,0.3,0.2c0,0.1-0.1,0.3-0.1,0.5V323.7z"/>
	</g>
	<g>
		<path d="M205.9,319.6c0.1,0,0.1,0.1,0.1,0.1c0,0.1-0.1,0.1-0.2,0.3c2.3,0.2,3.4,1.3,3.4,2.4c0,1.3-1.2,2.6-3.8,2.6
			c-2.5,0-3.8-1.2-3.8-2.6c0-1.1,1.2-2.3,3.5-2.4c0-0.2-0.1-0.3-0.3-0.4c0,0,0,0,0,0c0,0,0.1-0.1,0.3-0.1c0.1,0,0.2,0,0.2,0
			L205.9,319.6z M202.4,322.4c0,1.1,1,2.1,3.1,2.1s3.1-1.1,3.1-2.1c0-1.1-1-2.1-3.1-2.1S202.4,321.4,202.4,322.4z"/>
	</g>
	<g>
		<path d="M239.4,319.1c0.8-0.1,0.5-0.2,1.2-0.2c0.8,0,0.8,0.1,0.8,0.2c0,0.1-0.2,0.2-0.3,0.5l-0.6,1.7c0.4,0,0.5,0.2,0.5,0.3
			c0,0,0,0.2-0.4,0.2l-6.5,0.1v1.9c0,0.2,0.3,0.3,0.8,0.3h3.6c1.8,0,1.5-0.3,2.6-0.3c0.6,0,1,0.1,1,0.3c0,0.2-0.2,0.3-0.9,0.3h-6.9
			c-0.6,0-1-0.2-1-0.5v-1.8c0-0.2-0.3-0.3-0.8-0.4c-0.1,0-0.2,0-0.2-0.1c0-0.1,0.1-0.2,0.4-0.2c0.6,0,1,0.1,1.3,0.2l4.8-0.1
			c0.8-0.1,0.8-0.2,1.1-0.2l0.2-1.9c-2.1,0.1-3.1,0.1-5.2,0.2c-0.6,0.1-0.8,0.2-1,0.2c-0.3,0-1.3-0.6-1.3-0.7c0,0,0.1-0.1,0.1-0.1
			c0.1,0,0.2,0,0.3,0.1c0.4,0.1,0.7,0.2,1.8,0.2c0.9,0,2.2,0,4.3-0.1H239.4z"/>
	</g>
	<g>
		<path d="M269.5,320.2l0.2,0c1.4-0.1,1-0.3,2-0.3c0.3,0,1.1,0.1,1.1,0.4c0,0.2-0.2,0.2-0.8,0.2c-0.3,0-0.7,0-1.1,0
			c-1.8,0.1-3,0.1-5.9,0.2c-1,0-1.1,0.2-1.3,0.2c-0.3,0-1.3-0.5-1.3-0.6c0,0,0,0,0.1,0c0.1,0,0.2,0,0.3,0c0.4,0.1,1,0.1,2,0.2
			L269.5,320.2z M268,320.8c0.1,0.1,0.2,0.1,0.2,0.2c0,0.1-0.1,0.2-0.2,0.3c1.7,0.1,2.5,1,2.5,1.8c0,0.9-1,1.8-2.9,1.8
			c-1.8,0-2.9-0.8-2.9-1.8c0-0.9,0.9-1.7,2.6-1.8c0.1-0.1,0.1-0.2,0.1-0.3c0-0.1,0-0.2-0.1-0.2c0,0-0.1-0.1-0.1-0.1c0,0,0,0,0.1,0
			s0.1,0,0.2,0L268,320.8z M267.1,319.4c-1.2,0-1.7-0.4-1.7-0.6c0,0,0,0,0.1,0c0.1,0,0.2,0,0.3,0c0.3,0.1,0.7,0.1,1.3,0.1
			c0.3,0,1.6,0,1.9,0c0.2,0,0.7,0,0.7,0.2c0,0.2-0.1,0.3-0.9,0.3H267.1z M265.5,323c0,0.7,0.7,1.4,2,1.4c1.4,0,2.1-0.7,2.1-1.4
			c0-0.7-0.7-1.4-2.1-1.4C266.2,321.6,265.5,322.3,265.5,323z"/>
	</g>
	<g>
		<path d="M301.5,324.1c0.9,0,0.7-0.2,1.4-0.2c0.7,0,1.4,0.1,1.4,0.4c0,0.1-0.1,0.2-0.5,0.2c-0.4,0-1-0.1-2.4-0.1
			c-1.9,0-3.9,0.1-6,0.1h-0.1c-1.2,0-1.3,0.2-1.6,0.2s-1.9-0.5-1.9-0.7c0,0,0,0,0.1,0c0,0,0.1,0,0.2,0c0.7,0.1,2.1,0.2,5.6,0.3v-3.8
			c0-0.2-0.2-0.4-0.8-0.5c-0.1,0-0.1,0-0.1,0c0,0,0.1-0.1,0.3-0.1c0.4,0,1.5,0.1,1.5,0.4c0,0.1-0.1,0.2-0.1,0.3l-0.3,3.8l3-0.1
			L301.5,324.1z"/>
	</g>
	<g>
		<path d="M330.4,319c0-0.2-0.6-0.4-1.4-0.7c-0.1,0-0.1,0-0.1-0.1c0-0.1,0.2-0.1,0.4-0.1c0.5,0.1,1.3,0.2,1.6,0.3
			c0.2,0.1,0.3,0.1,0.3,0.2c0,0.1,0,0.2,0,0.2v7.6c0,0.5-0.2,1-0.4,1c-0.2,0-0.3-0.3-0.3-0.6v-4.5c-0.6,0-1.1,0-2.1,0.1
			c-0.8,0.1-0.8,0.2-1,0.2c-0.3,0-1.3-0.4-1.3-0.5c0,0,0,0,0.1,0c0.1,0,0.3,0,0.5,0.1c0.3,0,0.6,0,1,0c0.7,0,1.6,0,2.9-0.1V319z"/>
	</g>
	<g>
		<path d="M359.9,318.6c0-0.2-0.4-0.4-1.1-0.5c-0.1,0-0.2-0.1-0.2-0.1c0-0.1,0.2-0.1,0.5-0.1c0.4,0,0.8,0.1,1.4,0.2
			c0.2,0,0.3,0.1,0.3,0.2c0,0.1-0.1,0.2-0.1,0.4v3.9c1.5,0,1-0.3,2-0.3c0.6,0,0.8,0.1,0.8,0.3c0,0.2-0.2,0.3-0.7,0.3h-2.1v2.6
			c0,1.8-0.5,1.9-0.5,1.9c-0.1,0-0.2-0.3-0.2-1V318.6z"/>
	</g>
	<g>
		<path d="M390.4,318.8c0-0.2-0.6-0.5-1.2-0.6c-0.1,0-0.2,0-0.2-0.1c0-0.1,0.2-0.1,0.4-0.1c0.4,0,1.1,0.1,1.4,0.2
			c0.2,0,0.3,0.1,0.3,0.2s-0.1,0.2-0.1,0.4v7c0,1.6-0.5,1.6-0.5,1.6c-0.2,0-0.2-0.4-0.2-0.9V318.8z"/>
	</g>
	<g>
		<path d="M162.8,342.1c0.4,0,0.2-0.2,0.6-0.2c0.3,0,0.8,0.1,0.8,0.2c0,0.1-0.2,0.2-0.3,0.4c-0.3,2.1-0.3,3.6-1.5,5.1
			c-0.1,0.1-0.2,0.2-0.2,0.2c0,0,0,0,0-0.1c0,0,0-0.1,0.1-0.2c0.5-0.9,0.8-2.1,0.9-3.6c-2,0.6-4.1,1.1-6,1.5
			c-0.4,0.1-0.4,0.2-0.6,0.2c-0.1,0-1.4-0.4-1.8-0.6c0,0,0,0,0-0.1c0,0,0.1-0.1,0.2-0.1c0,0,0.1,0,0.1,0c0.3,0.1,0.6,0.1,0.9,0.1
			c1.6,0,4.1-0.5,7.2-1.2c0-0.4,0-0.8,0.1-1.3l-4.9,0.2c-0.7,0-0.7,0.2-1,0.2c-0.3,0-1.5-0.5-1.5-0.6c0,0,0,0,0.1,0
			c0.1,0,0.1,0,0.2,0c0.4,0.1,0.9,0.2,1.9,0.2L162.8,342.1L162.8,342.1z"/>
	</g>
	<g>
		<path d="M112.6,279.3V279c1,0,1.5-0.1,1.5-0.7v-5.1c0-0.4-0.2-0.5-0.7-0.5h-1v-0.2c1.1-0.1,1.7-0.4,2.3-0.7v6.6
			c0,0.5,0.5,0.7,1.6,0.7v0.3H112.6z"/>
	</g>
	<g>
		<path d="M148.3,277.1l-0.6,1.9h-4.5v-0.3c0.6-1.2,1.8-2.5,2.9-3.2c1.1-0.8,1.3-1.4,1.3-2.2c0-1.1-0.7-1.5-1.7-1.5
			c-0.9,0-1.6,0.3-1.6,1c0,0.6,0.3,0.5,0.3,0.9c0,0.3-0.3,0.5-0.5,0.5c-0.3,0-0.5-0.3-0.5-0.8c0-0.8,0.7-1.8,2.4-1.8
			c1.6,0,2.3,0.7,2.3,1.9c0,1-0.6,1.8-2.1,2.7c-0.9,0.6-1.8,1.3-2.4,2.3h2.8c0.8,0,1.2-0.3,1.7-1.4L148.3,277.1z"/>
	</g>
	<g>
		<path d="M176,275c-0.1,0-0.2,0-0.3,0c-0.1,0-0.2-0.1-0.2-0.2c0-0.1,0.1-0.2,0.2-0.2c0.1,0,0.2,0,0.3,0c1.3,0,2-0.6,2-1.7
			c0-0.8-0.4-1.5-1.5-1.5c-1.1,0-1.3,0.4-1.3,0.7c0,0.2,0,0.3,0,0.5c0,0.3-0.2,0.5-0.4,0.5c-0.2,0-0.5-0.1-0.5-0.5
			c0-0.6,0.7-1.4,2.2-1.4c1.4,0,2.2,0.7,2.2,1.8c0,0.9-0.8,1.6-1.7,1.8c1.3,0.2,1.9,1,1.9,1.8c0,1.2-0.8,2.2-2.6,2.2
			c-1.5,0-2.3-0.8-2.3-1.6c0-0.4,0.3-0.6,0.5-0.6c0.2,0,0.5,0.2,0.5,0.5c0,0.1,0,0.3,0,0.5c0,0.5,0.2,1,1.3,1c1.3,0,1.9-0.9,1.9-2
			C178.2,275.7,177.5,275,176,275L176,275z"/>
	</g>
	<g>
		<path d="M205.9,278.5v-0.2c0.8,0,1.1-0.1,1.1-0.4v-1.3h-3v-0.3l3.4-5.2h0.3v5.2h1.4v0.3h-1.4v1.3c0,0.4,0.4,0.4,1,0.4v0.2H205.9z
			 M207,272.1l-2.7,4.1h2.7V272.1z"/>
	</g>
	<g>
		<path d="M239.3,272.5h-3.6l-0.2,2.8c0.5-0.5,1-0.7,1.9-0.7c1.7,0,2.5,1.2,2.5,2.4c0,1.1-0.8,2.4-2.5,2.4c-1.6,0-2.5-0.8-2.5-1.7
			c0-0.3,0.2-0.5,0.5-0.5c0.3,0,0.5,0.2,0.5,0.4c0,0.2,0,0.4,0,0.6c0,0.4,0.2,0.8,1.4,0.8c1.3,0,1.9-1.2,1.9-2.1
			c0-1.1-0.6-2.1-1.9-2.1c-0.9,0-1.5,0.5-1.8,0.9l-0.2-0.1l0.3-3.8h4.1L239.3,272.5z"/>
	</g>
	<g>
		<path d="M269,273.4c1.2,0,2,0.8,2,2.4c0,1.7-1.3,2.4-2.4,2.4c-1.5,0-2.5-1-2.5-3.4c0-2.5,1.1-4.2,3-4.2c1.2,0,1.8,0.5,1.8,1
			c0,0.3-0.2,0.5-0.5,0.5c-0.3,0-0.5-0.2-0.5-0.5c0-0.4-0.4-0.7-1.1-0.7c-1.1,0-2,1.4-2,3.7C267.2,274,267.9,273.4,269,273.4z
			 M268.6,277.9c1.2,0,1.7-0.8,1.7-2.3c0-1.1-0.6-1.9-1.6-1.9c-0.9,0-1.6,0.7-2,1.3C266.8,277.4,267.6,277.9,268.6,277.9z"/>
	</g>
	<g>
		<path d="M302.2,272.2v0.4c-1.1,1.7-2.6,3.9-2.6,6c0,0.1,0,0.4,0,0.5c0,0.5-0.2,0.7-0.4,0.7c-0.3,0-0.5-0.2-0.5-0.6v-0.1
			c0.1-1.8,1.4-3.7,3-6.2h-3c-0.8,0-1.2,0.8-1.4,1.4l-0.2-0.1l0.5-2H302.2z"/>
	</g>
	<g>
		<path d="M331.8,273.3c0,0.9-0.6,1.4-1.6,1.7c1.3,0.3,1.9,1,1.9,2.2c0,1.1-1.1,1.9-2.5,1.9c-1.4,0-2.4-0.7-2.4-1.8
			c0-0.8,0.3-1.4,1.7-2.1c-0.8-0.3-1.4-0.9-1.4-1.9c0-0.8,0.7-1.8,2.1-1.8C331,271.5,331.8,272.2,331.8,273.3z M329.8,279
			c1.2,0,2-0.8,2-1.7c0-0.9-0.8-1.5-2.4-1.9c-1.2,0.5-1.4,0.9-1.4,2C328,278.4,328.8,279,329.8,279z M328.1,273.3
			c0,0.8,0.7,1.2,1.9,1.6c0.9-0.3,1.3-0.8,1.3-1.6c0-0.9-0.6-1.5-1.6-1.5C328.8,271.8,328.1,272.3,328.1,273.3z"/>
	</g>
	<g>
		<path d="M360.2,275.8c-1.2,0-2-0.8-2-2.4c0-1.6,1.3-2.4,2.4-2.4c1.5,0,2.5,1,2.5,3.5c0,2.5-1.1,4.2-3,4.2c-1.2,0-1.8-0.5-1.8-1
			c0-0.3,0.2-0.5,0.5-0.5c0.3,0,0.5,0.2,0.5,0.5c0,0.4,0.4,0.7,1.1,0.7c1.1,0,2-1.4,2-3.7C361.9,275.2,361.2,275.8,360.2,275.8z
			 M360.6,271.3c-1.2,0-1.7,0.8-1.7,2.3c0,1.2,0.6,1.9,1.6,1.9c0.9,0,1.6-0.7,1.9-1.3C362.4,271.7,361.5,271.3,360.6,271.3z"/>
	</g>
	<g>
		<path d="M387.7,275.1h6.8v0.6h-6.8V275.1z"/>
	</g>
	<g>
		<path d="M420.9,272.4h0.6v2.9h3.1v0.6h-3.1v2.9h-0.6v-2.9h-3.1v-0.6h3.1V272.4z"/>
	</g>
	<g>
		<path d="M192,341.9c0.9-0.1,0.7-0.3,1.5-0.3c0.3,0,1.2,0.1,1.2,0.3c0,0.1-0.1,0.2-0.5,0.2l-6.9,0.1v1.9l4.3-0.1
			c0.9,0,0.6-0.3,1.5-0.3c0.2,0,1.2,0,1.2,0.3c0,0.1-0.2,0.2-0.7,0.2l-6.5,0.1v1.8c0,0.4,0.3,0.5,0.9,0.5l4.5-0.1
			c0.9,0,0.6-0.3,1.7-0.3c0.6,0,1,0.1,1,0.4c0,0-0.1,0.2-0.4,0.2l-7.3,0.1c-0.6,0-1.2-0.2-1.2-0.7v-3.6c0-0.3-0.3-0.6-1.1-0.7
			c-0.1,0-0.1,0-0.1,0c0,0,0.1-0.1,0.4-0.1c0.6,0,1.1,0.1,1.4,0.2L192,341.9z"/>
	</g>
	<g>
		<path d="M221.4,344.6c-1.4,1.2-2.9,2.2-5.3,2.6c-0.1,0-0.2,0-0.3,0c-0.1,0-0.2,0-0.2-0.1s0.1-0.1,0.3-0.1c1.8-0.4,4-1.7,5.3-3.3
			c0,0,0-0.1,0-0.1c0-0.1,0-0.3-0.2-0.4c-0.1,0-0.2,0-0.3,0c-0.5,0-1.2,0-1.8,0.1c-0.7,0.1-0.8,0.2-1,0.2c-0.3,0-1.3-0.5-1.3-0.6
			c0,0,0,0,0.1,0c0,0,0.1,0,0.2,0c0.2,0,0.6,0.1,1.8,0.1c1.9,0,3.9-0.1,4.1-0.2c0.9,0,0.4-0.3,1.7-0.3c0.7,0,1.1,0.1,1.1,0.3
			c0,0.1,0,0.2-0.5,0.2c-0.8,0-2.5,0-3.6,0c0.4,0.4,0.5,0.6,0.5,0.8c0,0.1-0.1,0.2-0.2,0.3c-0.1,0-0.1,0.1-0.2,0.1
			c3.2,1.9,2.6,1,3.9,1.8c0.6,0.4,0.7,0.6,0.7,0.7c0,0.1-0.1,0.2-0.2,0.2c-0.1,0-0.3-0.1-0.5-0.2L221.4,344.6z M222.2,341.4
			c0.3,0,0.5,0,0.7,0c0.2,0,0.4,0,0.4,0.2c0,0.2-0.3,0.3-1.7,0.3h-1c-1-0.1-1.5-0.5-1.5-0.6c0,0,0,0,0.1,0c0.1,0,0.1,0,0.2,0
			c0.3,0.1,0.6,0.1,1.1,0.1H222.2z"/>
	</g>
	<g>
		<path d="M254.3,346.2c0.9,0,0.5-0.3,1.6-0.3c0.5,0,1.2,0.2,1.2,0.4c0,0.2-0.5,0.2-0.7,0.2c-0.4,0-1.1,0-1.9,0h-1.2
			c-1.6,0-3.1,0-4,0.1c-1.3,0.1-1.4,0.3-1.6,0.3c-0.1,0-0.2,0-0.3-0.1c-0.3-0.2-0.7-0.3-1-0.5c-0.1,0-0.1-0.1-0.1-0.1
			c0,0,0.1-0.1,0.1-0.1c0.1,0,0.2,0,0.2,0c0.4,0.1,0.8,0.1,2.1,0.2l4-0.1c0.5-1.2,0.8-2.4,0.8-2.5c0-0.3-0.3-0.4-0.8-0.6
			c0-0.1,0.1-0.1,0.4-0.1c0.2,0,1,0.2,1.2,0.3c0.1,0.1,0.2,0.1,0.2,0.2c0,0.1-0.2,0.2-0.3,0.4c-0.3,0.8-0.7,1.6-1.1,2.4L254.3,346.2
			z M253.8,342L253.8,342c0.8-0.1,0.4-0.3,1.5-0.3c0.7,0,1,0.2,1,0.3c0,0.2-0.2,0.2-0.8,0.2c-0.3,0-0.6,0-1.1,0
			c-1.1,0-2.4,0-4.6,0.1c-1,0.1-1.1,0.2-1.3,0.2c-0.2,0-1.1-0.4-1.4-0.5c0,0,0-0.1,0-0.1c0,0,0-0.1,0.1-0.1c0,0,0.1,0,0.2,0
			c0.4,0.1,1.1,0.2,2,0.2L253.8,342z M250.3,345.6c0,0.4-0.2,0.6-0.3,0.6c-0.1,0-0.3-0.1-0.3-0.4c-0.1-0.7-0.2-1.5-1.1-2.2
			c-0.1,0-0.1-0.1-0.1-0.1c0,0,0-0.1,0.1-0.1c0,0,0.1,0,0.2,0C250.2,344,250.3,344.2,250.3,345.6z"/>
	</g>
	<g>
		<path d="M286.1,342.3c0.7,0,0.5-0.3,1.3-0.3c0.1,0,0.3,0,0.4,0c0.8,0.1,1,0.2,1,0.4c0,0.2-0.2,0.2-0.4,0.2c-0.3,0-1.5,0-1.8,0
			l-1.5,0v5.6c0,0.5-0.2,1-0.5,1c-0.2,0-0.3-0.2-0.3-0.7v-5.9l-3.6,0.1v5.4c0,0.5-0.3,1-0.4,1c-0.2,0-0.3-0.4-0.3-0.7v-5.7l-0.8,0
			c-0.9,0-0.8,0.2-1.1,0.2c-0.4,0-1.8-0.6-1.8-0.7c0,0,0,0,0.1,0c0,0,0.1,0,0.2,0c0.9,0.1,1.6,0.2,2.7,0.2c0.3,0,0.6,0,0.9,0
			L286.1,342.3z"/>
	</g>
	<g>
		<path d="M315.5,342.6c1.8,0,1.8-0.3,2.6-0.3c0.1,0,0.3,0,0.5,0c0.6,0.1,0.8,0.2,0.8,0.4c0,0.2-0.1,0.2-0.4,0.2
			c-0.3,0-0.7,0-1.3-0.1l-4.3,0v5.3c0,1.3-0.4,1.4-0.5,1.4c-0.2,0-0.2-0.5-0.2-1.2v-5.4l-2.5,0.1c-1.1,0.1-1.1,0.2-1.3,0.2
			c-0.2,0-2-0.5-2-0.7c0,0,0,0,0.1,0c0,0,0.1,0,0.2,0c1.1,0.2,2,0.2,3.6,0.2L315.5,342.6z"/>
	</g>
	<g>
		<path d="M346.5,344.4c1.6-0.1,1.4-0.2,2-0.2c0.2,0,0.3,0,0.6,0c0.7,0.1,0.9,0.2,0.9,0.4c0,0.2-0.2,0.2-0.3,0.2
			c-0.3,0-0.9-0.1-2.1-0.1c-2.7,0-4.8,0.1-6.9,0.1c-0.8,0.1-0.9,0.2-1.2,0.2c-0.3,0-1.8-0.6-1.8-0.7c0,0,0,0,0.1,0
			c0.1,0,0.1,0,0.2,0c0.7,0.1,2.1,0.2,4,0.2C343.3,344.5,344.8,344.5,346.5,344.4L346.5,344.4z"/>
	</g>
	<g>
		<path d="M379.3,340.5c0-0.3-0.6-0.4-1.2-0.6c-0.1,0-0.2-0.1-0.2-0.1c0-0.1,0.2-0.1,0.4-0.1c0.2,0,0.3,0,1.5,0.2
			c0.2,0,0.3,0.1,0.3,0.2c0,0.1-0.1,0.2-0.1,0.4v6.6c0,1.3-0.1,1.6-0.4,1.9c0,0-0.1,0-0.1,0c-0.2,0-0.2-0.5-0.2-1.1l0-3.6
			c-1.8,0.5-4.1,1-6.1,1.4c-0.7,0.1-0.6,0.3-0.8,0.3c-0.3,0-1-0.3-1.8-0.6c-0.1-0.1-0.2-0.1-0.2-0.2c0,0,0.1-0.1,0.2-0.1
			c0.1,0,0.2,0,0.3,0c0.3,0.1,0.6,0.1,1,0.1c1.9,0,5.2-0.6,7.5-1.2V340.5z"/>
	</g>
	<g>
		<path d="M404.7,343.4c-0.8,0-1.1,0.1-1.5,0.1c-0.8,0.1-0.8,0.2-1,0.2c-0.2,0-1.3-0.3-1.3-0.5c0,0,0,0,0.1,0c0.1,0,0.3,0,0.5,0.1
			c0.3,0,0.6,0,0.9,0c0.7,0,1.5,0,2.3-0.1v-1.4c0-0.3-0.5-0.5-1.2-0.7c-0.1,0-0.1,0-0.1-0.1c0-0.1,0.2-0.1,0.4-0.1
			c0.3,0,1.1,0.2,1.4,0.3c0.2,0.1,0.3,0.1,0.3,0.2c0,0.1,0,0.2,0,0.2v6.2c0,0.5-0.2,1-0.4,1c-0.2,0-0.3-0.4-0.3-0.6v-2.1
			c-0.3,0-0.8,0-1.5,0.1c-0.8,0.1-0.8,0.2-1,0.2c-0.2,0-1.3-0.4-1.3-0.5c0,0,0,0,0.1,0c0.1,0,0.3,0,0.5,0.1c0.3,0,0.6,0,0.9,0
			c0.7,0,1.4,0,2.3-0.1V343.4z M407.6,340.9c0-0.2-0.6-0.4-1.4-0.7c-0.1,0-0.1,0-0.1-0.1c0-0.1,0.2-0.1,0.4-0.1
			c0.5,0.1,1.3,0.2,1.6,0.3c0.2,0.1,0.3,0.2,0.3,0.3c0,0.1-0.1,0.2-0.1,0.3v7.6c0,0.4-0.2,1-0.4,1c-0.2,0-0.3-0.3-0.3-0.6V340.9z"/>
	</g>
	<path class="st4" d="M126.5,353.7H88.1c-2.6,0-4.7-2.1-4.7-4.7v-6c0-2.6,2.1-4.7,4.7-4.7h38.4c2.6,0,4.7,2.1,4.7,4.7v6
		C131.2,351.6,129.1,353.7,126.5,353.7z"/>
	<path class="st4" d="M457.3,352.7h-27.7c-2.7,0-4.8-2.2-4.8-4.8V342c0-2.7,2.2-4.8,4.8-4.8h27.7c2.7,0,4.8,2.2,4.8,4.8v5.8
		C462.1,350.5,460,352.7,457.3,352.7z"/>
	<path class="st4" d="M115.4,331h-21c-2.6,0-4.7-2.1-4.7-4.7v-6c0-2.6,2.1-4.7,4.7-4.7h21c2.6,0,4.7,2.1,4.7,4.7v6
		C120.2,328.8,118,331,115.4,331z"/>
	<path class="st4" d="M102.5,306.9H83.2c-2.6,0-4.7-2.1-4.7-4.7v-6c0-2.6,2.1-4.7,4.7-4.7h19.2c2.6,0,4.7,2.1,4.7,4.7v6
		C107.2,304.7,105.1,306.9,102.5,306.9z"/>
	<ellipse class="st5" cx="114.6" cy="275.3" rx="10.4" ry="8"/>
	<ellipse class="st5" cx="145.8" cy="275.3" rx="10.4" ry="8"/>
	<ellipse class="st5" cx="176.3" cy="275.3" rx="10.4" ry="8"/>
	<ellipse class="st5" cx="207.1" cy="275.3" rx="10.4" ry="8"/>
	<ellipse class="st5" cx="237.5" cy="275.3" rx="10.4" ry="8"/>
	<ellipse class="st5" cx="268.7" cy="275.3" rx="10.4" ry="8"/>
	<ellipse class="st5" cx="299.2" cy="275.3" rx="10.4" ry="8"/>
	<ellipse class="st5" cx="330.7" cy="275.3" rx="10.4" ry="8"/>
	<ellipse class="st5" cx="361.1" cy="275.3" rx="10.4" ry="8"/>
	<ellipse class="st5" cx="390.9" cy="275.3" rx="10.4" ry="8"/>
	<ellipse class="st5" cx="421" cy="275.3" rx="10.4" ry="8"/>
</g>
<path class="st0" d="M452.7,103.4H84.2c-7.3,0-13.7,5-15.4,12.1l-21.6,89.1c-2.4,10,5.1,19.6,15.4,19.6h411.7
	c10.3,0,17.8-9.6,15.4-19.6l-21.6-89.1C466.4,108.4,460,103.4,452.7,103.4z"/>
<polygon class="st6" points="373.7,209.5 165.1,209.5 166.9,193 371.9,193 "/>
<path class="st7" d="M452,146.7c0,0-59.4,22.2-184.4,22.2c-98.8,0-183.1-21.4-183.1-21.4l3.6-17.9c0.9-4.6,5.5-7.9,10.9-7.9h337.8
	c5.2,0,9.7,3.1,10.8,7.5L452,146.7z"/>
<path class="st2" d="M475.6,145.1c-45.5,18.8-121.2,31-207,31c-85.5,0-161.1-12.2-206.6-30.8l3.1-12.6l3.1-12.8l1.1-4.4
	c1.7-7.1,8.1-12.1,15.4-12.1h58.9v7.3H87.5c-5.7,0-10.7,4.2-11.6,9.8l-3.8,22.2l12.7,4.8c0,0,36.7,8.5,92.4,14.5
	c22.5,2.5,47.3,4.4,72.5,5.1c1.8,0.1,3.7,0.1,5.5,0.1c0.3,0,0.6,0,1,0c3.9,0.1,7.8,0.1,11.7,0.1h0.1c4.1,0,8.2,0,12.3-0.1
	c2.5,0,4.9-0.1,7.3-0.2c25.9-0.7,50.6-2.6,72.8-5c56.1-6.1,92-15.4,92-15.4l-0.4-1.5c8.5-2.1,13.1-3.5,13.1-3.5l-4.8-21.8
	c-1.2-5.4-6-9.3-11.5-9.3h-54.5v-7.3H453c7.3,0,13.7,5,15.4,12.1L475.6,145.1z"/>
<path class="st8" d="M464.7,141.8c0,0-48,25.6-197.2,25.6c-139.2,0-195.8-24.7-195.8-24.7l3.8-22.2c1-5.7,5.9-9.8,11.6-9.8h361.1
	c5.5,0,10.3,3.9,11.5,9.3L464.7,141.8z"/>
<path class="st6" d="M366.4,2.7v159.9c-29.7,3.8-63.6,6.6-98.8,6.6c-33.6,0-67.2-2.9-97-6.7V2.7H366.4z"/>
</svg>
