<?xml version="1.0" encoding="utf-8"?>
<!-- Generator: Adobe Illustrator 22.0.1, SVG Export Plug-In . SVG Version: 6.00 Build 0)  -->
<svg version="1.1" id="Layer_1" xmlns="http://www.w3.org/2000/svg" xmlns:xlink="http://www.w3.org/1999/xlink" x="0px" y="0px"
	 viewBox="0 0 500 408.7" style="enable-background:new 0 0 500 408.7;" xml:space="preserve">
<style type="text/css">
	.st0{fill:#CEDBD1;}
	.st1{opacity:0.5;}
	.st2{fill:#3F3F3F;}
	.st3{fill:#BCBCBC;}
	.st4{fill:#E5E5E5;}
	.st5{fill:#F3F3F1;}
	.st6{fill:none;stroke:#FCFCFA;stroke-width:1.0511;stroke-miterlimit:10;}
	.st7{fill:#FFFFFF;}
	.st8{fill:#1E1E1E;}
	.st9{opacity:0.31;}
	.st10{fill:#FFF4E9;}
</style>
<ellipse transform="matrix(0.9835 -0.181 0.181 0.9835 -15.9736 6.2849)" class="st0" cx="26.4" cy="90.7" rx="14.5" ry="44.2"/>
<rect x="32.9" y="121.5" class="st0" width="34.8" height="12.8"/>
<ellipse transform="matrix(0.9636 -0.2674 0.2674 0.9636 -20.1291 10.8326)" class="st1" cx="29.7" cy="79.3" rx="8.6" ry="30.6"/>
<path class="st2" d="M473.3,406.9H62.7c-11.9,0-21.1-10.5-19.5-22.3l19-142.4h411.7l19,142.4C494.4,396.5,485.2,406.9,473.3,406.9z"
	/>
<rect x="62.2" y="220.3" class="st3" width="411.7" height="23.8"/>
<path class="st3" d="M393.3,121.5H142.7V88.1c0-5.8,4.7-10.5,10.5-10.5h229.6c5.8,0,10.5,4.7,10.5,10.5V121.5z"/>
<polygon points="470.2,361.2 65.8,361.2 80.4,260.6 455.5,260.6 "/>
<polygon class="st3" points="491.2,374 44.6,374.1 45.1,370.3 490.8,370.3 "/>
<g>
	<ellipse class="st4" cx="125.7" cy="301.3" rx="11.9" ry="9.1"/>
	<ellipse class="st4" cx="156.4" cy="301.3" rx="11.9" ry="9.1"/>
	<ellipse class="st4" cx="187.6" cy="301.3" rx="11.9" ry="9.1"/>
	<ellipse class="st4" cx="218.1" cy="301.3" rx="11.9" ry="9.1"/>
	<ellipse class="st4" cx="248.2" cy="301.3" rx="11.9" ry="9.1"/>
	<ellipse class="st4" cx="279.7" cy="301.3" rx="11.9" ry="9.1"/>
	<ellipse class="st4" cx="310.2" cy="301.3" rx="11.9" ry="9.1"/>
	<ellipse class="st4" cx="341.7" cy="301.3" rx="11.9" ry="9.1"/>
	<ellipse class="st4" cx="372.1" cy="301.3" rx="11.9" ry="9.1"/>
	<ellipse class="st4" cx="401.6" cy="301.3" rx="11.9" ry="9.1"/>
	<ellipse class="st5" cx="125.3" cy="300.3" rx="11.9" ry="9.1"/>
	<ellipse class="st5" cx="156.4" cy="300.3" rx="11.9" ry="9.1"/>
	<ellipse class="st5" cx="187.1" cy="300.3" rx="11.9" ry="9.1"/>
	<ellipse class="st5" cx="217.9" cy="300.3" rx="11.9" ry="9.1"/>
	<ellipse class="st5" cx="248.6" cy="300.3" rx="11.9" ry="9.1"/>
	<ellipse class="st5" cx="279.3" cy="300.3" rx="11.9" ry="9.1"/>
	<ellipse class="st5" cx="310.1" cy="300.3" rx="11.9" ry="9.1"/>
	<ellipse class="st5" cx="341.3" cy="300.5" rx="11.9" ry="9.1"/>
	<ellipse class="st5" cx="371.4" cy="300.3" rx="11.9" ry="9.1"/>
	<ellipse class="st5" cx="401.6" cy="300.3" rx="11.9" ry="9.1"/>
	<ellipse class="st5" cx="340.8" cy="300.3" rx="11.9" ry="9.1"/>
	<ellipse class="st6" cx="125.3" cy="300.3" rx="10.4" ry="8"/>
	<ellipse class="st6" cx="156.5" cy="300.3" rx="10.4" ry="8"/>
	<ellipse class="st6" cx="187" cy="300.3" rx="10.4" ry="8"/>
	<ellipse class="st6" cx="217.8" cy="300.3" rx="10.4" ry="8"/>
	<ellipse class="st6" cx="248.3" cy="300.3" rx="10.4" ry="8"/>
	<ellipse class="st6" cx="279.4" cy="300.3" rx="10.4" ry="8"/>
	<ellipse class="st6" cx="309.9" cy="300.3" rx="10.4" ry="8"/>
	<ellipse class="st6" cx="341.4" cy="300.3" rx="10.4" ry="8"/>
	<ellipse class="st6" cx="371.9" cy="300.3" rx="10.4" ry="8"/>
	<ellipse class="st4" cx="143.6" cy="324.4" rx="11.9" ry="9.1"/>
	<ellipse class="st4" cx="174.3" cy="324.3" rx="11.9" ry="9.1"/>
	<ellipse class="st4" cx="205.5" cy="324.3" rx="11.9" ry="9.1"/>
	<ellipse class="st4" cx="235.9" cy="324.3" rx="11.9" ry="9.1"/>
	<ellipse class="st4" cx="266" cy="324.3" rx="11.9" ry="9.1"/>
	<ellipse class="st4" cx="297.6" cy="324.3" rx="11.9" ry="9.1"/>
	<ellipse class="st4" cx="328" cy="324.3" rx="11.9" ry="9.1"/>
	<ellipse class="st4" cx="359.5" cy="324.3" rx="11.9" ry="9.1"/>
	<ellipse class="st4" cx="390" cy="324.3" rx="11.9" ry="9.1"/>
	<ellipse class="st5" cx="143.2" cy="323.3" rx="11.9" ry="9.1"/>
	<ellipse class="st5" cx="174.2" cy="323.3" rx="11.9" ry="9.1"/>
	<ellipse class="st5" cx="205" cy="323.3" rx="11.9" ry="9.1"/>
	<ellipse class="st5" cx="235.7" cy="323.3" rx="11.9" ry="9.1"/>
	<ellipse class="st5" cx="266.5" cy="323.3" rx="11.9" ry="9.1"/>
	<ellipse class="st5" cx="297.2" cy="323.3" rx="11.9" ry="9.1"/>
	<ellipse class="st5" cx="327.9" cy="323.3" rx="11.9" ry="9.1"/>
	<ellipse class="st5" cx="359.2" cy="323.5" rx="11.9" ry="9.1"/>
	<ellipse class="st5" cx="389.3" cy="323.3" rx="11.9" ry="9.1"/>
	<ellipse class="st5" cx="358.7" cy="323.3" rx="11.9" ry="9.1"/>
	<ellipse class="st6" cx="143.2" cy="323.3" rx="10.4" ry="8"/>
	<ellipse class="st6" cx="174.4" cy="323.3" rx="10.4" ry="8"/>
	<ellipse class="st6" cx="204.8" cy="323.3" rx="10.4" ry="8"/>
	<ellipse class="st6" cx="235.7" cy="323.3" rx="10.4" ry="8"/>
	<ellipse class="st6" cx="266.1" cy="323.3" rx="10.4" ry="8"/>
	<ellipse class="st6" cx="297.3" cy="323.3" rx="10.4" ry="8"/>
	<ellipse class="st6" cx="327.7" cy="323.3" rx="10.4" ry="8"/>
	<ellipse class="st6" cx="359.3" cy="323.3" rx="10.4" ry="8"/>
	<ellipse class="st6" cx="389.7" cy="323.3" rx="10.4" ry="8"/>
	<ellipse class="st4" cx="159.7" cy="346.6" rx="11.9" ry="9.1"/>
	<ellipse class="st4" cx="190.4" cy="346.6" rx="11.9" ry="9.1"/>
	<ellipse class="st4" cx="221.6" cy="346.6" rx="11.9" ry="9.1"/>
	<ellipse class="st4" cx="252" cy="346.6" rx="11.9" ry="9.1"/>
	<ellipse class="st4" cx="282.2" cy="346.6" rx="11.9" ry="9.1"/>
	<ellipse class="st4" cx="313.7" cy="346.6" rx="11.9" ry="9.1"/>
	<ellipse class="st4" cx="344.1" cy="346.6" rx="11.9" ry="9.1"/>
	<ellipse class="st4" cx="375.7" cy="346.6" rx="11.9" ry="9.1"/>
	<ellipse class="st4" cx="406.1" cy="346.6" rx="11.9" ry="9.1"/>
	<ellipse class="st5" cx="159.3" cy="345.5" rx="11.9" ry="9.1"/>
	<ellipse class="st5" cx="190.3" cy="345.5" rx="11.9" ry="9.1"/>
	<ellipse class="st5" cx="221.1" cy="345.5" rx="11.9" ry="9.1"/>
	<ellipse class="st5" cx="251.8" cy="345.5" rx="11.9" ry="9.1"/>
	<ellipse class="st5" cx="282.6" cy="345.5" rx="11.9" ry="9.1"/>
	<ellipse class="st5" cx="313.3" cy="345.5" rx="11.9" ry="9.1"/>
	<ellipse class="st5" cx="344.1" cy="345.5" rx="11.9" ry="9.1"/>
	<ellipse class="st5" cx="375.3" cy="345.7" rx="11.9" ry="9.1"/>
	<ellipse class="st5" cx="405.4" cy="345.5" rx="11.9" ry="9.1"/>
	<ellipse class="st5" cx="374.8" cy="345.5" rx="11.9" ry="9.1"/>
	<ellipse class="st6" cx="159.3" cy="345.5" rx="10.4" ry="8"/>
	<ellipse class="st6" cx="190.5" cy="345.5" rx="10.4" ry="8"/>
	<ellipse class="st6" cx="220.9" cy="345.5" rx="10.4" ry="8"/>
	<ellipse class="st6" cx="251.8" cy="345.5" rx="10.4" ry="8"/>
	<ellipse class="st6" cx="282.2" cy="345.5" rx="10.4" ry="8"/>
	<ellipse class="st6" cx="313.4" cy="345.5" rx="10.4" ry="8"/>
	<ellipse class="st6" cx="343.9" cy="345.5" rx="10.4" ry="8"/>
	<ellipse class="st6" cx="375.4" cy="345.5" rx="10.4" ry="8"/>
	<ellipse class="st6" cx="405.8" cy="345.5" rx="10.4" ry="8"/>
	<ellipse class="st6" cx="401.6" cy="300.3" rx="10.4" ry="8"/>
	<ellipse class="st5" cx="431" cy="300.8" rx="11.9" ry="9.1"/>
	<ellipse class="st4" cx="114.5" cy="278" rx="11.9" ry="9.1"/>
	<ellipse class="st4" cx="145.2" cy="278" rx="11.9" ry="9.1"/>
	<ellipse class="st4" cx="176.4" cy="278" rx="11.9" ry="9.1"/>
	<ellipse class="st4" cx="206.9" cy="278" rx="11.9" ry="9.1"/>
	<ellipse class="st4" cx="237" cy="278" rx="11.9" ry="9.1"/>
	<ellipse class="st4" cx="268.5" cy="278" rx="11.9" ry="9.1"/>
	<ellipse class="st4" cx="299" cy="278" rx="11.9" ry="9.1"/>
	<ellipse class="st4" cx="330.5" cy="278" rx="11.9" ry="9.1"/>
	<ellipse class="st4" cx="360.9" cy="278" rx="11.9" ry="9.1"/>
	<ellipse class="st4" cx="390.4" cy="278" rx="11.9" ry="9.1"/>
	<ellipse class="st4" cx="419.8" cy="278" rx="11.9" ry="9.1"/>
	<ellipse class="st5" cx="114.1" cy="277" rx="11.9" ry="9.1"/>
	<ellipse class="st5" cx="145.2" cy="277" rx="11.9" ry="9.1"/>
	<ellipse class="st5" cx="175.9" cy="277" rx="11.9" ry="9.1"/>
	<ellipse class="st5" cx="206.7" cy="277" rx="11.9" ry="9.1"/>
	<ellipse class="st5" cx="237.4" cy="277" rx="11.9" ry="9.1"/>
	<ellipse class="st5" cx="268.1" cy="277" rx="11.9" ry="9.1"/>
	<ellipse class="st5" cx="298.9" cy="277" rx="11.9" ry="9.1"/>
	<ellipse class="st5" cx="330.1" cy="277.2" rx="11.9" ry="9.1"/>
	<ellipse class="st5" cx="360.2" cy="277" rx="11.9" ry="9.1"/>
	<ellipse class="st5" cx="390.4" cy="277" rx="11.9" ry="9.1"/>
	<ellipse class="st5" cx="329.6" cy="277" rx="11.9" ry="9.1"/>
	<ellipse class="st5" cx="420.5" cy="277" rx="11.9" ry="9.1"/>
	<ellipse class="st5" cx="419.1" cy="323.8" rx="11.9" ry="9.1"/>
	<ellipse class="st5" cx="447.1" cy="323.8" rx="11.9" ry="9.1"/>
	<g>
		<path d="M121.4,299.6c0-0.2-0.7-0.4-1.1-0.5c-0.1,0-0.1,0-0.1,0c0-0.1,0.3-0.2,0.5-0.2c0.4,0,1.4,0.1,1.4,0.3c0,0.1,0,0.2,0,0.3
			v1.3l5.5-0.1V299c0-0.2-0.3-0.4-1-0.6c0,0-0.1,0-0.1,0c0-0.1,0.2-0.1,0.3-0.1h0c0.7,0.1,1.5,0.2,1.5,0.5c0,0.1-0.1,0.2-0.1,0.2
			v4.5c0,0.4-0.2,0.8-0.4,0.8c-0.2,0-0.3-0.2-0.3-0.4L122,304c0,0.3-0.2,0.6-0.4,0.6c-0.1,0-0.2-0.2-0.2-0.5V299.6z M122,301.1v2.5
			l5.5-0.1v-2.5L122,301.1z"/>
	</g>
	<g>
		<path d="M155.6,299.3c0-0.1-0.1-0.3-0.2-0.4c-0.4,0-0.7,0-1,0.1c-1.2,0.1-1.4,0.3-1.7,0.3c-0.3,0-1.5-0.5-1.5-0.7c0,0,0,0,0.1,0
			c0,0,0.1,0,0.2,0c0.7,0.1,0.8,0.2,1.7,0.2c0.7,0,4.1-0.2,4.3-0.2c0.6,0,0.5-0.3,1.3-0.3c0.1,0,1.1,0.1,1.1,0.4
			c0,0.2-0.4,0.2-0.9,0.2c-0.8,0-2,0-3.1,0.1c0.4,0.3,0.6,0.5,0.6,0.6c0,0.2-0.3,0.3-0.5,0.6c2.8,2.3,2.3,1.1,3.9,2.3
			c0.5,0.4,0.6,0.6,0.6,0.8c0,0.1-0.1,0.2-0.2,0.2c-0.1,0-0.2-0.1-0.5-0.2l-4-2.8c-2.5,2.7-5.3,3.3-5.5,3.3c-0.1,0-0.1,0-0.1,0
			c0,0,0.1-0.1,0.3-0.2C151.6,303.1,154.7,301.3,155.6,299.3L155.6,299.3z"/>
	</g>
	<g>
		<path d="M187.4,298.4c1.7-0.1,1-0.3,2.3-0.3c0.7,0,0.9,0.1,0.9,0.4c0,0.2-0.2,0.2-0.8,0.2H183v3.1c0,0.4,0.2,0.6,1.2,0.6h3.7
			c1.5,0,1.2-0.3,2.5-0.3c0.7,0,0.9,0.2,0.9,0.4c0,0.2-0.2,0.2-0.6,0.3h-6.9c-0.8,0-1.4-0.2-1.4-0.7v-2.8c0-0.3-0.1-0.5-1-0.6
			c-0.1,0-0.2,0-0.2-0.1c0-0.1,0.3-0.1,0.5-0.1c0.6,0,1,0.1,1.3,0.2H187.4z"/>
	</g>
	<g>
		<path d="M219.5,298c0.7-0.1,0.6-0.2,1.1-0.2c0.8,0,0.8,0.1,0.8,0.2c0,0.1-0.2,0.3-0.2,0.6v3.3c0,1.4-0.4,1.4-0.5,1.4
			c-0.2,0-0.2-0.4-0.2-0.9v-4l-5.1,0.3c-0.9,0.1-1.1,0.2-1.4,0.2c-0.3,0-1.6-0.6-1.6-0.7c0,0,0.1-0.1,0.1-0.1c0,0,0.1,0,0.2,0
			c0.6,0.1,1.3,0.2,2.2,0.2C216.1,298.2,217.6,298.1,219.5,298L219.5,298z"/>
	</g>
	<g>
		<path d="M247.9,299c-2.3,2.8-5.4,3.8-5.5,3.8c-0.1,0-0.1,0-0.1,0c0,0,0-0.1,0.1-0.1c2.3-0.9,4.3-2.8,5.3-4.7c0,0,0-0.1,0-0.2
			c0-0.2-0.4-0.5-0.9-0.7c0,0,0,0,0,0c0,0,0.1-0.1,0.3-0.1c0,0,0.1,0,0.1,0c0.4,0.2,1.5,0.6,1.5,0.8c0,0.1-0.1,0.2-0.2,0.3
			c-0.1,0.2-0.3,0.4-0.5,0.7c3.3,2.5,3,1.5,4.2,2.5c0.5,0.4,0.6,0.7,0.6,0.9c0,0.1-0.1,0.2-0.2,0.2c-0.1,0-0.2-0.1-0.3-0.1
			L247.9,299z"/>
	</g>
	<g>
		<path d="M282.2,301.6c0.8,0,1-0.3,1.6-0.3c0.1,0,0.3,0,0.5,0c0.8,0.1,0.9,0.2,0.9,0.4c-0.1,0.2-0.1,0.2-0.4,0.2
			c-0.3,0-0.8-0.1-1.8-0.1c-0.4,0-0.8,0-1.2,0c-1.7,0-4,0-5.7,0.1c-1.3,0-1.3,0.2-1.5,0.2c-0.3,0-1.9-0.5-1.9-0.7c0,0,0,0,0.1,0
			c0,0,0.1,0,0.2,0c0.8,0.2,1.8,0.2,2.9,0.2c0.3,0,0.5,0,0.8,0c-0.2-0.3-0.2-1.6-0.4-2.3c-0.1-0.3-0.2-0.7-0.6-1.2c0,0,0-0.1,0-0.1
			c0,0,0,0,0.1,0s0.1,0,0.2,0.1l0.9,0.4c0.3,0.2,0.4,0.3,0.4,0.4c0,0.1-0.2,0.2-0.2,0.4c0.1,0.8,0.1,1.3,0.1,1.6
			c0,0.6-0.1,0.6-0.2,0.7c0.5,0,2.7,0,3.2,0l0.6-3.5c0,0,0-0.1,0-0.1c0-0.2-0.1-0.4-0.8-0.6c0,0,0,0,0,0c0-0.1,0.1-0.1,0.3-0.1
			c0.1,0,1.5,0.2,1.5,0.5c0,0.1-0.1,0.2-0.1,0.3c-0.2,1.1-0.6,2.6-0.8,3.5H282.2z"/>
	</g>
	<g>
		<path d="M311.7,298.8c-0.7,0-1.2,0-2.1,0.1c-0.8,0.1-0.8,0.2-1,0.2c-0.2,0-1.3-0.3-1.3-0.5c0,0,0,0,0.1,0c0.1,0,0.3,0,0.5,0.1
			c0.3,0,0.6,0,1,0c0.7,0,1.6,0,2.9-0.1v-2.1c0-0.2-0.5-0.4-1.4-0.7c-0.1,0-0.1,0-0.1-0.1c0-0.1,0.2-0.1,0.4-0.1
			c0.5,0.1,1.3,0.2,1.6,0.3c0.2,0.1,0.3,0.1,0.3,0.2c0,0.1,0,0.2,0,0.2v7.6c0,0.5-0.2,1-0.5,1c-0.2,0-0.3-0.3-0.3-0.6v-2.9
			c-0.7,0-1.2,0.1-2.1,0.1c-0.8,0.1-0.8,0.2-1,0.2c-0.2,0-1.3-0.3-1.3-0.5c0,0,0,0,0.1,0c0.1,0,0.3,0,0.5,0.1c0.3,0,0.6,0,0.9,0
			c0.7,0,1.6,0,3-0.1V298.8z"/>
	</g>
	<g>
		<path d="M340.8,296.6c0-0.2-0.6-0.4-1.4-0.7c-0.1,0-0.1,0-0.1-0.1c0-0.1,0.2-0.1,0.4-0.1c0.5,0.1,1.2,0.2,1.6,0.3
			c0.2,0.1,0.3,0.1,0.3,0.2c0,0.1-0.1,0.2-0.1,0.2v2.6h1.4c0.6,0,0.6-0.3,1.2-0.3c0.6,0,0.9,0.1,0.9,0.3c0,0.1-0.1,0.2-0.5,0.2h-3.1
			v2.5h1.4c0.6,0,0.6-0.2,1.2-0.3c0.6,0,0.9,0.1,0.9,0.3c0,0.1-0.1,0.2-0.4,0.2h-3.1v2.1c0,0.5-0.2,1-0.4,1c-0.1,0-0.3-0.3-0.3-0.6
			V296.6z"/>
	</g>
	<g>
		<path d="M372.7,296.1c0-0.2-0.2-0.3-1.4-0.7c0,0-0.1,0-0.1,0c0-0.1,0.2-0.1,0.4-0.1c0.8,0.1,1.2,0.2,1.5,0.3
			c0.2,0.1,0.3,0.1,0.3,0.2c0,0.1-0.1,0.2-0.1,0.3v7.6c0,0.5-0.2,1-0.4,1c-0.1,0-0.3-0.3-0.3-0.6v-3.8h-3v2.8c0,0.5-0.2,1-0.4,1
			c-0.1,0-0.3-0.3-0.3-0.6v-6.7c0-0.2-0.2-0.4-1.1-0.6c0,0-0.1,0-0.1,0c0-0.1,0.2-0.1,0.4-0.1c0.5,0.1,0.9,0.2,1.2,0.2
			c0.2,0.1,0.3,0.1,0.3,0.2c0,0.1-0.1,0.2-0.1,0.2v3.4h3V296.1z"/>
	</g>
	<g>
		<path d="M402.4,299.8c-0.9,0-1.1,0.1-1.5,0.1c-0.8,0.1-0.8,0.2-1,0.2c-0.2,0-1.3-0.4-1.3-0.5c0,0,0,0,0.1,0c0.1,0,0.3,0,0.5,0.1
			c0.3,0,0.6,0,0.9,0c0.7,0,1.4,0,2.3-0.1v-2.8c0-0.3-0.5-0.4-1.2-0.7c0,0-0.1,0-0.1,0c0-0.1,0.2-0.1,0.3-0.1c0.1,0,1,0.2,1.4,0.3
			c0.2,0.1,0.3,0.1,0.3,0.2c0,0.1,0,0.2,0,0.2v6.2c0,0.5-0.2,1-0.4,1c-0.2,0-0.3-0.3-0.3-0.6V299.8z M405.3,296.1
			c0-0.2-0.5-0.4-1.4-0.7c0,0-0.1,0-0.1,0c0,0,0.2-0.1,0.3-0.1c0.1,0,1,0.2,1.6,0.3c0.2,0.1,0.3,0.1,0.3,0.2c0,0.1,0,0.2,0,0.2v7.6
			c0,0.5-0.2,1-0.5,1c-0.1,0-0.3-0.3-0.3-0.6V296.1z"/>
	</g>
	<g>
		<path d="M140.4,322.7c0-0.2-0.4-0.4-1-0.5c-0.1,0-0.1,0-0.1-0.1c0-0.1,0.2-0.2,0.5-0.2c0.5,0,1.1,0.1,1.4,0.2l5.4-0.1
			c0.9,0,0.8-0.2,1.3-0.2c0.4,0,0.9,0.1,0.9,0.2c0,0.1-0.3,0.3-0.3,0.5l-0.8,3.2c0.4,0,0.6,0.1,0.6,0.2c0,0.2-0.2,0.3-0.4,0.3
			l-6.4,0.1c0,0.3-0.2,0.6-0.3,0.6c-0.1,0-0.2-0.2-0.3-0.5L140.4,322.7z M141.1,322.4l0.2,3.7l4.3-0.1c0.9,0,0.9-0.2,1.4-0.2
			l0.5-3.5L141.1,322.4z"/>
	</g>
	<g>
		<path d="M171.2,325.4c0,0.5,0.2,0.6,0.8,0.6h3.3c2.2,0,1.5-0.3,2.9-0.3c0.8,0,1,0.1,1,0.3c0,0.2-0.1,0.3-0.7,0.3h-6.9
			c-0.6,0-1.2-0.3-1.2-0.7v-2.8c0-0.2-0.4-0.4-1-0.5c-0.1,0-0.2-0.1-0.2-0.1c0-0.1,0.1-0.1,0.3-0.1c0.4,0,1,0.1,1.5,0.2
			c0.2,0,0.3,0.1,0.3,0.2c0,0.1-0.1,0.3-0.1,0.5V325.4z"/>
	</g>
	<g>
		<path d="M205.5,321.2c0.1,0,0.1,0.1,0.1,0.1c0,0.1-0.1,0.1-0.2,0.3c2.3,0.2,3.4,1.3,3.4,2.4c0,1.3-1.2,2.6-3.8,2.6
			c-2.5,0-3.8-1.2-3.8-2.6c0-1.1,1.2-2.3,3.5-2.4c0-0.2-0.1-0.3-0.3-0.4c0,0,0,0,0,0c0,0,0.1-0.1,0.3-0.1c0.1,0,0.2,0,0.2,0
			L205.5,321.2z M201.9,324.1c0,1.1,1,2.1,3.1,2.1s3.1-1.1,3.1-2.1c0-1.1-1-2.1-3.1-2.1S201.9,323.1,201.9,324.1z"/>
	</g>
	<g>
		<path d="M238.9,320.8c0.8-0.1,0.5-0.2,1.2-0.2c0.8,0,0.8,0.1,0.8,0.2c0,0.1-0.2,0.2-0.3,0.5l-0.6,1.7c0.4,0,0.5,0.2,0.5,0.3
			c0,0,0,0.2-0.4,0.2l-6.5,0.1v1.9c0,0.2,0.3,0.3,0.8,0.3h3.6c1.8,0,1.5-0.3,2.6-0.3c0.6,0,1,0.1,1,0.3c0,0.2-0.2,0.3-0.9,0.3H234
			c-0.6,0-1-0.2-1-0.5v-1.8c0-0.2-0.3-0.3-0.8-0.4c-0.1,0-0.2,0-0.2-0.1c0-0.1,0.1-0.2,0.4-0.2c0.6,0,1,0.1,1.3,0.2l4.8-0.1
			c0.8-0.1,0.8-0.2,1.1-0.2l0.2-1.9c-2.1,0.1-3.1,0.1-5.2,0.2c-0.6,0.1-0.8,0.2-1,0.2c-0.3,0-1.3-0.6-1.3-0.7c0,0,0.1-0.1,0.1-0.1
			c0.1,0,0.2,0,0.3,0.1c0.4,0.1,0.7,0.2,1.8,0.2c0.9,0,2.2,0,4.3-0.1H238.9z"/>
	</g>
	<g>
		<path d="M269,321.9l0.2,0c1.4-0.1,1-0.3,2-0.3c0.3,0,1.1,0.1,1.1,0.4c0,0.2-0.2,0.2-0.8,0.2c-0.3,0-0.7,0-1.1,0
			c-1.8,0.1-3,0.1-5.9,0.2c-1,0-1.1,0.2-1.3,0.2c-0.3,0-1.3-0.5-1.3-0.6c0,0,0,0,0.1,0c0.1,0,0.2,0,0.3,0c0.4,0.1,1,0.1,2,0.2
			L269,321.9z M267.5,322.5c0.1,0.1,0.2,0.1,0.2,0.2c0,0.1-0.1,0.2-0.2,0.3c1.7,0.1,2.5,1,2.5,1.8c0,0.9-1,1.8-2.9,1.8
			c-1.8,0-2.9-0.8-2.9-1.8c0-0.9,0.9-1.7,2.6-1.8c0.1-0.1,0.1-0.2,0.1-0.3c0-0.1,0-0.2-0.1-0.2c0,0-0.1-0.1-0.1-0.1c0,0,0,0,0.1,0
			s0.1,0,0.2,0L267.5,322.5z M266.6,321.1c-1.2,0-1.7-0.4-1.7-0.6c0,0,0,0,0.1,0c0.1,0,0.2,0,0.3,0c0.3,0.1,0.7,0.1,1.3,0.1
			c0.3,0,1.6,0,1.9,0c0.2,0,0.7,0,0.7,0.2c0,0.2-0.1,0.3-0.9,0.3H266.6z M265,324.6c0,0.7,0.7,1.4,2,1.4c1.4,0,2.1-0.7,2.1-1.4
			c0-0.7-0.7-1.4-2.1-1.4C265.7,323.2,265,323.9,265,324.6z"/>
	</g>
	<g>
		<path d="M301,325.7c0.9,0,0.7-0.2,1.4-0.2c0.7,0,1.4,0.1,1.4,0.4c0,0.1-0.1,0.2-0.5,0.2c-0.4,0-1-0.1-2.4-0.1
			c-1.9,0-3.9,0.1-6,0.1h-0.1c-1.2,0-1.3,0.2-1.6,0.2s-1.9-0.5-1.9-0.7c0,0,0,0,0.1,0c0,0,0.1,0,0.2,0c0.7,0.1,2.1,0.2,5.6,0.3v-3.8
			c0-0.2-0.2-0.4-0.8-0.5c-0.1,0-0.1,0-0.1,0c0,0,0.1-0.1,0.3-0.1c0.4,0,1.5,0.1,1.5,0.4c0,0.1-0.1,0.2-0.1,0.3l-0.3,3.8l3-0.1
			L301,325.7z"/>
	</g>
	<g>
		<path d="M329.9,320.7c0-0.2-0.6-0.4-1.4-0.7c-0.1,0-0.1,0-0.1-0.1c0-0.1,0.2-0.1,0.4-0.1c0.5,0.1,1.3,0.2,1.6,0.3
			c0.2,0.1,0.3,0.1,0.3,0.2c0,0.1,0,0.2,0,0.2v7.6c0,0.5-0.2,1-0.4,1c-0.2,0-0.3-0.3-0.3-0.6v-4.5c-0.6,0-1.1,0-2.1,0.1
			c-0.8,0.1-0.8,0.2-1,0.2c-0.3,0-1.3-0.4-1.3-0.5c0,0,0,0,0.1,0c0.1,0,0.3,0,0.5,0.1c0.3,0,0.6,0,1,0c0.7,0,1.6,0,2.9-0.1V320.7z"
			/>
	</g>
	<g>
		<path d="M359.4,320.3c0-0.2-0.4-0.4-1.1-0.5c-0.1,0-0.2-0.1-0.2-0.1c0-0.1,0.2-0.1,0.5-0.1c0.4,0,0.8,0.1,1.4,0.2
			c0.2,0,0.3,0.1,0.3,0.2c0,0.1-0.1,0.2-0.1,0.4v3.9c1.5,0,1-0.3,2-0.3c0.6,0,0.8,0.1,0.8,0.3c0,0.2-0.2,0.3-0.7,0.3h-2.1v2.6
			c0,1.8-0.5,1.9-0.5,1.9c-0.1,0-0.2-0.3-0.2-1V320.3z"/>
	</g>
	<g>
		<path d="M389.9,320.4c0-0.2-0.6-0.5-1.2-0.6c-0.1,0-0.2,0-0.2-0.1c0-0.1,0.2-0.1,0.4-0.1c0.4,0,1.1,0.1,1.4,0.2
			c0.2,0,0.3,0.1,0.3,0.2c0,0.1-0.1,0.2-0.1,0.4v7c0,1.6-0.5,1.6-0.5,1.6c-0.2,0-0.2-0.4-0.2-0.9V320.4z"/>
	</g>
	<g>
		<path d="M162.3,343.8c0.4,0,0.2-0.2,0.6-0.2c0.3,0,0.8,0.1,0.8,0.2c0,0.1-0.2,0.2-0.3,0.4c-0.3,2.1-0.3,3.6-1.5,5.1
			c-0.1,0.1-0.2,0.2-0.2,0.2c0,0,0,0,0-0.1c0,0,0-0.1,0.1-0.2c0.5-0.9,0.8-2.1,0.9-3.6c-2,0.6-4.1,1.1-6,1.5
			c-0.4,0.1-0.4,0.2-0.6,0.2c-0.1,0-1.4-0.4-1.8-0.6c0,0,0,0,0-0.1c0,0,0.1-0.1,0.2-0.1c0,0,0.1,0,0.1,0c0.3,0.1,0.6,0.1,0.9,0.1
			c1.6,0,4.1-0.5,7.2-1.2c0-0.4,0-0.8,0.1-1.3l-4.9,0.2c-0.7,0-0.7,0.2-1,0.2c-0.3,0-1.5-0.5-1.5-0.6c0,0,0,0,0.1,0
			c0.1,0,0.1,0,0.2,0c0.4,0.1,0.9,0.2,1.9,0.2L162.3,343.8L162.3,343.8z"/>
	</g>
	<g>
		<path d="M112.1,280.9v-0.3c1,0,1.5-0.1,1.5-0.7v-5.1c0-0.4-0.2-0.5-0.7-0.5h-1v-0.2c1.1-0.1,1.7-0.4,2.3-0.7v6.6
			c0,0.5,0.5,0.7,1.6,0.7v0.3H112.1z"/>
	</g>
	<g>
		<path d="M147.8,278.8l-0.6,1.9h-4.5v-0.3c0.6-1.2,1.8-2.5,2.9-3.2c1.1-0.8,1.3-1.4,1.3-2.2c0-1.1-0.7-1.5-1.7-1.5
			c-0.9,0-1.6,0.3-1.6,1c0,0.6,0.3,0.5,0.3,0.9c0,0.3-0.3,0.5-0.5,0.5c-0.3,0-0.5-0.3-0.5-0.8c0-0.8,0.7-1.8,2.4-1.8
			c1.6,0,2.3,0.7,2.3,1.9c0,1-0.6,1.8-2.1,2.7c-0.9,0.6-1.8,1.3-2.4,2.3h2.8c0.8,0,1.2-0.3,1.7-1.4L147.8,278.8z"/>
	</g>
	<g>
		<path d="M175.5,276.7c-0.1,0-0.2,0-0.3,0c-0.1,0-0.2-0.1-0.2-0.2c0-0.1,0.1-0.2,0.2-0.2c0.1,0,0.2,0,0.3,0c1.3,0,2-0.6,2-1.7
			c0-0.8-0.4-1.5-1.5-1.5c-1.1,0-1.3,0.4-1.3,0.7c0,0.2,0,0.3,0,0.5c0,0.3-0.2,0.5-0.4,0.5c-0.2,0-0.5-0.1-0.5-0.5
			c0-0.6,0.7-1.4,2.2-1.4c1.4,0,2.2,0.7,2.2,1.8c0,0.9-0.8,1.6-1.7,1.8c1.3,0.2,1.9,1,1.9,1.8c0,1.2-0.8,2.2-2.6,2.2
			c-1.5,0-2.3-0.8-2.3-1.6c0-0.4,0.3-0.6,0.5-0.6c0.2,0,0.5,0.2,0.5,0.5c0,0.1,0,0.3,0,0.5c0,0.5,0.2,1,1.3,1c1.3,0,1.9-0.9,1.9-2
			C177.7,277.3,177,276.6,175.5,276.7L175.5,276.7z"/>
	</g>
	<g>
		<path d="M205.5,280.2v-0.2c0.8,0,1.1-0.1,1.1-0.4v-1.3h-3v-0.3l3.4-5.2h0.3v5.2h1.4v0.3h-1.4v1.3c0,0.4,0.4,0.4,1,0.4v0.2H205.5z
			 M206.5,273.8l-2.7,4.1h2.7V273.8z"/>
	</g>
	<g>
		<path d="M238.8,274.2h-3.6L235,277c0.5-0.5,1-0.7,1.9-0.7c1.7,0,2.5,1.2,2.5,2.4c0,1.1-0.8,2.4-2.5,2.4c-1.6,0-2.5-0.8-2.5-1.7
			c0-0.3,0.2-0.5,0.5-0.5c0.3,0,0.5,0.2,0.5,0.4c0,0.2,0,0.4,0,0.6c0,0.4,0.2,0.8,1.4,0.8c1.3,0,1.9-1.2,1.9-2.1
			c0-1.1-0.6-2.1-1.9-2.1c-0.9,0-1.5,0.5-1.8,0.9l-0.2-0.1l0.3-3.8h4.1L238.8,274.2z"/>
	</g>
	<g>
		<path d="M268.5,275c1.2,0,2,0.8,2,2.4c0,1.7-1.3,2.4-2.4,2.4c-1.5,0-2.5-1-2.5-3.4c0-2.5,1.1-4.2,3-4.2c1.2,0,1.8,0.5,1.8,1
			c0,0.3-0.2,0.5-0.5,0.5c-0.3,0-0.5-0.2-0.5-0.5c0-0.4-0.4-0.7-1.1-0.7c-1.1,0-2,1.4-2,3.7C266.7,275.6,267.5,275,268.5,275z
			 M268.1,279.5c1.2,0,1.7-0.8,1.7-2.3c0-1.1-0.6-1.9-1.6-1.9c-0.9,0-1.6,0.7-2,1.3C266.3,279.1,267.2,279.5,268.1,279.5z"/>
	</g>
	<g>
		<path d="M301.7,273.9v0.4c-1.1,1.7-2.6,3.9-2.6,6c0,0.1,0,0.4,0,0.5c0,0.5-0.2,0.7-0.4,0.7c-0.3,0-0.5-0.2-0.5-0.6v-0.1
			c0.1-1.8,1.4-3.7,3-6.2h-3c-0.8,0-1.2,0.8-1.4,1.4l-0.2-0.1l0.5-2H301.7z"/>
	</g>
	<g>
		<path d="M331.4,275c0,0.9-0.6,1.4-1.6,1.7c1.3,0.3,1.9,1,1.9,2.2c0,1.1-1.1,1.9-2.5,1.9c-1.4,0-2.4-0.7-2.4-1.8
			c0-0.8,0.3-1.4,1.7-2.1c-0.8-0.3-1.4-0.9-1.4-1.9c0-0.8,0.7-1.8,2.1-1.8C330.5,273.2,331.4,273.8,331.4,275z M329.3,280.6
			c1.2,0,2-0.8,2-1.7c0-0.9-0.8-1.5-2.4-1.9c-1.2,0.5-1.4,0.9-1.4,2C327.5,280,328.3,280.6,329.3,280.6z M327.6,275
			c0,0.8,0.7,1.2,1.9,1.6c0.9-0.3,1.3-0.8,1.3-1.6c0-0.9-0.6-1.5-1.6-1.5C328.3,273.4,327.6,273.9,327.6,275z"/>
	</g>
	<g>
		<path d="M359.7,277.5c-1.2,0-2-0.8-2-2.4c0-1.6,1.3-2.4,2.4-2.4c1.5,0,2.5,1,2.5,3.5c0,2.5-1.1,4.2-3,4.2c-1.2,0-1.8-0.5-1.8-1
			c0-0.3,0.2-0.5,0.5-0.5c0.3,0,0.5,0.2,0.5,0.5c0,0.4,0.4,0.7,1.1,0.7c1.1,0,2-1.4,2-3.7C361.4,276.9,360.7,277.5,359.7,277.5z
			 M360.1,272.9c-1.2,0-1.7,0.8-1.7,2.3c0,1.2,0.6,1.9,1.6,1.9c0.9,0,1.6-0.7,1.9-1.3C361.9,273.4,361,272.9,360.1,272.9z"/>
	</g>
	<g>
		<path d="M387.3,276.7h6.8v0.6h-6.8V276.7z"/>
	</g>
	<g>
		<path d="M420.4,274.1h0.6v2.9h3.1v0.6h-3.1v2.9h-0.6v-2.9h-3.1V277h3.1V274.1z"/>
	</g>
	<g>
		<path d="M191.5,343.6c0.9-0.1,0.7-0.3,1.5-0.3c0.3,0,1.2,0.1,1.2,0.3c0,0.1-0.1,0.2-0.5,0.2l-6.9,0.1v1.9l4.3-0.1
			c0.9,0,0.6-0.3,1.5-0.3c0.2,0,1.2,0,1.2,0.3c0,0.1-0.2,0.2-0.7,0.2l-6.5,0.1v1.8c0,0.4,0.3,0.5,0.9,0.5l4.5-0.1
			c0.9,0,0.6-0.3,1.7-0.3c0.6,0,1,0.1,1,0.4c0,0-0.1,0.2-0.4,0.2l-7.3,0.1c-0.6,0-1.2-0.2-1.2-0.7v-3.6c0-0.3-0.3-0.6-1.1-0.7
			c-0.1,0-0.1,0-0.1,0c0,0,0.1-0.1,0.4-0.1c0.6,0,1.1,0.1,1.4,0.2L191.5,343.6z"/>
	</g>
	<g>
		<path d="M220.9,346.2c-1.4,1.2-2.9,2.2-5.3,2.6c-0.1,0-0.2,0-0.3,0c-0.1,0-0.2,0-0.2-0.1c0,0,0.1-0.1,0.3-0.1
			c1.8-0.4,4-1.7,5.3-3.3c0,0,0-0.1,0-0.1c0-0.1,0-0.3-0.2-0.4c-0.1,0-0.2,0-0.3,0c-0.5,0-1.2,0-1.8,0.1c-0.7,0.1-0.8,0.2-1,0.2
			c-0.3,0-1.3-0.5-1.3-0.6c0,0,0,0,0.1,0c0,0,0.1,0,0.2,0c0.2,0,0.6,0.1,1.8,0.1c1.9,0,3.9-0.1,4.1-0.2c0.9,0,0.4-0.3,1.7-0.3
			c0.7,0,1.1,0.1,1.1,0.3c0,0.1,0,0.2-0.5,0.2c-0.8,0-2.5,0-3.6,0c0.4,0.4,0.5,0.6,0.5,0.8c0,0.1-0.1,0.2-0.2,0.3
			c-0.1,0-0.1,0.1-0.2,0.1c3.2,1.9,2.6,1,3.9,1.8c0.6,0.4,0.7,0.6,0.7,0.7c0,0.1-0.1,0.2-0.2,0.2c-0.1,0-0.3-0.1-0.5-0.2
			L220.9,346.2z M221.7,343c0.3,0,0.5,0,0.7,0c0.2,0,0.4,0,0.4,0.2c0,0.2-0.3,0.3-1.7,0.3h-1c-1-0.1-1.5-0.5-1.5-0.6c0,0,0,0,0.1,0
			c0.1,0,0.1,0,0.2,0c0.3,0.1,0.6,0.1,1.1,0.1H221.7z"/>
	</g>
	<g>
		<path d="M253.9,347.9c0.9,0,0.5-0.3,1.6-0.3c0.5,0,1.2,0.2,1.2,0.4c0,0.2-0.5,0.2-0.7,0.2c-0.4,0-1.1,0-1.9,0h-1.2
			c-1.6,0-3.1,0-4,0.1c-1.3,0.1-1.4,0.3-1.6,0.3c-0.1,0-0.2,0-0.3-0.1c-0.3-0.2-0.7-0.3-1-0.5c-0.1,0-0.1-0.1-0.1-0.1
			c0,0,0.1-0.1,0.1-0.1c0.1,0,0.2,0,0.2,0c0.4,0.1,0.8,0.1,2.1,0.2l4-0.1c0.5-1.2,0.8-2.4,0.8-2.5c0-0.3-0.3-0.4-0.8-0.6
			c0-0.1,0.1-0.1,0.4-0.1c0.2,0,1,0.2,1.2,0.3c0.1,0.1,0.2,0.1,0.2,0.2c0,0.1-0.2,0.2-0.3,0.4c-0.3,0.8-0.7,1.6-1.1,2.4L253.9,347.9
			z M253.4,343.7L253.4,343.7c0.8-0.1,0.4-0.3,1.5-0.3c0.7,0,1,0.2,1,0.3c0,0.2-0.2,0.2-0.8,0.2c-0.3,0-0.6,0-1.1,0
			c-1.1,0-2.4,0-4.6,0.1c-1,0.1-1.1,0.2-1.3,0.2c-0.2,0-1.1-0.4-1.4-0.5c0,0,0-0.1,0-0.1c0,0,0-0.1,0.1-0.1c0,0,0.1,0,0.2,0
			c0.4,0.1,1.1,0.2,2,0.2L253.4,343.7z M249.8,347.2c0,0.4-0.2,0.6-0.3,0.6c-0.1,0-0.3-0.1-0.3-0.4c-0.1-0.7-0.2-1.5-1.1-2.2
			c-0.1,0-0.1-0.1-0.1-0.1c0,0,0-0.1,0.1-0.1c0,0,0.1,0,0.2,0C249.7,345.7,249.8,345.9,249.8,347.2z"/>
	</g>
	<g>
		<path d="M285.6,344c0.7,0,0.5-0.3,1.3-0.3c0.1,0,0.3,0,0.4,0c0.8,0.1,1,0.2,1,0.4c0,0.2-0.2,0.2-0.4,0.2c-0.3,0-1.5,0-1.8,0
			l-1.5,0v5.6c0,0.5-0.2,1-0.5,1c-0.2,0-0.3-0.2-0.3-0.7v-5.9l-3.6,0.1v5.4c0,0.5-0.3,1-0.4,1c-0.2,0-0.3-0.4-0.3-0.7v-5.7l-0.8,0
			c-0.9,0-0.8,0.2-1.1,0.2c-0.4,0-1.8-0.6-1.8-0.7c0,0,0,0,0.1,0c0,0,0.1,0,0.2,0c0.9,0.1,1.6,0.2,2.7,0.2c0.3,0,0.6,0,0.9,0
			L285.6,344z"/>
	</g>
	<g>
		<path d="M315,344.3c1.8,0,1.8-0.3,2.6-0.3c0.1,0,0.3,0,0.5,0c0.6,0.1,0.8,0.2,0.8,0.4c0,0.2-0.1,0.2-0.4,0.2c-0.3,0-0.7,0-1.3-0.1
			l-4.3,0v5.3c0,1.3-0.4,1.4-0.5,1.4c-0.2,0-0.2-0.5-0.2-1.2v-5.4l-2.5,0.1c-1.1,0.1-1.1,0.2-1.3,0.2c-0.2,0-2-0.5-2-0.7
			c0,0,0,0,0.1,0c0,0,0.1,0,0.2,0c1.1,0.2,2,0.2,3.6,0.2L315,344.3z"/>
	</g>
	<g>
		<path d="M346.1,346.1c1.6-0.1,1.4-0.2,2-0.2c0.2,0,0.3,0,0.6,0c0.7,0.1,0.9,0.2,0.9,0.4c0,0.2-0.2,0.2-0.3,0.2
			c-0.3,0-0.9-0.1-2.1-0.1c-2.7,0-4.8,0.1-6.9,0.1c-0.8,0.1-0.9,0.2-1.2,0.2c-0.3,0-1.8-0.6-1.8-0.7c0,0,0,0,0.1,0
			c0.1,0,0.1,0,0.2,0c0.7,0.1,2.1,0.2,4,0.2C342.8,346.2,344.3,346.1,346.1,346.1L346.1,346.1z"/>
	</g>
	<g>
		<path d="M378.8,342.2c0-0.3-0.6-0.4-1.2-0.6c-0.1,0-0.2-0.1-0.2-0.1c0-0.1,0.2-0.1,0.4-0.1c0.2,0,0.3,0,1.5,0.2
			c0.2,0,0.3,0.1,0.3,0.2c0,0.1-0.1,0.2-0.1,0.4v6.6c0,1.3-0.1,1.6-0.4,1.9c0,0-0.1,0-0.1,0c-0.2,0-0.2-0.5-0.2-1.1l0-3.6
			c-1.8,0.5-4.1,1-6.1,1.4c-0.7,0.1-0.6,0.3-0.8,0.3c-0.3,0-1-0.3-1.8-0.6c-0.1-0.1-0.2-0.1-0.2-0.2c0,0,0.1-0.1,0.2-0.1
			c0.1,0,0.2,0,0.3,0c0.3,0.1,0.6,0.1,1,0.1c1.9,0,5.2-0.6,7.5-1.2V342.2z"/>
	</g>
	<g>
		<path d="M404.2,345c-0.8,0-1.1,0.1-1.5,0.1c-0.8,0.1-0.8,0.2-1,0.2c-0.2,0-1.3-0.3-1.3-0.5c0,0,0,0,0.1,0c0.1,0,0.3,0,0.5,0.1
			c0.3,0,0.6,0,0.9,0c0.7,0,1.5,0,2.3-0.1v-1.4c0-0.3-0.5-0.5-1.2-0.7c-0.1,0-0.1,0-0.1-0.1c0-0.1,0.2-0.1,0.4-0.1
			c0.3,0,1.1,0.2,1.4,0.3c0.2,0.1,0.3,0.1,0.3,0.2c0,0.1,0,0.2,0,0.2v6.2c0,0.5-0.2,1-0.4,1c-0.2,0-0.3-0.4-0.3-0.6v-2.1
			c-0.3,0-0.8,0-1.5,0.1c-0.8,0.1-0.8,0.2-1,0.2c-0.2,0-1.3-0.4-1.3-0.5c0,0,0,0,0.1,0c0.1,0,0.3,0,0.5,0.1c0.3,0,0.6,0,0.9,0
			c0.7,0,1.4,0,2.3-0.1V345z M407.1,342.6c0-0.2-0.6-0.4-1.4-0.7c-0.1,0-0.1,0-0.1-0.1c0-0.1,0.2-0.1,0.4-0.1
			c0.5,0.1,1.3,0.2,1.6,0.3c0.2,0.1,0.3,0.2,0.3,0.3c0,0.1-0.1,0.2-0.1,0.3v7.6c0,0.4-0.2,1-0.4,1c-0.2,0-0.3-0.3-0.3-0.6V342.6z"/>
	</g>
	<path class="st5" d="M126,355.4H87.7c-2.6,0-4.7-2.1-4.7-4.7v-6c0-2.6,2.1-4.7,4.7-4.7H126c2.6,0,4.7,2.1,4.7,4.7v6
		C130.8,353.3,128.6,355.4,126,355.4z"/>
	<path class="st5" d="M456.8,354.3h-27.7c-2.7,0-4.8-2.2-4.8-4.8v-5.8c0-2.7,2.2-4.8,4.8-4.8h27.7c2.7,0,4.8,2.2,4.8,4.8v5.8
		C461.7,352.1,459.5,354.3,456.8,354.3z"/>
	<path class="st5" d="M114.9,332.6H94c-2.6,0-4.7-2.1-4.7-4.7v-6c0-2.6,2.1-4.7,4.7-4.7h21c2.6,0,4.7,2.1,4.7,4.7v6
		C119.7,330.5,117.6,332.6,114.9,332.6z"/>
	<path class="st5" d="M102,308.5H82.8c-2.6,0-4.7-2.1-4.7-4.7v-6c0-2.6,2.1-4.7,4.7-4.7H102c2.6,0,4.7,2.1,4.7,4.7v6
		C106.7,306.4,104.6,308.5,102,308.5z"/>
	<ellipse class="st6" cx="114.1" cy="277" rx="10.4" ry="8"/>
	<ellipse class="st6" cx="145.3" cy="277" rx="10.4" ry="8"/>
	<ellipse class="st6" cx="175.8" cy="277" rx="10.4" ry="8"/>
	<ellipse class="st6" cx="206.6" cy="277" rx="10.4" ry="8"/>
	<ellipse class="st6" cx="237.1" cy="277" rx="10.4" ry="8"/>
	<ellipse class="st6" cx="268.2" cy="277" rx="10.4" ry="8"/>
	<ellipse class="st6" cx="298.7" cy="277" rx="10.4" ry="8"/>
	<ellipse class="st6" cx="330.2" cy="277" rx="10.4" ry="8"/>
	<ellipse class="st6" cx="360.7" cy="277" rx="10.4" ry="8"/>
	<ellipse class="st6" cx="390.4" cy="277" rx="10.4" ry="8"/>
	<ellipse class="st6" cx="420.5" cy="277" rx="10.4" ry="8"/>
</g>
<path class="st2" d="M452.2,105H83.8c-7.3,0-13.7,5-15.4,12.1l-21.6,89.1c-2.4,10,5.1,19.6,15.4,19.6h411.7
	c10.3,0,17.8-9.6,15.4-19.6l-21.6-89.1C465.9,110,459.5,105,452.2,105z"/>
<polygon class="st7" points="373.2,211.2 164.6,211.2 166.4,194.7 371.4,194.7 "/>
<path class="st8" d="M451.6,148.4c0,0-59.4,22.2-184.4,22.2c-98.8,0-183.1-21.4-183.1-21.4l3.6-17.9c0.9-4.6,5.5-7.9,10.9-7.9h337.8
	c5.2,0,9.7,3.1,10.8,7.5L451.6,148.4z"/>
<path class="st0" d="M475.1,146.7c-45.5,18.8-121.2,31-207,31c-85.5,0-161.1-12.2-206.6-30.8l3.1-12.6l3.1-12.8l1.1-4.4
	c1.7-7.1,8.1-12.1,15.4-12.1H143v7.3H87c-5.7,0-10.7,4.2-11.6,9.8l-3.8,22.2l12.7,4.8c0,0,36.7,8.5,92.4,14.5
	c22.5,2.5,47.3,4.4,72.5,5.1c1.8,0.1,3.7,0.1,5.5,0.1c0.3,0,0.6,0,1,0c3.9,0.1,7.8,0.1,11.7,0.1h0.1c4.1,0,8.2,0,12.3-0.1
	c2.5,0,4.9-0.1,7.3-0.2c25.9-0.7,50.6-2.6,72.8-5c56.1-6.1,92-15.4,92-15.4l-0.4-1.5c8.5-2.1,13.1-3.5,13.1-3.5l-4.8-21.8
	c-1.2-5.4-6-9.3-11.5-9.3h-54.5V105h58.9c7.3,0,13.7,5,15.4,12.1L475.1,146.7z"/>
<path class="st9" d="M464.2,143.5c0,0-48,25.6-197.2,25.6c-139.2,0-195.8-24.7-195.8-24.7l3.8-22.2c1-5.7,5.9-9.8,11.6-9.8h361.1
	c5.5,0,10.3,3.9,11.5,9.3L464.2,143.5z"/>
<path class="st10" d="M365.9,4.4v159.9c-29.7,3.8-63.6,6.6-98.8,6.6c-33.6,0-67.2-2.9-97-6.7V4.4H365.9z"/>
</svg>
