<?xml version="1.0" encoding="utf-8"?>
<!-- Generator: Adobe Illustrator 22.0.1, SVG Export Plug-In . SVG Version: 6.00 Build 0)  -->
<svg version="1.1" xmlns="http://www.w3.org/2000/svg" xmlns:xlink="http://www.w3.org/1999/xlink" x="0px" y="0px"
	 viewBox="0 0 617.9 503.3" style="enable-background:new 0 0 617.9 503.3;" xml:space="preserve">
<style type="text/css">
	.st0{fill:#59788E;stroke:#000000;stroke-miterlimit:10;}
	.st1{fill:#FFFFFF;stroke:#000000;stroke-linecap:round;stroke-linejoin:bevel;stroke-miterlimit:10;}
	.st2{fill:#AADBF6;stroke:#000000;stroke-linecap:round;stroke-linejoin:bevel;stroke-miterlimit:10;}
	.st3{fill:none;stroke:#000000;stroke-linecap:round;stroke-linejoin:bevel;stroke-miterlimit:10;}
	.st4{fill:#FFFFFF;stroke:#000000;stroke-width:0.8375;stroke-linecap:round;stroke-linejoin:bevel;stroke-miterlimit:10;}
	.st5{fill:#FFFFFF;stroke:#000000;stroke-width:0.7217;stroke-linecap:round;stroke-linejoin:bevel;stroke-miterlimit:10;}
	.st6{fill:#CFE8F6;stroke:#000000;stroke-linecap:round;stroke-linejoin:bevel;stroke-miterlimit:10;}
	.st7{fill:#59788E;stroke:#000000;stroke-linecap:round;stroke-linejoin:bevel;stroke-miterlimit:10;}
	.st8{fill:#F9F2D7;stroke:#000000;stroke-miterlimit:10;}
	.st9{fill:#FFFFFF;stroke:#000000;stroke-miterlimit:10;}
	.st10{fill:none;stroke:#000000;stroke-miterlimit:10;}
	.st11{fill:none;stroke:#000000;stroke-linecap:round;stroke-linejoin:round;stroke-miterlimit:10;}
	.st12{fill:#448EC1;stroke:#000000;stroke-linecap:round;stroke-linejoin:round;stroke-miterlimit:10;}
	.st13{fill:#E4F1F9;stroke:#000000;stroke-miterlimit:10;}
	.st14{fill:#FFFFFF;stroke:#000000;stroke-linecap:round;stroke-linejoin:round;stroke-miterlimit:10;}
	.st15{fill:#E4F5FD;stroke:#000000;stroke-width:1.249;stroke-miterlimit:10;}
	.st16{fill:#3D3D3D;}
</style>
<g id="Layer_5">
	<path class="st0" d="M524.8,144.3c0.7,35.5-2.5,66.9-11.1,67c-8.5,0.2-21-27.6-21.7-63.2c-0.7-35.5,5.7-64.5,14.2-64.7
		C514.8,83.4,524.1,108.8,524.8,144.3z"/>
	<path class="st0" d="M94.6,145.9c-0.7,35.5,2.5,66.9,11.1,67c8.5,0.2,21-27.6,21.7-63.2c0.7-35.5-5.7-64.5-14.2-64.7
		C104.6,85,95.3,110.4,94.6,145.9z"/>
	<rect x="132" y="85.1" class="st1" width="357.2" height="14.3"/>
	<rect x="124.8" y="93.8" class="st1" width="372.8" height="20.2"/>
	<rect x="122.6" y="106.7" class="st1" width="378.3" height="37.3"/>
	<path class="st2" d="M29.9,148.7H11.2c0,0-9.3,23.3,0,36h18.7v6.2l33.3-2.4v-7.4h54.7c0,0-1,12.4,4.2,14.3
		c5.2,1.9,378.8,4.1,378.8,4.1l9-1.3l5.8-12.9l34.9,3.2l3.3-3.2l31.3,5.6h5.3l3.3-6.9h8c0,0,2-13,0-12.1c-2,0.8-8,0-8,0
		s0.7-19.2-5.3-27.9l-35.3,6.7l-3.3,2.7h-34.2l-1.9-4L117.2,150l-15.2,2.7l-32.7-4L40.5,144l-6.7-3.3L29.9,148.7z"/>
	<g>
		<line class="st3" x1="125.6" y1="174.1" x2="493.4" y2="174.1"/>
		<line class="st3" x1="126.6" y1="179.3" x2="493.4" y2="179.3"/>
		<line class="st3" x1="126.6" y1="184.5" x2="492.4" y2="184.5"/>
		<line class="st3" x1="126.6" y1="189.6" x2="492.4" y2="189.6"/>
	</g>
	<path class="st3" d="M17.9,148.7c0,0-13.8,17.9-1.8,36"/>
	<rect x="159" y="12" class="st4" width="260" height="188.9"/>
	<rect x="151" y="68" class="st5" width="274.4" height="132.9"/>
	<line class="st3" x1="29.9" y1="148.7" x2="29.9" y2="184.7"/>
	<path class="st3" d="M40.5,144c0,0-9.1,27-1.4,46.2"/>
	<path class="st3" d="M65.3,148.1c0,0-6.5,21.5-2.1,33.1"/>
	<line class="st3" x1="40.5" y1="164.6" x2="62" y2="164.6"/>
	<line class="st3" x1="40.5" y1="167.2" x2="61.7" y2="167.2"/>
	<line class="st3" x1="40.7" y1="170.1" x2="61.9" y2="170.1"/>
	<line class="st3" x1="40.9" y1="173.1" x2="62" y2="173.1"/>
	<line class="st3" x1="41.1" y1="176.1" x2="62.2" y2="176.1"/>
	<line class="st3" x1="41.3" y1="179" x2="62.4" y2="179"/>
	<line class="st3" x1="41.4" y1="182" x2="62.6" y2="182"/>
	<line class="st3" x1="41.6" y1="184.9" x2="62.8" y2="184.9"/>
	<line class="st3" x1="41.8" y1="187.9" x2="62.9" y2="187.9"/>
	<line class="st3" x1="14.5" y1="175" x2="29.9" y2="175"/>
	<line class="st3" x1="14.5" y1="177.3" x2="29.9" y2="177.3"/>
	<line class="st3" x1="14.5" y1="179.5" x2="29.9" y2="179.5"/>
	<line class="st3" x1="14.5" y1="181.8" x2="29.9" y2="181.8"/>
	<line class="st3" x1="14.5" y1="184" x2="29.9" y2="184"/>
	<path class="st3" d="M550.8,152.6c0,0,8.6,10.8,3.1,32.7"/>
	<path class="st3" d="M554.4,150.5c0,0,9.5,11.7,3.2,34.9"/>
	<path class="st3" d="M582.8,145.1c0,0,9.7,16.5,2.4,45.8"/>
	<path class="st3" d="M593.9,184c0,0,0.3-3.1,0-12.1"/>
	<path class="st3" d="M558,184c1.4-0.5,27.4,3.5,27.4,3.5"/>
	<line class="st3" x1="558.6" y1="181.2" x2="584.1" y2="184"/>
	<line class="st3" x1="559.8" y1="178" x2="584.1" y2="181.2"/>
	<line class="st3" x1="559.8" y1="175" x2="584.1" y2="178"/>
	<line class="st3" x1="559.8" y1="171.9" x2="584.1" y2="173"/>
	<path class="st3" d="M127.4,195.5c0,0-4-25.3,0-42.8h-8l-1.5,28.5"/>
	<polygon class="st6" points="127.4,138.3 127.4,152.6 500.9,152.6 500.3,138.3 	"/>
	<path class="st7" d="M189.8,136c-1.2,0-5.4,4.5-6.3,5.4c-3.2,3.2-2.9,7-2.9,11.2h19v-7.2l5.2-9.4C204.7,136,189.9,136,189.8,136z"
		/>
	<path class="st7" d="M386.7,136l4.1,9.1l-0.9,9.9c0,0,14.7,0,14.8,0c0.8,0,1.8-5.8,1.8-6.5c0.3-2.6-2.4-12.4-6.1-12.5
		C400.3,136,386.7,136,386.7,136z"/>
	<path class="st1" d="M525.9,44.5h25.8c0,0,6,4.5,1.6,10.5h-27.4V44.5z"/>
	<path class="st7" d="M79,136.9c-0.2,2-2,3.5-4,3.3l-10.8-1c-2-0.2-3.5-2-3.3-4l0,0c0.2-2,2-3.5,4-3.3l10.8,1
		C77.7,133.1,79.1,134.9,79,136.9L79,136.9z"/>
	<path class="st7" d="M553.3,46.2h4.7c0,0,3.2,0.8,1.8,3.6c-1.4,2.8-5.3,3.2-5.3,3.2"/>
	<path class="st1" d="M118.4,143.4c-0.3,3.1-3,5.4-6.1,5.2l-37.2-3c-3.1-0.3-5.4-3-5.2-6.1l0.7-8.7c0.3-3.1,3-5.4,6.1-5.2l37.2,3
		c3.1,0.3,5.4,3,5.2,6.1L118.4,143.4z"/>
	<path class="st7" d="M80.3,115.4c-0.2,2-2,3.5-4,3.3l-10.8-1c-2-0.2-3.5-2-3.3-4l0,0c0.2-2,2-3.5,4-3.3l10.8,1
		C79,111.6,80.5,113.4,80.3,115.4L80.3,115.4z"/>
	<path class="st7" d="M88,97.2c-0.2,2-2,3.5-4,3.3l-10.8-1c-2-0.2-3.5-2-3.3-4l0,0c0.2-2,2-3.5,4-3.3l10.8,1
		C86.7,93.4,88.2,95.2,88,97.2L88,97.2z"/>
	<path class="st1" d="M122.5,124.6c-0.3,3.1-3,5.4-6.1,5.2l-37.2-3c-3.1-0.3-5.4-3-5.2-6.1l0.7-8.7c0.3-3.1,3-5.4,6.1-5.2l37.2,3
		c3.1,0.3,5.4,3,5.2,6.1L122.5,124.6z"/>
	<path class="st1" d="M128.9,105.7c-0.3,3.1-3,5.4-6.1,5.2l-37.2-3c-3.1-0.3-5.4-3-5.2-6.1l0.7-8.7c0.3-3.1,3-5.4,6.1-5.2l37.2,3
		c3.1,0.3,5.4,3,5.2,6.1L128.9,105.7z"/>
	<path class="st1" d="M500.3,198.3c0,0,3.5-32.6,2.1-40.7l5-12.4h6.4c0,0,4.6,34.4,1.9,40.3c-2.6,5.8-5.8,12.9-5.8,12.9H500.3"/>
	<path class="st8" d="M525.9,83.5h12c0,0,17.8,60.2,12.9,127.8h-38.9c0,0,8-77.8-6.5-127.8h16.9"/>
	<path class="st8" d="M68.9,211.4l38,2c0,0-3.5-55.8,0-65.3l-38-2.9C68.9,145.1,62.4,193.2,68.9,211.4z"/>
	<path class="st7" d="M547.1,130.7h12.7c0,0,7.4,7.5,2.6,13.4H549"/>
	<path class="st1" d="M124.9,124c0,0-6.5-1-7,4.5c-0.5,5.5,0,19.5,0,19.5l1.5,4.6h8c0,0,5.5-2.1,4.5-4.6c-1-2.5,0-19.5,0-19.5
		S128.9,123.6,124.9,124z"/>
	<path class="st1" d="M496.4,131c0,0-4,5-2.8,13s3.8,14.5,8.8,13.5s6-4.9,6-4.9s-1.5-12.6-3-18.1S496.4,131,496.4,131z"/>
	<path class="st7" d="M96.1,153.2l-4.2-0.5c-3.6-0.4-6.9,1.9-7.3,5.3l-0.1,0.5c-0.2,0.5-0.5,1-0.7,1.6c0,0-53.6,55.2-59.3,74.4
		c-5.8,19.2-14,54.2-9.3,64c1.8,2.5,4.8,2.5,6.5-0.6c1.8-3.1,16-16.9,15-51.1c0.5-21.7,2.3-21.7,9.8-31.1c7.5-9.4,41.3-47.9,44-48.4
		c0.9-0.2,1.7-0.3,2.4-0.4l1.5,0.2c3.6,0.4,6.9-1.9,7.3-5.3l0.2-1.6C102.4,156.7,99.8,153.6,96.1,153.2z"/>
	<path class="st3" d="M492.9,152.6c0,0,3.5,22.8-1.6,40"/>
	<path class="st3" d="M302.7,179c0,0-0.6-8.6,3-8.8c3.6-0.2,3.9-0.1,7.7,0c3.8,0.1,3,8.8,3,8.8"/>
	<path class="st7" d="M545.5,89.9c0.3,2-1.1,3.9-3.1,4.2l-10.7,1.7c-2,0.3-3.9-1.1-4.2-3.1l0,0c-0.3-2,1.1-3.9,3.1-4.2l10.7-1.7
		C543.3,86.5,545.2,87.9,545.5,89.9L545.5,89.9z"/>
	<path class="st9" d="M528.4,92.4c0.3,2-0.1,3.7-0.9,3.8l-4.2,0.7c-0.8,0.1-1.7-1.4-2-3.4l0,0c-0.3-2,0.1-3.7,0.9-3.8l4.2-0.7
		C527.2,88.9,528.1,90.4,528.4,92.4L528.4,92.4z"/>
	<path class="st7" d="M525.9,46.2c0,0-7.1-4.2-7.3,13.8s1.5,18,3.6,23.5s8.4,13,6.3,17s-1.9,13.5,0,20.5s3.9,8.5,4.9,5
		s2.5-10,0-15.5s3.7-9.5,1.4-13.5s-8.9-8-8.9-13.5s0-28.5,0-28.5"/>
	<path class="st3" d="M132,85.1c0,0-7.8,1.5-12.4,6.3"/>
	<path class="st3" d="M505.4,83.5c0,0-12.6,1.5-16.2,1.5"/>
</g>
<g id="Layer_1">
	<path class="st10" d="M467.4,342.7l-6.4,24.4l3.2,81c0,0-1.5,5.7-3.2,6.3c-1.7,0.7-0.3,2,1.3,2.3c1.7,0.3,8-3,7.7-14.3
		C469.7,431.1,467.4,342.7,467.4,342.7"/>
	<line class="st10" x1="163.1" y1="439.3" x2="172.7" y2="439.3"/>
	<line class="st10" x1="177.1" y1="439.3" x2="195.9" y2="439.1"/>
	<line class="st10" x1="162.8" y1="446.4" x2="172.2" y2="446.4"/>
	<line class="st10" x1="177.1" y1="446.4" x2="197.5" y2="446.4"/>
	<line class="st10" x1="421.6" y1="439.1" x2="439" y2="439.1"/>
	<line class="st10" x1="444.6" y1="439.1" x2="462.4" y2="439.1"/>
	<line class="st10" x1="421.4" y1="444.1" x2="438.9" y2="444.1"/>
	<line class="st10" x1="444.6" y1="444.1" x2="462.4" y2="444.1"/>
	<line class="st11" x1="174.9" y1="366.6" x2="174.9" y2="369.1"/>
	<line class="st11" x1="177.1" y1="366.8" x2="177.1" y2="369.1"/>
	<line class="st11" x1="196.3" y1="366.6" x2="196.3" y2="369.1"/>
	<line class="st11" x1="199.2" y1="366.6" x2="199.2" y2="369.1"/>
	<line class="st11" x1="216.9" y1="365.8" x2="216.9" y2="369.1"/>
	<polyline class="st11" points="220.2,365.4 220.2,371.6 219.2,372.7 	"/>
	<path class="st12" d="M221.4,321.4c0.8,0,22.5,0,22.5,0s-1.7,17,0,19.8c1.7,2.7-22.5,0.6-22.5,0.6V321.4z"/>
	<path class="st12" d="M221.4,321.4c0,0,5.5-3.7,8-3.7s20.4,0,20.4,0l-5.9,3.7"/>
	<path class="st12" d="M401.7,321.1c-0.8,0-22.5,0-22.5,0s1.7,17,0,19.8c-1.7,2.7,22.5,0.6,22.5,0.6V321.1z"/>
	<path class="st12" d="M401.7,320.7c0,0-5.5-3.7-8-3.7s-20.4,0-20.4,0l5.9,3.7"/>
	<line class="st12" x1="249.7" y1="317.8" x2="249.7" y2="341.7"/>
	<polyline class="st11" points="249.7,321.4 372.7,321.4 372.7,341.2 	"/>
	<line class="st12" x1="372.7" y1="317" x2="372.7" y2="342.2"/>
	<line class="st12" x1="249.7" y1="328.1" x2="371.7" y2="328.1"/>
	<line class="st12" x1="221.4" y1="328.1" x2="242.2" y2="328.1"/>
	<line class="st12" x1="380.3" y1="328.1" x2="401.1" y2="328.1"/>
	<g>
		<path class="st8" d="M514.6,258.9c-1.8-11.1-7.6-22.1-8.5-33.5c-0.8-10.2-2.1-21-9.5-28.8c-5.9-6.2-13.2-6.4-20.7-8.6
			c-6.9-2.1-91.7-1.4-91.7-1.4l-8.3,4.1l-51.1,0.3c2,4.2,4.3,8.4,7.1,12c4.8,6.2,26.2,11.5,28,13.5s-2.8,5.8-2.8,5.8h-95
			c0,0-0.7-0.5,0-4.3c0.7-3.8,19-7.7,26-12.2c4.2-2.7,6.2-9.7,7.7-14.6h0l-57.1,0.3l-2.8-4.1c0,0-49.7,0-77.9,0
			c-5.2,0-10.5,0-15.7,0.7c-25.4,3.1-27.9,34.1-33.5,53.2c-2,6.7-5.3,12.3-6.2,19.4c-1,7.5-0.5,15.2-0.6,22.7
			c-0.1,9.8-1,19.4-1.5,29.2c-0.6,12.3-1.2,24.6-1.8,36.8c0,0,0.7,64.8,2.1,103.4c1.4,38.6,32.4,40.7,32.4,40.7s360,0.7,372.4-2.1
			c12.4-2.8,13.1-35.2,13.1-35.2s2.8-86.9,2.8-104.1C521.4,321,519.5,289.5,514.6,258.9z"/>
		<path class="st11" d="M324.8,191c-1.2-2.5-2.3-5.1-3.4-7.6c-1.8-4.2-1.5-9.5-4.3-13.2c-3.1-4.2-9.8-4.3-13.7-1.3
			c-0.5,0.4-1,0.8-1.4,1.3c-4.8,5-3.9,13.3-5.8,19.6c-0.1,0.5-0.3,0.9-0.4,1.4l28-0.1L324.8,191z"/>
	</g>
	<path class="st11" d="M262,222.3c0,0-1.3-3,11.2-6.5s22.7-7.6,22-23.1"/>
	<path class="st11" d="M357,222.3c0,0,8.2-3.7-9.2-7.8s-22.3-9.7-21.7-19.4"/>
	<polyline class="st11" points="302.5,222.3 306.2,214.8 314.9,214.8 319.4,222.3 	"/>
	<rect x="289.5" y="212.3" class="st11" width="13" height="3.2"/>
	<polyline class="st11" points="295.2,197.8 302.5,197.8 301.6,200.8 294.2,201.3 	"/>
	<polyline class="st11" points="326.2,197.8 318.2,197.8 318.2,202.4 327.2,202.4 	"/>
	<polyline class="st11" points="317.5,200.1 303.7,200.1 303.7,203.6 307,203.6 310.1,201.3 317.5,201.3 	"/>
	<rect x="307.9" y="217.4" class="st11" width="2.3" height="2.2"/>
	<rect x="312.4" y="217.4" class="st11" width="2" height="2.2"/>
	<rect x="249.7" y="321.4" class="st12" width="123" height="6.7"/>
</g>
<g id="Layer_3">
	<path class="st10" d="M156,235.6c0,0-34.5-6.9-40,26.9c-5.5,33.8-13.1,82.1-13.1,82.1l2.8,2.8l409-0.7l4.8-0.7c0,0-11-46.2-16.6-80
		c-5.5-33.8-29-29.7-29-29.7L156,235.6z"/>
</g>
<g id="Layer_2">
	<path class="st13" d="M105,350.9c0,0,33.8-9,65.5-9s195.9-0.7,195.9-0.7l98.6,1.4c0,0,48.3,2.8,51,7.6
		c2.8,4.8-6.2,104.1-17.2,107.6c-11,3.4-68.3,4.8-78.6,4.8S207,461.9,207,461.9l-5.5-2.1c0,0-55.2,0.7-64.1,0
		c-9-0.7-18.6-6.9-21.4-20.7S105,350.9,105,350.9z"/>
</g>
<g id="Layer_4">
	<path class="st11" d="M209.4,455.8l198,1c0,0,10.7-0.7,11-6s0-12.7,0-12.7l-216.7-2c0,0-1,12,1.7,15.3
		C206,454.8,209.4,455.8,209.4,455.8z"/>
	<path class="st14" d="M201.7,436.1l213.7,0.3c0,0,4.3,1.3,3,1.7c-1.3,0.3-4,2.7-9,3c-5,0.3-133.7,1.3-133.7,1.3l-65-1.7
		C210.7,440.8,206.7,440.8,201.7,436.1z"/>
	<polygon class="st10" points="286.7,448.4 286.7,452.8 331,452.4 331.7,448.1 	"/>
	<path class="st12" d="M166.4,412.5c0,0-6.4,8.6-1.6,8.9s19,0,19,0l4.8-8.9H166.4z"/>
	<path class="st11" d="M163.1,420.1c0,0-1.1,11.5,0.9,13.5s16.5,3.6,19.9-0.8v-11.5l4.8-8.9v13.8l-4.8,6.6"/>
	<path class="st12" d="M166.7,389.9c0,0-3.6,5.3-3.6,8.5h14.8l3.5-8.5H166.7z"/>
	<polyline class="st11" points="177.8,398.4 177.8,408.5 163.1,408.5 163.1,398.4 	"/>
	<polyline class="st11" points="181.3,389.9 181.3,401.9 177.8,408.5 	"/>
	<polygon class="st12" points="165.4,369.5 163.8,373.7 175.8,373.7 177.8,369.5 	"/>
	<path class="st11" d="M163.8,373.7v9c0,0,7,2,12,0v-9l2-4.3v9.9l-2,3.4"/>
	<line class="st11" x1="168.2" y1="383.6" x2="168.2" y2="389.9"/>
	<line class="st11" x1="172.7" y1="383.6" x2="172.7" y2="389.9"/>
	<line class="st11" x1="170.4" y1="408.5" x2="170.4" y2="411.9"/>
	<line class="st11" x1="173.9" y1="408.5" x2="173.9" y2="411.9"/>
	<path class="st11" d="M172.7,435.6v12.5c0,0,2.1,2.5,4.4,0v-12.5"/>
	<path class="st9" d="M195.7,411.9h16.5c0,0-1.8,8.6-5.7,9.6c-3.8,1-8.8,0-10-3.5C195.4,414.4,195.7,411.9,195.7,411.9z"/>
	<path class="st10" d="M212.2,411.9v16.3c0,0-3.4,5.2-8.3,4.8c-4.9-0.3-8.2-3-8.3-4.7c-0.1-1.7,0-16.4,0-16.4"/>
	<path class="st9" d="M220.2,411.9h15.3c0,0-0.3,7.6-3.7,8.3c-3.3,0.7-7,1-9.2-2.2C220.5,414.8,220.2,411.9,220.2,411.9z"/>
	<path class="st10" d="M235.5,411.9v17.6c0,0-3.3,3.7-7.7,3.5c-4.3-0.2-7.7-3.7-7.7-3.7v-17.4"/>
	<path class="st9" d="M243.4,411.9h15.2c0,0-0.8,5.8-3.3,7.4c-2.5,1.7-6.7,2.3-9,0C243.9,416.9,243.4,411.9,243.4,411.9z"/>
	<path class="st10" d="M258.5,411.9v15.4c0,0-3,3.8-6.3,4.5c-3.3,0.7-8.7-2-8.8-3.8c-0.2-1.8,0-16.1,0-16.1"/>
	<path class="st9" d="M266.2,411.9h16.5c0,0-1.7,6.6-4.7,7.4c-3,0.8-6,1.3-8.5-1.5C267,414.9,266.2,411.9,266.2,411.9z"/>
	<path class="st10" d="M282.7,411.9v15.6c0,0-2.5,4-7.7,4.4c-5.2,0.4-8.8-4.8-8.8-4.8v-15.3"/>
	<path class="st9" d="M289.7,411.9h16c0,0-1,8.8-5.7,8.7c-4.7-0.1-7.3-0.1-8.7-3.7S289.7,411.9,289.7,411.9z"/>
	<path class="st10" d="M305.7,411.9v16.8c0,0-3.7,3.6-8,3.3s-7.2-3.5-7.2-3.5l-0.8-16.6"/>
	<path class="st9" d="M313,411.9h15.2c0,0-2,7.6-4.5,8.1c-2.5,0.5-4.3,0.8-6.8-1.3S313,411.9,313,411.9z"/>
	<path class="st10" d="M328.2,411.9v16.3c0,0-3.3,3.5-6.7,3.8c-3.3,0.2-8.5-1.4-8.5-4.1c0-2.7-0.7-15.9-0.7-15.9"/>
	<path class="st9" d="M335.4,411.9h16c0,0-0.7,6.9-3.8,8.1c-3.2,1.2-7.8,0.8-10-3.1C335.4,412.9,335.4,411.9,335.4,411.9z"/>
	<path class="st10" d="M351.4,411.9v15.4c0,0-3.5,4.5-6.7,4.6c-3.2,0.1-8.7-1.6-9.3-5.1s0-14.9,0-14.9"/>
	<path class="st9" d="M359.8,411.9h16c0,0-1,8.8-5.7,8.7c-4.7-0.1-7.3-0.1-8.7-3.7C360.1,413.3,359.8,411.9,359.8,411.9z"/>
	<path class="st10" d="M375.8,411.9v16.8c0,0-3.7,3.6-8,3.3c-4.3-0.3-7.2-3.5-7.2-3.5l-0.8-16.6"/>
	<path class="st9" d="M383.1,411.9h15.2c0,0-2,7.6-4.5,8.1c-2.5,0.5-4.3,0.8-6.8-1.3S383.1,411.9,383.1,411.9z"/>
	<path class="st10" d="M398.3,411.9v16.3c0,0-3.3,3.5-6.7,3.8c-3.3,0.2-8.5-1.4-8.5-4.1c0-2.7-0.7-15.9-0.7-15.9"/>
	<path class="st9" d="M405.4,411.9h16c0,0-0.7,6.9-3.8,8.1c-3.2,1.2-7.8,0.8-10-3.1C405.4,412.9,405.4,411.9,405.4,411.9z"/>
	<path class="st10" d="M421.4,411.9v15.4c0,0-3.5,4.5-6.7,4.6c-3.2,0.1-8.7-1.6-9.3-5.1c-0.7-3.5,0-14.9,0-14.9"/>
	<path class="st9" d="M188.5,389.7h14.8c0,0-1.6,7.7-5.1,8.6s-7.9,0-9-3.2C188.2,392,188.5,389.7,188.5,389.7z"/>
	<path class="st10" d="M203.3,389.7v14.6c0,0-3,4.6-7.4,4.3c-4.4-0.3-7.3-2.7-7.4-4.2c-0.1-1.5,0-14.7,0-14.7"/>
	<path class="st9" d="M211.5,389.7h13.7c0,0-0.3,6.8-3.3,7.4c-3,0.6-6.3,0.9-8.2-1.9C211.8,392.3,211.5,389.7,211.5,389.7z"/>
	<path class="st9" d="M234.3,389.7h13.6c0,0-0.7,5.2-3,6.6c-2.2,1.5-6,2.1-8.1,0C234.7,394.3,234.3,389.7,234.3,389.7z"/>
	<path class="st10" d="M247.9,389.7v13.8c0,0-2.7,3.4-5.7,4c-3,0.6-7.8-1.8-7.9-3.4c-0.1-1.6,0-14.4,0-14.4"/>
	<path class="st9" d="M255.7,389.7h14.8c0,0-1.5,5.9-4.2,6.6c-2.7,0.7-5.4,1.2-7.6-1.3C256.5,392.5,255.7,389.7,255.7,389.7z"/>
	<path class="st9" d="M278.8,389.7h14.3c0,0-0.9,7.9-5.1,7.8c-4.2-0.1-6.6-0.1-7.8-3.3C279.1,391,278.8,389.7,278.8,389.7z"/>
	<path class="st10" d="M293.2,389.7v15c0,0-3.3,3.2-7.2,3c-3.9-0.3-6.4-3.1-6.4-3.1l-0.7-14.9"/>
	<path class="st9" d="M302.7,390.2h13.6c0,0-1.8,6.8-4,7.2c-2.2,0.5-3.9,0.8-6.1-1.2C303.9,394.3,302.7,390.2,302.7,390.2z"/>
	<path class="st11" d="M316.3,390.2v14.6c0,0-3,3.2-6,3.4c-3,0.2-7.6-1.3-7.6-3.7c0-2.4,0-14.3,0-14.3"/>
	<path class="st9" d="M326.1,389.7h14.3c0,0-0.6,6.2-3.4,7.2c-2.8,1.1-7,0.7-9-2.8C326.1,390.7,326.1,389.7,326.1,389.7z"/>
	<path class="st10" d="M340.4,389.7v13.8c0,0-3.1,4.1-6,4.1c-2.8,0.1-7.8-1.4-8.4-4.6c-0.6-3.1,0-13.4,0-13.4"/>
	<path class="st9" d="M349.5,389.7h14.3c0,0-0.9,7.9-5.1,7.8c-4.2-0.1-6.6-0.1-7.8-3.3C349.8,391,349.5,389.7,349.5,389.7z"/>
	<path class="st10" d="M363.9,389.7v15c0,0-3.3,3.2-7.2,3c-3.9-0.3-6.4-3.1-6.4-3.1l-0.7-14.9"/>
	<path class="st9" d="M371.7,389.7h13.6c0,0-1.8,6.8-4,7.2c-2.2,0.5-3.9,0.8-6.1-1.2C372.9,393.8,371.7,389.7,371.7,389.7z"/>
	<path class="st10" d="M385.3,389.7v14.6c0,0-3,3.2-6,3.4c-3,0.2-7.6-1.3-7.6-3.7c0-2.4-0.6-14.3-0.6-14.3"/>
	<path class="st9" d="M394.1,389.7h14.3c0,0-0.6,6.2-3.4,7.2c-2.8,1.1-7,0.7-9-2.8C394.1,390.7,394.1,389.7,394.1,389.7z"/>
	<path class="st10" d="M408.4,389.7v13.8c0,0-3.1,4.1-6,4.1c-2.8,0.1-7.8-1.4-8.4-4.6c-0.6-3.1,0-13.4,0-13.4"/>
	<path class="st9" d="M414.4,389.7h14.3c0,0-0.6,6.2-3.4,7.2c-2.8,1.1-7,0.7-9-2.8C414.4,390.7,414.4,389.7,414.4,389.7z"/>
	<path class="st10" d="M428.8,389.7v13.8c0,0-3.1,4.1-6,4.1c-2.8,0.1-7.8-1.4-8.4-4.6c-0.6-3.1,0-13.4,0-13.4"/>
	<path class="st9" d="M436.4,389.7h14.3c0,0-0.6,6.2-3.4,7.2c-2.8,1.1-7,0.7-9-2.8C436.4,390.7,436.4,389.7,436.4,389.7z"/>
	<path class="st10" d="M450.7,389.7v13.8c0,0-3.1,4.1-6,4.1c-2.8,0.1-7.8-1.4-8.4-4.6c-0.6-3.1,0-13.4,0-13.4"/>
	<path class="st9" d="M185.5,369.1h14.8c0,0-1.6,7.7-5.1,8.6c-3.4,0.9-7.9,0-9-3.2C185.2,371.4,185.5,369.1,185.5,369.1z"/>
	<path class="st10" d="M200.3,369.1v14.6c0,0-3,4.6-7.4,4.3c-4.4-0.3-7.3-2.7-7.4-4.2c-0.1-1.5,0-14.7,0-14.7"/>
	<path class="st9" d="M205.5,369.1h13.7c0,0-0.3,6.8-3.3,7.4c-3,0.6-6.3,0.9-8.2-1.9C205.8,371.7,205.5,369.1,205.5,369.1z"/>
	<path class="st10" d="M219.2,369.1v15.8c0,0-3,3.3-6.9,3.2c-3.9-0.2-6.9-3.3-6.9-3.3v-15.6"/>
	<path class="st9" d="M227.3,369.1h13.6c0,0-0.7,5.2-3,6.6c-2.2,1.5-6,2.1-8.1,0C227.7,373.7,227.3,369.1,227.3,369.1z"/>
	<path class="st9" d="M249.7,369.1h14.8c0,0-1.5,5.9-4.2,6.6c-2.7,0.7-5.4,1.2-7.6-1.3C250.5,371.9,249.7,369.1,249.7,369.1z"/>
	<path class="st10" d="M264.5,369.1v14c0,0-2.2,3.6-6.9,4c-4.6,0.4-7.9-4.3-7.9-4.3v-13.7"/>
	<path class="st9" d="M272.8,369.1h14.3c0,0-0.9,7.9-5.1,7.8c-4.2-0.1-6.6-0.1-7.8-3.3C273.1,370.4,272.8,369.1,272.8,369.1z"/>
	<path class="st10" d="M287.2,369.1v15c0,0-3.3,3.2-7.2,3c-3.9-0.3-6.4-3.1-6.4-3.1l-0.7-14.9"/>
	<path class="st9" d="M293.7,369.1h13.6c0,0-1.8,6.8-4,7.2c-2.2,0.5-3.9,0.8-6.1-1.2C294.9,373.2,293.7,369.1,293.7,369.1z"/>
	<path class="st10" d="M307.3,369.1v14.6c0,0-3,3.2-6,3.4c-3,0.2-7.6-1.3-7.6-3.7c0-2.4-0.6-14.3-0.6-14.3"/>
	<path class="st9" d="M313.8,369.1h14.3c0,0-0.6,6.2-3.4,7.2c-2.8,1.1-7,0.7-9-2.8C313.8,370.1,313.8,369.1,313.8,369.1z"/>
	<path class="st10" d="M328.1,369.1v13.8c0,0-3.1,4.1-6,4.1c-2.8,0.1-7.8-1.4-8.4-4.6c-0.6-3.1,0-13.4,0-13.4"/>
	<path class="st9" d="M332.7,369.1H347c0,0-0.9,7.9-5.1,7.8c-4.2-0.1-6.6-0.1-7.8-3.3C333,370.4,332.7,369.1,332.7,369.1z"/>
	<path class="st10" d="M347,369.1v15c0,0-3.3,3.2-7.2,3c-3.9-0.3-6.4-3.1-6.4-3.1l-0.7-14.9"/>
	<path class="st9" d="M351.6,369.1h13.6c0,0-1.8,6.8-4,7.2c-2.2,0.5-3.9,0.8-6.1-1.2C352.8,373.2,351.6,369.1,351.6,369.1z"/>
	<path class="st11" d="M365.2,369.1v14.6c0,0-3,3.2-6,3.4c-3,0.2-7.6-1.3-7.6-3.7c0-2.4-0.6-14.3-0.6-14.3"/>
	<path class="st9" d="M370.6,369.1h14.3c0,0-0.6,6.2-3.4,7.2c-2.8,1.1-7,0.7-9-2.8C370.6,370.1,370.6,369.1,370.6,369.1z"/>
	<path class="st10" d="M370.6,369.1c0,0-0.6,10.2,0,13.4c0.5,2.5,3.6,3.9,6.3,4.4c0.7,0.1,1.5,0.2,2.1,0.2c2.8-0.1,6-4.1,6-4.1
		v-13.8v-3.4"/>
	<path class="st9" d="M390.9,369.6h14.3c0,0-0.9,7.9-5.1,7.8c-4.2-0.1-6.6-0.1-7.8-3.3C391.2,370.8,390.9,369.6,390.9,369.6z"/>
	<path class="st10" d="M405.2,369.6v15c0,0-3.3,3.2-7.2,3c-3.9-0.3-6.4-3.1-6.4-3.1l-0.7-14.9"/>
	<path class="st9" d="M411.8,369.6h13.6c0,0-1.8,6.8-4,7.2c-2.2,0.5-3.9,0.8-6.1-1.2C413,373.7,411.8,369.6,411.8,369.6z"/>
	<path class="st10" d="M425.4,369.6v14.6c0,0-3,3.2-6,3.4c-3,0.2-7.6-1.3-7.6-3.7c0-2.4-0.6-14.3-0.6-14.3"/>
	<path class="st9" d="M431.8,369.6h14.3c0,0-0.6,6.2-3.4,7.2c-2.8,1.1-7,0.7-9-2.8C431.8,370.5,431.8,369.6,431.8,369.6z"/>
	<path class="st10" d="M446.2,369.6v13.8c0,0-3.1,4.1-6,4.1c-2.8,0.1-7.8-1.4-8.4-4.6c-0.6-3.1,0-13.4,0-13.4"/>
	<path class="st9" d="M168.6,347.8h14.8c0,0-1.6,7.7-5.1,8.6c-3.4,0.9-7.9,0-9-3.2C168.3,350.2,168.6,347.8,168.6,347.8z"/>
	<path class="st10" d="M183.4,347.8v14.6c0,0-3,4.6-7.4,4.3c-4.4-0.3-7.3-2.7-7.4-4.2c-0.1-1.5,0-14.7,0-14.7"/>
	<path class="st9" d="M190.6,347.8h13.7c0,0-0.3,6.8-3.3,7.4c-3,0.6-6.3,0.9-8.2-1.9C190.9,350.5,190.6,347.8,190.6,347.8z"/>
	<path class="st10" d="M204.4,347.8v15.8c0,0-3,3.3-6.9,3.2c-3.9-0.2-6.9-3.3-6.9-3.3v-15.6"/>
	<path class="st9" d="M211.4,347.8H225c0,0-0.7,5.2-3,6.6c-2.2,1.5-6,2.1-8.1,0C211.8,352.4,211.4,347.8,211.4,347.8z"/>
	<path class="st10" d="M225,347.8v13.8c0,0-2.7,3.4-5.7,4c-3,0.6-7.8-1.8-7.9-3.4c-0.1-1.6,0-14.4,0-14.4"/>
	<path class="st9" d="M231.9,347.8h14.8c0,0-1.5,5.9-4.2,6.6c-2.7,0.7-5.4,1.2-7.6-1.3C232.6,350.6,231.9,347.8,231.9,347.8z"/>
	<path class="st10" d="M246.7,347.8v14c0,0-2.2,3.6-6.9,4c-4.6,0.4-7.9-4.3-7.9-4.3v-13.7"/>
	<path class="st9" d="M252.9,347.8h14.3c0,0-0.9,7.9-5.1,7.8c-4.2-0.1-6.6-0.1-7.8-3.3C253.2,349.1,252.9,347.8,252.9,347.8z"/>
	<path class="st10" d="M267.3,347.8v15c0,0-3.3,3.2-7.2,3c-3.9-0.3-6.4-3.1-6.4-3.1l-0.7-14.9"/>
	<path class="st9" d="M273.9,347.8h13.6c0,0-1.8,6.8-4,7.2c-2.2,0.5-3.9,0.8-6.1-1.2C275,352,273.9,347.8,273.9,347.8z"/>
	<path class="st10" d="M287.4,347.8v14.6c0,0-3,3.2-6,3.4c-3,0.2-7.6-1.3-7.6-3.7c0-2.4-0.6-14.3-0.6-14.3"/>
	<path class="st9" d="M293.9,347.8h14.3c0,0-0.6,6.2-3.4,7.2c-2.8,1.1-7,0.7-9-2.8C293.9,348.8,293.9,347.8,293.9,347.8z"/>
	<path class="st10" d="M308.2,347.8v13.8c0,0-3.1,4.1-6,4.1c-2.8,0.1-7.8-1.4-8.4-4.6c-0.6-3.1,0-13.4,0-13.4"/>
	<path class="st9" d="M315.8,347.8h14.3c0,0-0.9,7.9-5.1,7.8c-4.2-0.1-6.6-0.1-7.8-3.3C316.1,349.1,315.8,347.8,315.8,347.8z"/>
	<path class="st10" d="M330.1,347.8v15c0,0-3.3,3.2-7.2,3c-3.9-0.3-6.4-3.1-6.4-3.1l-0.7-14.9"/>
	<path class="st9" d="M336.7,347.8h13.6c0,0-1.8,6.8-4,7.2c-2.2,0.5-3.9,0.8-6.1-1.2C337.9,352,336.7,347.8,336.7,347.8z"/>
	<path class="st10" d="M350.3,347.8v14.6c0,0-3,3.2-6,3.4c-3,0.2-7.6-1.3-7.6-3.7c0-2.4-0.6-14.3-0.6-14.3"/>
	<path class="st9" d="M356.7,347.8h14.3c0,0-0.6,6.2-3.4,7.2c-2.8,1.1-7,0.7-9-2.8C356.7,348.8,356.7,347.8,356.7,347.8z"/>
	<path class="st10" d="M371.1,347.8v13.8c0,0-3.1,4.1-6,4.1c-2.8,0.1-7.8-1.4-8.4-4.6c-0.6-3.1,0-13.4,0-13.4"/>
	<path class="st9" d="M375.8,347.8h14.3c0,0-0.9,7.9-5.1,7.8c-4.2-0.1-6.6-0.1-7.8-3.3C376.1,349.1,375.8,347.8,375.8,347.8z"/>
	<path class="st10" d="M390.1,347.8v15c0,0-2.3,2.2-5.3,2.8c-0.6,0.1-1.2,0.2-1.8,0.1c-3.9-0.3-6.4-3.1-6.4-3.1l-0.7-14.9"/>
	<path class="st9" d="M396.7,347.8h13.6c0,0-1.8,6.8-4,7.2c-2.2,0.5-3.9,0.8-6.1-1.2C397.9,352,396.7,347.8,396.7,347.8z"/>
	<path class="st10" d="M410.3,347.8v14.6c0,0-3,3.2-6,3.4c-3,0.2-7.6-1.3-7.6-3.7c0-2.4-0.6-14.3-0.6-14.3"/>
	<path class="st9" d="M416.7,347.8h14.3c0,0-0.6,6.2-3.4,7.2c-2.8,1.1-7,0.7-9-2.8C416.7,348.8,416.7,347.8,416.7,347.8z"/>
	<path class="st10" d="M431.1,347.8v13.8c0,0-3.1,4.1-6,4.1c-2.8,0.1-7.8-1.4-8.4-4.6c-0.6-3.1,0-13.4,0-13.4"/>
	<path class="st9" d="M439.1,347.8h14.3c0,0-0.6,6.2-3.4,7.2c-2.8,1.1-7,0.7-9-2.8C439.1,348.8,439.1,347.8,439.1,347.8z"/>
	<path class="st10" d="M453.5,347.8v13.8c0,0-3.1,4.1-6,4.1c-2.8,0.1-7.8-1.4-8.4-4.6c-0.6-3.1,0-13.4,0-13.4"/>
	<path class="st12" d="M131,366.8h16.8c0,0-1.6,10.6-4.6,12.4s-12.2,2.1-12.9-0.7C129.7,375.8,131,366.8,131,366.8z"/>
	<path class="st11" d="M147.9,366.8c0,0,0.8,1.5,0.8,4.8s-1.5,10.9-3.8,12c-2.3,1.2-9.4,0.9-10.7,0.9c-1.3,0-3.8-6-3.8-6"/>
	<path class="st12" d="M130.2,393.3h17.7c0,0-1.7,10.3-4.7,12.1c-3,1.8-13.5,1-13.7,0C129.4,404.4,126.3,404.7,130.2,393.3z"/>
	<path class="st11" d="M147.9,393.3v8.6c0,0-1,8.6-3.3,10.6c-2.3,2-10.5,2-11.8,1.5c-1.3-0.5-4.9-1.2-4.5-10.5"/>
	<path class="st12" d="M431.1,411.9h18.6c0,0,6.6,1.5,4.8,4.2c-1.9,2.8-2.3,3.6-3.8,3.6s-15.9,0.9-18-1.1S428.6,414.9,431.1,411.9z"
		/>
	<path class="st11" d="M429.9,414.9v11.8c0,0,3.5,5.1,12.4,5.3c9,0.2,11.3-4.7,11.3-4.7l1.1-12.1"/>
	<path class="st11" d="M439.6,431.7v13.5c0,0,1,0.9,2.8,1.2c1.7,0.3,2.2-1,2.2-1v-13.6"/>
	<line class="st11" x1="411.8" y1="431.5" x2="411.8" y2="436.1"/>
	<line class="st11" x1="414.8" y1="431.9" x2="414.8" y2="435.6"/>
	<line class="st11" x1="388.7" y1="431.7" x2="388.7" y2="436.1"/>
	<line class="st11" x1="391.6" y1="431.9" x2="391.6" y2="436.1"/>
	<line class="st11" x1="365.7" y1="431.5" x2="365.7" y2="436.1"/>
	<line class="st11" x1="369.7" y1="431.9" x2="369.7" y2="436.1"/>
	<line class="st11" x1="341.7" y1="431.5" x2="341.7" y2="435.6"/>
	<line class="st11" x1="345.8" y1="431.9" x2="345.8" y2="436.1"/>
	<line class="st11" x1="318.7" y1="431.7" x2="318.7" y2="435.6"/>
	<line class="st11" x1="322.6" y1="431.7" x2="322.6" y2="436.1"/>
	<line class="st11" x1="296.2" y1="431.7" x2="296.2" y2="436.3"/>
	<line class="st11" x1="300.2" y1="431.9" x2="300.2" y2="435.6"/>
	<line class="st11" x1="273.3" y1="431.9" x2="273.3" y2="436.1"/>
	<line class="st11" x1="276.4" y1="431.7" x2="276.4" y2="436.8"/>
	<line class="st11" x1="249.3" y1="431.7" x2="249.3" y2="436.6"/>
	<line class="st11" x1="253" y1="431.5" x2="253" y2="436.6"/>
	<line class="st11" x1="226" y1="432.7" x2="226" y2="436.1"/>
	<line class="st11" x1="229.7" y1="433" x2="229.7" y2="436.1"/>
	<line class="st11" x1="202.7" y1="433" x2="202.7" y2="435.6"/>
	<line class="st11" x1="205.5" y1="433" x2="205.5" y2="435.6"/>
	<path class="st12" d="M475.9,367.1h15.5c0,0,3.4,9.5,0,11c-3.4,1.4-11.1,1.6-12.6-0.7S475.9,367.1,475.9,367.1z"/>
	<path class="st11" d="M475.9,367.1c0,0-2.5,3-2.6,5s1.8,9.3,3.9,10.5s9,0.9,10.1,0.6s5-5.9,5-5.9"/>
	<path class="st12" d="M475.9,392.7h16.4c0,0,3.5,8.4,1.5,11.3s-11.1,3-13.4,0S475.9,392.7,475.9,392.7z"/>
	<path class="st11" d="M475.9,392.7l-2,6.7c0,0,2,10.1,4.1,11.3s8.1,1.9,10.8,1.1s5-7.9,5-7.9"/>
	<path class="st10" d="M160.1,453.3l34.3-0.5c0,0,3,5,18,5.7c15,0.7,204.1,0,204.1,0s5.9-3,8.9-5.7l34,0.2"/>
	<polygon class="st15" points="418,303.1 203.3,303.1 206.7,261.7 416.2,261.7 	"/>
	<path class="st10" d="M107.7,347.4c0,0,13.5-84.7,18-93.2s9.1-11,13.3-12c4.2-1,331,0,331,0s13.2,0,19.2,7.5s16,64.5,18,75
		s7.4,22.1,7.4,22.1"/>
	<line class="st10" x1="192.9" y1="388" x2="192.9" y2="389.7"/>
	<line class="st10" x1="195.7" y1="387.6" x2="195.7" y2="389.7"/>
	<path class="st10" d="M212.4,388l-1.1-0.1l0.2,1.8v15.6c0,0,3,3.1,6.9,3.3c3.9,0.2,6.9-3.2,6.9-3.2v-15.8"/>
	<line class="st10" x1="215.2" y1="387.6" x2="215.2" y2="389.7"/>
	<line class="st10" x1="237" y1="365.4" x2="237" y2="369.1"/>
	<path class="st10" d="M240.9,365.8v3.3v13.8c0,0-2.7,3.4-5.7,4c-1,0.2-2.2,0.1-3.3-0.3c-2.3-0.7-4.5-2.1-4.6-3.2
		c-0.1-1.6,0-14.4,0-14.4"/>
	<line class="st10" x1="258.7" y1="365.6" x2="258.7" y2="368.7"/>
	<line class="st10" x1="261.7" y1="365.8" x2="261.7" y2="368.7"/>
	<line class="st10" x1="279.3" y1="365.7" x2="279.3" y2="369.1"/>
	<line class="st10" x1="282.2" y1="365.7" x2="282.2" y2="368.7"/>
	<line class="st10" x1="300.2" y1="365.7" x2="300.2" y2="369.1"/>
	<line class="st10" x1="303" y1="365.7" x2="303" y2="369.1"/>
	<line class="st10" x1="322" y1="365.7" x2="322" y2="369.1"/>
	<line class="st10" x1="324.8" y1="365.7" x2="324.8" y2="369.1"/>
	<line class="st10" x1="342.2" y1="365.7" x2="342.2" y2="369.1"/>
	<line class="st10" x1="345" y1="365.7" x2="345" y2="369.1"/>
	<line class="st10" x1="362.5" y1="365.5" x2="362.5" y2="369.1"/>
	<line class="st10" x1="364.9" y1="365.8" x2="364.9" y2="369.1"/>
	<line class="st11" x1="382.3" y1="365.7" x2="382.3" y2="369.1"/>
	<line class="st10" x1="402.5" y1="365.7" x2="402.5" y2="369.6"/>
	<line class="st10" x1="404.8" y1="365.7" x2="404.8" y2="369.6"/>
	<line class="st10" x1="423.8" y1="365.7" x2="423.8" y2="369.6"/>
	<path class="st10" d="M426.7,365.4v4.7c0,0-1.4,0.5-1.4,0.4"/>
	<line class="st10" x1="445" y1="365.5" x2="445" y2="369.6"/>
	<path class="st10" d="M448.1,365.8v3.7c0,0-1.5,0.7-1.8,0.9"/>
	<line class="st10" x1="438.2" y1="387.3" x2="438.2" y2="389.6"/>
	<line class="st10" x1="440.9" y1="387.5" x2="440.9" y2="389.7"/>
	<line class="st10" x1="417.4" y1="387.4" x2="417.4" y2="389.6"/>
	<line class="st10" x1="420" y1="387.4" x2="420" y2="389.6"/>
	<line class="st10" x1="397.2" y1="387.6" x2="397.2" y2="389.7"/>
	<line class="st10" x1="400.3" y1="387.4" x2="400.3" y2="389.6"/>
	<line class="st10" x1="376.9" y1="389.6" x2="376.9" y2="386.9"/>
	<line class="st10" x1="380.3" y1="386.9" x2="380.3" y2="389.6"/>
	<line class="st10" x1="357.2" y1="387" x2="357.2" y2="389.6"/>
	<line class="st10" x1="359.8" y1="387" x2="359.8" y2="389.7"/>
	<line class="st10" x1="338.7" y1="386.9" x2="338.7" y2="389.7"/>
	<path class="st10" d="M341.6,387v4.1c0,0-0.8,0.4-0.9,0.4"/>
	<path class="st10" d="M319.7,386.8v4.1c0,0,1.3,1.1,2.8,0V387"/>
	<path class="st11" d="M299,386.9v3.8c0,0,1,1.6,2.6,0.3V387"/>
	<line class="st11" x1="279.2" y1="387.1" x2="279.2" y2="389.7"/>
	<line class="st11" x1="281.5" y1="387" x2="281.5" y2="389.7"/>
	<path class="st10" d="M255.7,386.9v2.8v13.7c0,0,3.3,4.6,7.9,4.3c4.6-0.4,6.9-4,6.9-4v-14"/>
	<line class="st10" x1="258.2" y1="387" x2="258.2" y2="389.7"/>
	<path class="st10" d="M232.3,386.8v4.5c0,0,1.3,1,1.8,0.1"/>
	<line class="st10" x1="235.8" y1="386.8" x2="235.8" y2="389.7"/>
	<path class="st10" d="M193.3,408.2v4.8c0,0,2.3,0.4,2.3,0.5"/>
	<line class="st10" x1="197.5" y1="408.6" x2="197.5" y2="411.9"/>
	<path class="st10" d="M216.9,408.2v4.3c0,0,1.8,1.8,3.3,0v-4"/>
	<path class="st10" d="M239.3,407.4v4.5c0,0,1.6,1.6,2.9,0l0-4.3"/>
	<path class="st10" d="M261.7,407.7v3.2c0,0,0.8,1.7,2.8,0v-3.2"/>
	<path class="st10" d="M285.2,407.6v4c0,0,1.7,1.3,3,0v-4.1"/>
	<path class="st10" d="M308.2,408v3.5c0,0,0.9,1.7,2.5,0v-3.4"/>
	<path class="st10" d="M331.7,407.3v4.2c0,0,1,1.5,2.5,0l0.2-3.9"/>
	<path class="st10" d="M355.4,407.5v4.1c0,0,1.6,1,3,0v-3.9"/>
	<path class="st10" d="M376.9,407.5v4.4c0,0,1.9,1.6,3.4,0v-4.2"/>
	<path class="st10" d="M399.7,407.3v3.7c0,0,2.1,1.9,3.5,0l0.3-3.3"/>
	<path class="st10" d="M420.7,407.5v3.6c0,0,1.8,1,3.2,0v-3.4"/>
	<polyline class="st10" points="440.9,407 440.9,411 443.4,411.6 445.6,411.6 445.6,407.7 	"/>
	<path class="st11" d="M466.4,342.7l-6.4,21.1l3.2,81c0,0-1.5,5.7-3.2,6.3c-1.7,0.7-0.3,2,1.3,2.3c1.7,0.3,8-3,7.7-14.3
		c-0.3-11.3-2.6-96.7-2.6-96.7"/>
	<path class="st11" d="M156.1,342.7l3.7,25.7l-3.4,76.7c0,0,0.4,3.6,3.4,5.9c2.9,2.3,0.3,2.3,0.3,2.3s-8.7-1.6-9-10.1
		C150.7,434.7,156.1,342.7,156.1,342.7z"/>
	<line class="st3" x1="216.2" y1="365.5" x2="216.2" y2="368.7"/>
	<polyline class="st3" points="220.2,365.4 220.2,369.5 219.2,370.9 	"/>
	<line class="st3" x1="195.6" y1="366.8" x2="195.6" y2="369.1"/>
	<path class="st1" d="M289.7,179.4c0,0,34.7-0.3,40.6,0c5.9,0.3,0.7,5.2,0,6.6c-0.7,1.4-6.3,3.7-6.3,3.7h-28.6l-5.7-4.5
		C289.7,185.2,283.5,179.4,289.7,179.4z"/>
	<g>
		<path d="M249.5,283.9c0-1.1,0.9-2,2-2c1.1,0,2,0.9,2,2c0,1.1-0.9,2-2,2C250.4,285.9,249.5,285,249.5,283.9z"/>
		<g>
			<rect x="250.8" y="266.1" width="1.5" height="17.9"/>
		</g>
		<path d="M275.4,295.2h-7.8c-0.4,0-0.7-0.1-0.9-0.4c-0.3-0.3-0.4-0.6-0.4-0.9c0-0.3,0.1-0.7,0.4-0.9c0.3-0.3,0.6-0.4,0.9-0.4h2.6
			v-15.3h-2.6c-0.4,0-0.7-0.1-0.9-0.4c-0.3-0.3-0.4-0.6-0.4-0.9s0.1-0.7,0.4-0.9c0.3-0.3,0.6-0.4,0.9-0.4h3.9c0.3,0,0.7,0.1,0.9,0.4
			c0.3,0.3,0.4,0.6,0.4,0.9v16.5h2.6c0.3,0,0.7,0.1,0.9,0.4c0.3,0.3,0.4,0.6,0.4,0.9c0,0.4-0.1,0.7-0.4,0.9
			C276.1,295.1,275.7,295.2,275.4,295.2z"/>
		<path d="M293.5,295.2h-7.8c-0.4,0-0.7-0.1-0.9-0.4c-0.3-0.3-0.4-0.6-0.4-0.9c0-0.3,0.1-0.7,0.4-0.9c0.3-0.3,0.6-0.4,0.9-0.4h2.6
			v-15.3h-2.6c-0.4,0-0.7-0.1-0.9-0.4c-0.3-0.3-0.4-0.6-0.4-0.9s0.1-0.7,0.4-0.9c0.3-0.3,0.6-0.4,0.9-0.4h3.9c0.3,0,0.7,0.1,0.9,0.4
			c0.3,0.3,0.4,0.6,0.4,0.9v16.5h2.6c0.3,0,0.7,0.1,0.9,0.4c0.3,0.3,0.4,0.6,0.4,0.9c0,0.4-0.1,0.7-0.4,0.9
			C294.2,295.1,293.9,295.2,293.5,295.2z"/>
		<path d="M309.1,282.8v8.6l0.8,1.3h1.1l0.8-1.3v-15.3c0-0.4,0.1-0.7,0.4-0.9c0.3-0.3,0.6-0.4,0.9-0.4c0.3,0,0.7,0.1,0.9,0.4
			c0.3,0.3,0.4,0.6,0.4,0.9v15.7c0,0.2-0.1,0.5-0.3,0.8l-1.2,2c-0.2,0.4-0.6,0.7-1.1,0.7h-2.4c-0.8,0-1.3-0.3-1.5-1
			c-0.2,0.7-0.7,1-1.4,1H304c-0.7,0-1.1-0.2-1.4-0.7l-1.1-1.9c-0.2-0.3-0.3-0.6-0.3-0.9v-15.7c0-0.4,0.1-0.7,0.4-0.9
			c0.3-0.3,0.6-0.4,0.9-0.4c0.3,0,0.6,0.1,0.9,0.4c0.3,0.3,0.4,0.6,0.4,0.9v15.3l0.8,1.2h1.1l0.8-1.3v-8.6c0-0.4,0.1-0.7,0.4-0.9
			c0.3-0.3,0.6-0.4,0.9-0.4c0.4,0,0.7,0.1,0.9,0.4C308.9,282.1,309.1,282.4,309.1,282.8z"/>
		<path d="M320.3,293.9v-12.3c0-0.4,0.1-0.7,0.4-0.9c0.3-0.3,0.6-0.4,0.9-0.4c0.4,0,0.7,0.1,0.9,0.4c0.3,0.3,0.4,0.6,0.4,0.9v1.6
			l2.1-1.8c0.9-0.7,1.7-1.1,2.6-1.1h1.9c1.1,0,2,0.4,2.7,1.1c0.8,0.8,1.1,1.7,1.1,2.7v0.7c0,0.4-0.1,0.7-0.4,0.9
			c-0.3,0.3-0.6,0.4-0.9,0.4s-0.7-0.1-0.9-0.4c-0.3-0.3-0.4-0.6-0.4-0.9v-0.7c0-0.4-0.1-0.7-0.4-0.9c-0.3-0.3-0.6-0.4-0.9-0.4h-1.7
			c-0.4,0-0.8,0.2-1.2,0.6l-3.7,3.2v7.2c0,0.4-0.1,0.7-0.4,0.9c-0.3,0.3-0.6,0.4-0.9,0.4c-0.4,0-0.7-0.1-0.9-0.4
			C320.4,294.6,320.3,294.3,320.3,293.9z"/>
		<path d="M348.9,295.2H341c-0.4,0-0.7-0.1-0.9-0.4c-0.3-0.3-0.4-0.6-0.4-0.9c0-0.3,0.1-0.7,0.4-0.9c0.3-0.3,0.6-0.4,0.9-0.4h2.6
			V283H341c-0.4,0-0.7-0.1-0.9-0.4c-0.3-0.3-0.4-0.6-0.4-0.9c0-0.4,0.1-0.7,0.4-0.9c0.3-0.3,0.6-0.4,0.9-0.4h3.9
			c0.4,0,0.7,0.1,0.9,0.4c0.3,0.3,0.4,0.6,0.4,0.9v10.9h2.6c0.4,0,0.7,0.1,0.9,0.4c0.3,0.3,0.4,0.6,0.4,0.9c0,0.4-0.1,0.7-0.4,0.9
			C349.5,295.1,349.2,295.2,348.9,295.2z M343.6,273.6h1.4c0.4,0,0.7,0.1,0.9,0.4c0.3,0.3,0.4,0.6,0.4,0.9v1.1
			c0,0.4-0.1,0.7-0.4,0.9c-0.3,0.3-0.6,0.4-0.9,0.4h-1.4c-0.4,0-0.7-0.1-0.9-0.4c-0.3-0.3-0.4-0.6-0.4-0.9l0-1.1
			c0-0.4,0.1-0.7,0.4-0.9C342.9,273.8,343.2,273.6,343.6,273.6z"/>
		<path d="M365.7,295.2h-2.6c-1.1,0-2-0.4-2.8-1.1c-0.8-0.8-1.2-1.7-1.2-2.7V283h-1.3c-0.4,0-0.7-0.1-0.9-0.4
			c-0.3-0.2-0.4-0.6-0.4-0.9c0-0.4,0.1-0.7,0.4-0.9c0.3-0.3,0.6-0.4,0.9-0.4h1.4v-3.2c0-0.4,0.1-0.7,0.4-0.9
			c0.3-0.3,0.6-0.4,0.9-0.4c0.3,0,0.6,0.1,0.9,0.4c0.3,0.3,0.4,0.6,0.4,0.9v3.2h5.2c0.3,0,0.7,0.1,0.9,0.4c0.3,0.3,0.4,0.6,0.4,0.9
			c0,0.4-0.1,0.7-0.4,0.9c-0.3,0.3-0.6,0.4-0.9,0.4h-5.2v8.4c0,0.3,0.1,0.7,0.4,0.9c0.3,0.3,0.6,0.4,0.9,0.4h2.5
			c0.7,0,1.1-0.4,1.4-1.1c0.2-0.7,0.7-1.1,1.3-1.1c0.4,0,0.7,0.1,0.9,0.4c0.2,0.3,0.4,0.6,0.4,0.9c0,0.8-0.4,1.6-1.1,2.3
			C367.7,294.8,366.8,295.2,365.7,295.2z"/>
		<path d="M387.7,285.2v3.1c0,0.3-0.1,0.7-0.4,0.9c-0.3,0.3-0.6,0.4-0.9,0.4h-9.1v0.8c0,0.4,0.2,0.8,0.6,1.1l0.8,0.6
			c0.4,0.3,0.8,0.5,1.2,0.5h6.6c0.3,0,0.7,0.1,0.9,0.4c0.3,0.3,0.4,0.6,0.4,0.9c0,0.3-0.1,0.7-0.4,0.9c-0.3,0.3-0.6,0.4-0.9,0.4
			h-6.8c-0.5,0-0.9-0.1-1.4-0.3c-0.5-0.2-0.9-0.4-1.1-0.6l-1.2-1c-0.4-0.3-0.7-0.7-0.9-1.2c-0.2-0.5-0.4-1-0.4-1.4v-5.9
			c0-0.3,0.1-0.8,0.4-1.4c0.3-0.6,0.6-1,1-1.3l1.1-0.8c0.7-0.6,1.5-0.9,2.4-0.9h3.6c0.9,0,1.8,0.4,2.6,1.1l1,0.9
			C387.4,283.1,387.7,284,387.7,285.2z M377.3,285v2h7.8v-1.8c0-0.5-0.1-0.9-0.4-1.1l-0.8-0.7c-0.4-0.3-0.7-0.5-1-0.5h-3.2
			c-0.4,0-0.8,0.1-1.1,0.4l-0.8,0.6C377.5,284.3,377.3,284.6,377.3,285z"/>
		<polygon points="243.3,295.5 240.2,295.5 250,265.8 253.1,265.8 		"/>
		<polygon points="259.8,295.5 262.9,295.5 253.1,265.8 250,265.8 		"/>
	</g>
	<polygon class="st16" points="207.2,261.7 207.2,299.7 415,299.7 415.7,262 417.7,303 203.8,303 	"/>
</g>
</svg>
