<?xml version="1.0" encoding="utf-8"?>
<!-- Generator: Adobe Illustrator 22.0.1, SVG Export Plug-In . SVG Version: 6.00 Build 0)  -->
<svg version="1.1" id="Layer_1" xmlns="http://www.w3.org/2000/svg" xmlns:xlink="http://www.w3.org/1999/xlink" x="0px" y="0px"
	 viewBox="0 0 500 360" style="enable-background:new 0 0 500 360;" xml:space="preserve">
<style type="text/css">
	.st0{fill:#FFFFFF;stroke:#262626;stroke-width:1.4039;stroke-miterlimit:10;}
	.st1{fill:#666666;}
	.st2{fill:#1AA1A1;}
	.st3{fill:#424242;}
	.st4{fill:none;stroke:#262626;stroke-width:1.4039;stroke-miterlimit:10;}
	.st5{fill:none;stroke:#262626;stroke-width:5.6156;stroke-miterlimit:10;}
	.st6{fill:#262626;}
	.st7{fill:none;stroke:#FFFFFF;stroke-width:1.4039;stroke-miterlimit:10;}
</style>
<g>
	<path class="st0" d="M496,351.2c0,0-164,4.7-215.7,4.7c-9.4,0-31.4-1.9-31.4-1.9V7.2c0,0,23.6-2.8,31.8-2.8
		C333.6,4.4,496,7.2,496,7.2V351.2z"/>
	<path class="st0" d="M247.5,354c0,0-4.3,2.3-15.4,2.3c-50,0-228.8-5.1-228.8-5.1V7.2c0,0,169.2-3.7,224.2-3.7
		c6.1,0,20.1,3.7,20.1,3.7V354z"/>
	<rect x="267.2" y="168" class="st1" width="98.3" height="157.9"/>
	<polygon class="st2" points="494.6,142 249.6,142 249.6,7.2 282.3,4.8 494.6,7.2 	"/>
	<path class="st3" d="M248.9,142H3.2V6.5c0,0,169-2.5,226-2.5c4.4,0,19.7,2.5,19.7,2.5V142z"/>
	<rect x="22.9" y="157.4" class="st4" width="95.5" height="11.2"/>
	<rect x="22.9" y="309.1" class="st4" width="95.5" height="21.1"/>
	<g>
		<g>
			<line class="st4" x1="24.3" y1="222.7" x2="118.3" y2="222.7"/>
		</g>
		<g>
			<line class="st4" x1="24.3" y1="218.5" x2="118.3" y2="218.5"/>
		</g>
		<g>
			<line class="st4" x1="24.3" y1="214.3" x2="118.3" y2="214.3"/>
		</g>
		<g>
			<line class="st4" x1="24.3" y1="210.1" x2="118.3" y2="210.1"/>
		</g>
		<g>
			<line class="st4" x1="24.3" y1="205.9" x2="118.3" y2="205.9"/>
		</g>
		<g>
			<line class="st4" x1="24.3" y1="201.7" x2="118.3" y2="201.7"/>
		</g>
		<g>
			<line class="st4" x1="24.3" y1="197.5" x2="118.3" y2="197.5"/>
		</g>
		<g>
			<line class="st4" x1="24.3" y1="193.2" x2="118.3" y2="193.2"/>
		</g>
		<g>
			<line class="st4" x1="24.3" y1="189" x2="118.3" y2="189"/>
		</g>
		<g>
			<line class="st4" x1="24.3" y1="184.8" x2="118.3" y2="184.8"/>
		</g>
		<g>
			<line class="st4" x1="24.3" y1="180.6" x2="118.3" y2="180.6"/>
		</g>
	</g>
	<g>
		<g>
			<line class="st4" x1="24.3" y1="253.6" x2="118.3" y2="253.6"/>
		</g>
		<g>
			<line class="st4" x1="24.3" y1="249.4" x2="118.3" y2="249.4"/>
		</g>
		<g>
			<line class="st4" x1="24.3" y1="245.2" x2="118.3" y2="245.2"/>
		</g>
		<g>
			<line class="st4" x1="24.3" y1="241" x2="118.3" y2="241"/>
		</g>
		<g>
			<line class="st4" x1="24.3" y1="236.8" x2="118.3" y2="236.8"/>
		</g>
	</g>
	<g>
		<g>
			<line class="st4" x1="24.3" y1="276.8" x2="118.3" y2="276.8"/>
		</g>
		<g>
			<line class="st4" x1="24.3" y1="272.6" x2="118.3" y2="272.6"/>
		</g>
		<g>
			<line class="st4" x1="24.3" y1="268.3" x2="118.3" y2="268.3"/>
		</g>
		<g>
			<line class="st4" x1="24.3" y1="264.1" x2="118.3" y2="264.1"/>
		</g>
	</g>
	<g>
		<g>
			<line class="st4" x1="24.3" y1="298.5" x2="118.3" y2="298.5"/>
		</g>
		<g>
			<line class="st4" x1="24.3" y1="294.3" x2="118.3" y2="294.3"/>
		</g>
		<g>
			<line class="st4" x1="24.3" y1="290.1" x2="118.3" y2="290.1"/>
		</g>
		<g>
			<line class="st4" x1="24.3" y1="285.9" x2="118.3" y2="285.9"/>
		</g>
	</g>
	<g>
		<g>
			<line class="st4" x1="129.6" y1="325.2" x2="223.6" y2="325.2"/>
		</g>
		<g>
			<line class="st4" x1="129.6" y1="321" x2="223.6" y2="321"/>
		</g>
		<g>
			<line class="st4" x1="129.6" y1="316.8" x2="223.6" y2="316.8"/>
		</g>
		<g>
			<line class="st4" x1="129.6" y1="312.6" x2="223.6" y2="312.6"/>
		</g>
		<g>
			<line class="st4" x1="129.6" y1="308.4" x2="223.6" y2="308.4"/>
		</g>
		<g>
			<line class="st4" x1="129.6" y1="304.1" x2="223.6" y2="304.1"/>
		</g>
		<g>
			<line class="st4" x1="129.6" y1="299.9" x2="223.6" y2="299.9"/>
		</g>
		<g>
			<line class="st4" x1="129.6" y1="295.7" x2="223.6" y2="295.7"/>
		</g>
		<g>
			<line class="st4" x1="129.6" y1="291.5" x2="223.6" y2="291.5"/>
		</g>
		<g>
			<line class="st4" x1="129.6" y1="287.3" x2="223.6" y2="287.3"/>
		</g>
		<g>
			<line class="st4" x1="129.6" y1="283.1" x2="223.6" y2="283.1"/>
		</g>
		<g>
			<line class="st4" x1="129.6" y1="278.9" x2="223.6" y2="278.9"/>
		</g>
		<g>
			<line class="st4" x1="129.6" y1="274.7" x2="223.6" y2="274.7"/>
		</g>
		<g>
			<line class="st4" x1="129.6" y1="270.5" x2="223.6" y2="270.5"/>
		</g>
	</g>
	<g>
		<g>
			<line class="st4" x1="385.1" y1="319.6" x2="470.7" y2="319.6"/>
		</g>
		<g>
			<line class="st4" x1="385.1" y1="314" x2="470.7" y2="314"/>
		</g>
		<g>
			<line class="st4" x1="385.1" y1="308.4" x2="470.7" y2="308.4"/>
		</g>
		<g>
			<line class="st4" x1="385.1" y1="302.7" x2="470.7" y2="302.7"/>
		</g>
		<g>
			<line class="st4" x1="385.1" y1="297.1" x2="470.7" y2="297.1"/>
		</g>
		<g>
			<line class="st4" x1="385.1" y1="291.5" x2="470.7" y2="291.5"/>
		</g>
		<g>
			<line class="st4" x1="385.1" y1="285.9" x2="470.7" y2="285.9"/>
		</g>
		<g>
			<line class="st4" x1="385.1" y1="280.3" x2="470.7" y2="280.3"/>
		</g>
		<g>
			<line class="st4" x1="385.1" y1="274.7" x2="470.7" y2="274.7"/>
		</g>
		<g>
			<line class="st4" x1="385.1" y1="269.1" x2="470.7" y2="269.1"/>
		</g>
		<g>
			<line class="st4" x1="385.1" y1="263.4" x2="470.7" y2="263.4"/>
		</g>
		<g>
			<line class="st4" x1="385.1" y1="257.8" x2="470.7" y2="257.8"/>
		</g>
		<g>
			<line class="st4" x1="385.1" y1="252.2" x2="470.7" y2="252.2"/>
		</g>
		<g>
			<line class="st4" x1="385.1" y1="246.6" x2="470.7" y2="246.6"/>
		</g>
		<g>
			<line class="st4" x1="385.1" y1="241" x2="470.7" y2="241"/>
		</g>
		<g>
			<line class="st4" x1="385.1" y1="235.4" x2="470.7" y2="235.4"/>
		</g>
		<g>
			<line class="st4" x1="385.1" y1="229.7" x2="470.7" y2="229.7"/>
		</g>
		<g>
			<line class="st4" x1="385.1" y1="224.1" x2="470.7" y2="224.1"/>
		</g>
		<g>
			<line class="st4" x1="385.1" y1="218.5" x2="470.7" y2="218.5"/>
		</g>
		<g>
			<line class="st4" x1="385.1" y1="212.9" x2="470.7" y2="212.9"/>
		</g>
		<g>
			<line class="st4" x1="385.1" y1="207.3" x2="470.7" y2="207.3"/>
		</g>
		<g>
			<line class="st4" x1="385.1" y1="201.7" x2="470.7" y2="201.7"/>
		</g>
		<g>
			<line class="st4" x1="385.1" y1="196" x2="470.7" y2="196"/>
		</g>
		<g>
			<line class="st4" x1="385.1" y1="190.4" x2="470.7" y2="190.4"/>
		</g>
		<g>
			<line class="st4" x1="385.1" y1="184.8" x2="470.7" y2="184.8"/>
		</g>
	</g>
	<g>
		<g>
			<line class="st4" x1="271.4" y1="63.6" x2="357" y2="63.6"/>
		</g>
		<g>
			<line class="st4" x1="271.4" y1="58" x2="357" y2="58"/>
		</g>
		<g>
			<line class="st4" x1="271.4" y1="52.4" x2="357" y2="52.4"/>
		</g>
		<g>
			<line class="st4" x1="271.4" y1="46.8" x2="357" y2="46.8"/>
		</g>
		<g>
			<line class="st4" x1="271.4" y1="41.2" x2="357" y2="41.2"/>
		</g>
	</g>
	<line class="st5" x1="374.6" y1="170.1" x2="410.4" y2="170.1"/>
	<g>
		<g>
			<circle class="st6" cx="378.5" cy="314.2" r="1.9"/>
		</g>
		<g>
			<circle class="st6" cx="378.5" cy="302.5" r="1.9"/>
		</g>
		<g>
			<circle class="st6" cx="378.5" cy="290.9" r="1.9"/>
		</g>
		<g>
			<circle class="st6" cx="378.5" cy="279.2" r="1.9"/>
		</g>
		<g>
			<circle class="st6" cx="378.5" cy="267.6" r="1.9"/>
		</g>
		<g>
			<circle class="st6" cx="378.5" cy="255.9" r="1.9"/>
		</g>
		<g>
			<circle class="st6" cx="378.5" cy="244.2" r="1.9"/>
		</g>
		<g>
			<circle class="st6" cx="378.5" cy="232.6" r="1.9"/>
		</g>
		<g>
			<circle class="st6" cx="378.5" cy="220.9" r="1.9"/>
		</g>
		<g>
			<circle class="st6" cx="378.5" cy="209.3" r="1.9"/>
		</g>
		<g>
			<circle class="st6" cx="378.5" cy="197.6" r="1.9"/>
		</g>
		<g>
			<circle class="st6" cx="378.5" cy="186" r="1.9"/>
		</g>
	</g>
	<rect x="23.4" y="29.7" class="st7" width="210.6" height="88.9"/>
	<rect x="129.6" y="100.6" class="st2" width="95.5" height="158.6"/>
	<rect x="398.7" y="34.4" class="st3" width="95.5" height="82.4"/>
	<polyline class="st7" points="496,105.5 410.8,105.5 410.8,45.6 496,45.6 	"/>
</g>
</svg>
