<?xml version="1.0" encoding="utf-8"?>
<!-- Generator: Adobe Illustrator 22.0.1, SVG Export Plug-In . SVG Version: 6.00 Build 0)  -->
<svg version="1.1" id="Layer_1" xmlns="http://www.w3.org/2000/svg" xmlns:xlink="http://www.w3.org/1999/xlink" x="0px" y="0px"
	 viewBox="0 0 446.3 500" style="enable-background:new 0 0 446.3 500;" xml:space="preserve">
<style type="text/css">
	.st0{fill:#FFFFFF;}
	.st1{fill:#050505;}
</style>
<g>
	<path class="st0" d="M35.4,302.4c125.5,0,250.1,0,375.1,0c0-76.7,0-153,0-230.6c-7.6,0-15.3,0-23.3,0c0-11,0-20.8,0-32.1
		c11.4,0.6,22.7,0.1,33.6,2c12.5,2.2,20.8,14.2,21,27.6c0.2,13.8,0.1,27.5,0.1,41.3c0,70.6,0,141.2,0,211.8
		c0,23.2-10.9,34.1-34.3,34.1c-122.8,0-245.7,0-368.5,0C14.9,356.5,4,345.8,4,321.7c0-82.6,0-165.2,0-247.8
		c0-22.5,11.4-33.8,33.9-33.8c6.8,0,13.6,0,20.8,0c0,10.8,0,20.6,0,31.2c-7.8,0-15.3,0-23.3,0C35.4,148.8,35.4,225.3,35.4,302.4z
		 M197.8,328.4c0-1.1,0.1-2.2,0.1-3.4c-3.1-2.2-6-5.9-9.4-6.4c-4.9-0.8-8.7,3.3-7.8,8c0.6,3.1,4.7,7.4,7.5,7.6
		C191.2,334.3,194.5,330.5,197.8,328.4z M267,327.9c0-1.2-0.1-2.4-0.1-3.5c-3.3-2-6.7-5.8-9.7-5.5c-2.8,0.2-6.9,4.6-7.4,7.6
		c-0.8,4.6,2.9,8.7,7.9,7.9C261,333.7,263.9,330.1,267,327.9z M232.2,328.1c0-1.2,0-2.3,0-3.5c-3.2-2.1-6.2-5.6-9.6-6
		c-4.8-0.6-8.5,3.5-7.4,8.2c0.8,3.1,4.9,7.3,7.6,7.3C225.9,334.3,229.1,330.3,232.2,328.1z"/>
	<path class="st0" d="M219.5,188.7c-8.3-0.8-16.1-2-23.8-2.1c-36.4-0.2-72.8-0.1-109.9-0.1c0-61.2,0-122.1,0-183.4
		c1.9-0.1,3.6-0.3,5.3-0.3c37.4,0,74.9-0.1,112.3,0c11,0,16.2,4.9,16.2,15.7c0.1,56.3,0,112.6,0,168.8
		C219.7,188,219.5,188.8,219.5,188.7z M152.2,35.1c11.7,0,23.4,0.2,35.1-0.2c2.2-0.1,4.4-2.3,6.5-3.5c-2-1.1-4-3.3-6-3.3
		c-23.7-0.2-47.3-0.2-71,0.1c-1.9,0-3.8,2.3-5.7,3.5c1.9,1.1,3.9,3.2,5.8,3.3C128.7,35.2,140.5,35.1,152.2,35.1z M153.2,122.6
		c-12,0-23.9-0.1-35.9,0.1c-2,0-4.1,2-6.1,3c2.1,1.3,4.1,3.7,6.2,3.7c23.4,0.3,46.8,0.2,70.3,0c2,0,4.1-2,6.1-3
		c-2.1-1.3-4.1-3.6-6.2-3.7C176.1,122.4,164.6,122.6,153.2,122.6z M152.3,98c11.7,0,23.4,0.2,35-0.2c2.2-0.1,4.3-2.2,6.4-3.4
		c-2-1-4-2.9-6-2.9c-23.4-0.2-46.7-0.2-70.1,0c-2.1,0-4.2,2.1-6.4,3.3c2.2,1.1,4.5,2.9,6.7,3C129.4,98.1,140.9,97.9,152.3,98z
		 M151.8,66.4c11.9,0,23.9,0.1,35.8-0.1c2.1,0,4.1-1.9,6.1-3c-1.9-1.2-3.7-3.4-5.6-3.5c-23.9-0.2-47.8-0.2-71.7,0
		c-1.7,0-3.5,2-5.2,3c1.8,1.2,3.6,3.3,5.5,3.4C128.5,66.5,140.1,66.4,151.8,66.4z M152.2,160.9C152.2,160.9,152.2,160.9,152.2,160.9
		c11.9,0,23.9,0.2,35.8-0.1c1.9-0.1,3.8-2.1,5.7-3.3c-2-1.1-4-3-5.9-3.1c-23.6-0.2-47.3-0.2-70.9,0c-1.9,0-3.8,2.1-5.7,3.2
		c2,1.1,3.9,3,5.9,3.1C128.8,161,140.5,160.9,152.2,160.9z"/>
	<path class="st0" d="M360.1,186.6c-37,0-73.2-0.1-109.3,0.1c-8,0-15.9,1.3-24.6,2c0-1.2,0-3.6,0-6c0-53.8,0-107.6,0-161.4
		c0-14.2,4.2-18.5,18-18.5c35.9,0,71.9,0,107.8,0c2.5,0,5,0,8.1,0C360.1,64.1,360.1,124.9,360.1,186.6z M293.3,28
		c-11.2,0-22.4-0.2-33.6,0.2c-2.5,0.1-5,2.1-7.5,3.2c2.4,1.2,4.8,3.5,7.2,3.6c22.9,0.3,45.9,0.2,68.8,0c2.2,0,4.4-2.1,6.6-3.2
		c-2.3-1.2-4.7-3.4-7-3.5C316.3,27.8,304.8,28,293.3,28z M293.8,122.6c-11.7,0-23.4-0.2-35.1,0.2c-2.2,0.1-4.4,2.2-6.5,3.4
		c2.2,1.2,4.5,3.3,6.7,3.3c23.2,0.2,46.3,0.2,69.5,0c2.2,0,4.3-2.2,6.5-3.4c-2.2-1.2-4.4-3.2-6.6-3.3
		C316.7,122.4,305.3,122.6,293.8,122.6z M293.3,66.4c11.7,0,23.4,0.2,35.1-0.2c2.1-0.1,4.2-2.2,6.3-3.4c-2-1.1-4-3-6-3
		c-23.4-0.2-46.7-0.2-70.1,0c-2.1,0-4.3,2.2-6.4,3.4c2.3,1.1,4.5,3,6.8,3C270.5,66.6,281.9,66.4,293.3,66.4z M293.3,91.3
		c-11.4,0-22.9-0.2-34.3,0.1c-2.3,0.1-4.5,1.9-6.8,2.9c2.1,1.2,4.3,3.3,6.4,3.4c23.4,0.3,46.7,0.2,70.1,0c2,0,4-1.9,5.9-3
		c-2.1-1.2-4.2-3.3-6.3-3.3C316.7,91.2,305,91.4,293.3,91.3z M293.3,154.3c-11.7,0-23.4-0.1-35,0.1c-2,0-4,1.9-6,2.9
		c1.9,1.2,3.7,3.4,5.6,3.4c23.9,0.2,47.7,0.2,71.6,0c1.7,0,3.5-1.9,5.2-2.9c-1.8-1.2-3.7-3.3-5.5-3.4
		C317.2,154.1,305.3,154.3,293.3,154.3z"/>
	<path class="st0" d="M66.2,206c0-61.8,0-122.4,0-183.5c4,0,7.7,0,12.4,0c0,3.2,0,6.2,0,9.1c0,50.5,0,100.9,0,151.4
		c0,10.2,0,10.2,10,10.2c37.7,0,75.5,0,113.2,0c11.3,0,14.3,2.2,18,12.6c0.6,1.5,2.4,2.6,3.6,3.9c1-1.3,2.4-2.4,2.9-3.8
		c3.8-10.5,6.6-12.7,17.8-12.7c37.5,0,74.9,0,112.4-0.1c11,0,11.1-0.1,11.1-10.8c0-50.5,0-100.9,0.1-151.4c0-2.7,0-5.4,0-8.6
		c4.4,0,7.8,0,11.9,0c0,61,0,121.7,0,183.7c-3,0-6,0-8.9,0c-41,0-82.1,0.1-123.1-0.1c-7.1,0-12.6,0.9-16.2,8.4
		c-3.3,6.9-13.4,6.8-16.8-0.1c-3.4-7.1-8.6-8.3-15.5-8.3c-40.8,0.1-81.6,0.1-122.4,0C73.5,206,70.2,206,66.2,206z"/>
	<path class="st0" d="M271.1,363.4c0.3,4.6,0.5,8.1,0.7,12.2c3.1,0.7,6.3,1.3,9.4,2c13.6,3.5,22.7,11.9,27.9,24.9
		c1.9,4.7,0.1,6.7-4.6,6.9c-1.8,0.1-3.6,0-5.3,0c-51.2,0-102.4,0-153.6,0c-10.3,0-11.4-1.8-6.7-11c7.2-14.3,19.5-20.8,34.7-22.4
		c0.4-0.8,0.8-1.2,0.8-1.6c0.7-11,0.7-11,12-11c25.5,0,50.9,0,76.4,0C265.2,363.4,267.7,363.4,271.1,363.4z"/>
	<path d="M152.2,35.1c-11.7,0-23.4,0.2-35.1-0.2c-2-0.1-3.9-2.1-5.8-3.3c1.9-1.2,3.8-3.4,5.7-3.5c23.7-0.3,47.3-0.3,71-0.1
		c2,0,4,2.1,6,3.3c-2.2,1.2-4.3,3.4-6.5,3.5C175.6,35.3,163.9,35.1,152.2,35.1z"/>
	<path d="M153.2,122.6c11.5,0,22.9-0.2,34.4,0.2c2.1,0.1,4.1,2.4,6.2,3.7c-2,1.1-4.1,3-6.1,3c-23.4,0.2-46.8,0.2-70.3,0
		c-2.1,0-4.1-2.4-6.2-3.7c2-1.1,4-3,6.1-3C129.3,122.4,141.2,122.6,153.2,122.6z"/>
	<path d="M152.3,97.9c-11.4,0-22.9,0.2-34.3-0.1c-2.3-0.1-4.5-2-6.7-3c2.1-1.1,4.2-3.3,6.4-3.3c23.4-0.2,46.7-0.2,70.1,0
		c2,0,4,1.9,6,2.9c-2.1,1.2-4.2,3.3-6.4,3.4C175.7,98.1,164,98,152.3,97.9z"/>
	<path d="M151.8,66.4c-11.7,0-23.4,0.2-35.1-0.2c-1.9,0-3.7-2.2-5.5-3.4c1.7-1.1,3.5-3,5.2-3c23.9-0.2,47.8-0.2,71.7,0
		c1.9,0,3.7,2.3,5.6,3.5c-2,1-4,2.9-6.1,3C175.7,66.5,163.8,66.4,151.8,66.4z"/>
	<path class="st1" d="M152.2,160.9c-11.7,0-23.4,0.1-35.1-0.1c-2,0-3.9-2-5.9-3.1c1.9-1.1,3.8-3.2,5.7-3.2c23.6-0.2,47.3-0.2,70.9,0
		c2,0,4,2,5.9,3.1c-1.9,1.1-3.8,3.2-5.7,3.3C176.1,161.1,164.1,160.9,152.2,160.9C152.2,160.9,152.2,160.9,152.2,160.9z"/>
	<path d="M293.3,28c11.5,0,22.9-0.2,34.4,0.2c2.4,0.1,4.7,2.3,7,3.5c-2.2,1.1-4.4,3.2-6.6,3.2c-22.9,0.2-45.9,0.3-68.8,0
		c-2.4,0-4.8-2.3-7.2-3.6c2.5-1.1,5-3.1,7.5-3.2C270.9,27.8,282.1,28,293.3,28z"/>
	<path d="M293.8,122.6c11.5,0,22.9-0.2,34.4,0.2c2.2,0.1,4.4,2.2,6.6,3.3c-2.2,1.2-4.3,3.4-6.5,3.4c-23.2,0.3-46.3,0.3-69.5,0
		c-2.2,0-4.5-2.2-6.7-3.3c2.2-1.2,4.3-3.3,6.5-3.4C270.4,122.4,282.1,122.6,293.8,122.6z"/>
	<path d="M293.3,66.4c-11.4,0-22.9,0.2-34.3-0.1c-2.3-0.1-4.5-2-6.8-3c2.1-1.2,4.2-3.4,6.4-3.4c23.4-0.2,46.7-0.2,70.1,0
		c2,0,4,2,6,3c-2.1,1.2-4.2,3.4-6.3,3.4C316.7,66.6,305,66.4,293.3,66.4z"/>
	<path d="M293.3,91.3c11.7,0,23.4-0.2,35,0.2c2.1,0.1,4.2,2.2,6.3,3.3c-2,1-4,3-5.9,3c-23.4,0.2-46.7,0.2-70.1,0
		c-2.2,0-4.3-2.2-6.4-3.4c2.3-1,4.5-2.9,6.8-2.9C270.5,91.2,281.9,91.3,293.3,91.3z"/>
	<path d="M293.3,154.3c11.9,0,23.9-0.2,35.8,0.2c1.9,0,3.7,2.2,5.5,3.4c-1.7,1-3.5,2.9-5.2,2.9c-23.9,0.2-47.7,0.2-71.6,0
		c-1.9,0-3.7-2.2-5.6-3.4c2-1,4-2.9,6-2.9C270,154.2,281.6,154.3,293.3,154.3z"/>
	<circle class="st0" cx="187.4" cy="328.5" r="10.3"/>
	<circle class="st0" cx="222.6" cy="328.5" r="10.3"/>
	<circle class="st0" cx="257" cy="328.5" r="10.3"/>
</g>
<g>
	<path class="st0" d="M147.8,462.7h-15.8v14.7h17.6v4.4h-22.9v-40.7h22v4.4h-16.7v12.9h15.8V462.7z"/>
	<path class="st0" d="M168.5,463.5v3.9h-14.9v-3.9H168.5z"/>
	<path class="st0" d="M174.9,441.6c2.3-0.5,5.9-0.8,9.6-0.8c5.3,0,8.6,0.9,11.2,3c2.1,1.6,3.4,4,3.4,7.2c0,3.9-2.6,7.4-6.9,8.9v0.1
		c3.9,1,8.4,4.2,8.4,10.2c0,3.5-1.4,6.2-3.4,8.2c-2.8,2.6-7.4,3.8-14.1,3.8c-3.6,0-6.4-0.2-8.2-0.5V441.6z M180.2,458.3h4.8
		c5.6,0,8.8-2.9,8.8-6.8c0-4.8-3.6-6.6-8.9-6.6c-2.4,0-3.8,0.2-4.7,0.4V458.3z M180.2,477.8c1,0.2,2.5,0.2,4.4,0.2
		c5.4,0,10.4-2,10.4-7.9c0-5.6-4.8-7.9-10.5-7.9h-4.3V477.8z"/>
	<path class="st0" d="M242.4,461c0,14-8.5,21.4-18.9,21.4c-10.8,0-18.3-8.3-18.3-20.7c0-12.9,8-21.4,18.9-21.4
		C235.3,440.4,242.4,448.9,242.4,461z M210.9,461.7c0,8.7,4.7,16.5,13,16.5c8.3,0,13-7.7,13-16.9c0-8.1-4.2-16.5-13-16.5
		C215.2,444.7,210.9,452.7,210.9,461.7z"/>
	<path class="st0" d="M284.1,461c0,14-8.5,21.4-18.9,21.4c-10.7,0-18.3-8.3-18.3-20.7c0-12.9,8-21.4,18.9-21.4
		C276.9,440.4,284.1,448.9,284.1,461z M252.5,461.7c0,8.7,4.7,16.5,13,16.5c8.3,0,13-7.7,13-16.9c0-8.1-4.2-16.5-13-16.5
		C256.8,444.7,252.5,452.7,252.5,461.7z"/>
	<path class="st0" d="M290.9,441.1h5.3v19.6h0.2c1.1-1.6,2.2-3,3.2-4.3l12.4-15.3h6.5l-14.7,17.3l15.9,23.4h-6.2l-13.4-20l-3.9,4.5
		v15.5h-5.3V441.1z"/>
</g>
</svg>
