<?xml version="1.0" encoding="utf-8"?>
<!-- Generator: Adobe Illustrator 22.0.1, SVG Export Plug-In . SVG Version: 6.00 Build 0)  -->
<svg version="1.1" id="Layer_1" xmlns="http://www.w3.org/2000/svg" xmlns:xlink="http://www.w3.org/1999/xlink" x="0px" y="0px"
	 viewBox="0 0 1155.2 371.6" style="enable-background:new 0 0 1155.2 371.6;" xml:space="preserve">
<style type="text/css">
	.st0{fill:#FCFCFC;}
	.st1{font-family:'EBSHunminjeongeumL';}
	.st2{font-size:20.0114px;}
	.st3{fill:none;stroke:#FFFFFF;stroke-width:1.7173;stroke-miterlimit:10;}
	.st4{fill:#E5E5E5;}
	.st5{fill:#F3F3F1;}
	.st6{fill:none;stroke:#FCFCFA;stroke-width:3.4346;stroke-miterlimit:10;}
</style>
<text transform="matrix(1 0 0 1 756.4501 310.7971)" class="st0 st1 st2">Sign in</text>
<polyline class="st3" points="925,191.2 928,196.2 935.1,190.2 "/>
<g>
	<circle class="st4" cx="166.3" cy="144.9" r="34"/>
	<circle class="st4" cx="254.2" cy="144.7" r="34"/>
	<circle class="st4" cx="343.2" cy="144.7" r="34"/>
	<circle class="st4" cx="430.3" cy="144.7" r="34"/>
	<circle class="st4" cx="516.3" cy="144.7" r="34"/>
	<circle class="st4" cx="606.4" cy="144.7" r="34"/>
	<circle class="st4" cx="693.4" cy="144.7" r="34"/>
	<circle class="st4" cx="783.5" cy="144.7" r="34"/>
	<circle class="st4" cx="870.5" cy="144.7" r="34"/>
	<circle class="st4" cx="954.6" cy="144.7" r="34"/>
	<circle class="st5" cx="165.3" cy="140.9" r="34"/>
	<circle class="st5" cx="254" cy="140.9" r="34"/>
	<circle class="st5" cx="341.8" cy="140.9" r="34"/>
	<circle class="st5" cx="429.7" cy="140.9" r="34"/>
	<circle class="st5" cx="517.5" cy="140.9" r="34"/>
	<circle class="st5" cx="605.3" cy="140.9" r="34"/>
	<circle class="st5" cx="693.2" cy="140.9" r="34"/>
	<circle class="st5" cx="782.5" cy="141.7" r="34"/>
	<circle class="st5" cx="868.5" cy="140.9" r="34"/>
	<circle class="st5" cx="954.6" cy="140.9" r="34"/>
	<circle class="st5" cx="781" cy="140.9" r="34"/>
	<circle class="st6" cx="165.3" cy="140.9" r="29.8"/>
	<circle class="st6" cx="254.4" cy="140.9" r="29.8"/>
	<circle class="st6" cx="341.4" cy="140.9" r="29.8"/>
	<circle class="st6" cx="429.5" cy="140.9" r="29.8"/>
	<circle class="st6" cx="516.5" cy="140.9" r="29.8"/>
	<circle class="st6" cx="605.6" cy="140.9" r="29.8"/>
	<circle class="st6" cx="692.6" cy="140.9" r="29.8"/>
	<circle class="st6" cx="782.7" cy="140.9" r="29.8"/>
	<circle class="st6" cx="869.7" cy="140.9" r="29.8"/>
	<circle class="st4" cx="217.3" cy="230.9" r="34"/>
	<circle class="st4" cx="305.2" cy="230.8" r="34"/>
	<circle class="st4" cx="394.2" cy="230.8" r="34"/>
	<circle class="st4" cx="481.3" cy="230.8" r="34"/>
	<circle class="st4" cx="567.3" cy="230.8" r="34"/>
	<circle class="st4" cx="657.4" cy="230.8" r="34"/>
	<circle class="st4" cx="744.4" cy="230.8" r="34"/>
	<circle class="st4" cx="834.5" cy="230.8" r="34"/>
	<circle class="st4" cx="921.5" cy="230.8" r="34"/>
	<circle class="st5" cx="216.3" cy="226.9" r="34"/>
	<circle class="st5" cx="305" cy="226.9" r="34"/>
	<circle class="st5" cx="392.8" cy="226.9" r="34"/>
	<circle class="st5" cx="480.7" cy="226.9" r="34"/>
	<circle class="st5" cx="568.5" cy="226.9" r="34"/>
	<circle class="st5" cx="656.4" cy="226.9" r="34"/>
	<circle class="st5" cx="744.2" cy="226.9" r="34"/>
	<circle class="st5" cx="833.5" cy="227.8" r="34"/>
	<circle class="st5" cx="919.5" cy="226.9" r="34"/>
	<circle class="st5" cx="832.1" cy="226.9" r="34"/>
	<circle class="st6" cx="216.3" cy="226.9" r="29.8"/>
	<circle class="st6" cx="305.4" cy="226.9" r="29.8"/>
	<circle class="st6" cx="392.4" cy="226.9" r="29.8"/>
	<circle class="st6" cx="480.5" cy="226.9" r="29.8"/>
	<circle class="st6" cx="567.5" cy="226.9" r="29.8"/>
	<circle class="st6" cx="656.6" cy="226.9" r="29.8"/>
	<circle class="st6" cx="743.6" cy="226.9" r="29.8"/>
	<circle class="st6" cx="833.7" cy="226.9" r="29.8"/>
	<circle class="st6" cx="920.7" cy="226.9" r="29.8"/>
	<circle class="st4" cx="263.4" cy="314" r="34"/>
	<circle class="st4" cx="351.2" cy="313.8" r="34"/>
	<circle class="st4" cx="440.3" cy="313.8" r="34"/>
	<circle class="st4" cx="527.3" cy="313.8" r="34"/>
	<circle class="st4" cx="613.4" cy="313.8" r="34"/>
	<circle class="st4" cx="703.4" cy="313.8" r="34"/>
	<circle class="st4" cx="790.5" cy="313.8" r="34"/>
	<circle class="st4" cx="880.5" cy="313.8" r="34"/>
	<circle class="st4" cx="967.6" cy="313.8" r="34"/>
	<circle class="st5" cx="262.4" cy="310" r="34"/>
	<circle class="st5" cx="351" cy="310" r="34"/>
	<circle class="st5" cx="438.9" cy="310" r="34"/>
	<circle class="st5" cx="526.7" cy="310" r="34"/>
	<circle class="st5" cx="614.6" cy="310" r="34"/>
	<circle class="st5" cx="702.4" cy="310" r="34"/>
	<circle class="st5" cx="790.2" cy="310" r="34"/>
	<circle class="st5" cx="879.5" cy="310.8" r="34"/>
	<circle class="st5" cx="965.6" cy="310" r="34"/>
	<circle class="st5" cx="878.1" cy="310" r="34"/>
	<circle class="st6" cx="262.4" cy="310" r="29.8"/>
	<circle class="st6" cx="351.4" cy="310" r="29.8"/>
	<circle class="st6" cx="438.5" cy="310" r="29.8"/>
	<circle class="st6" cx="526.5" cy="310" r="29.8"/>
	<circle class="st6" cx="613.6" cy="310" r="29.8"/>
	<circle class="st6" cx="702.6" cy="310" r="29.8"/>
	<circle class="st6" cx="789.7" cy="310" r="29.8"/>
	<circle class="st6" cx="879.7" cy="310" r="29.8"/>
	<circle class="st6" cx="966.8" cy="310" r="29.8"/>
	<circle class="st6" cx="954.8" cy="140.9" r="29.8"/>
	<circle class="st5" cx="1038.6" cy="142.7" r="34"/>
	<circle class="st4" cx="134.3" cy="57.8" r="34"/>
	<circle class="st4" cx="222.1" cy="57.7" r="34"/>
	<circle class="st4" cx="311.2" cy="57.7" r="34"/>
	<circle class="st4" cx="398.2" cy="57.7" r="34"/>
	<circle class="st4" cx="484.3" cy="57.7" r="34"/>
	<circle class="st4" cx="574.3" cy="57.7" r="34"/>
	<circle class="st4" cx="661.4" cy="57.7" r="34"/>
	<circle class="st4" cx="751.4" cy="57.7" r="34"/>
	<circle class="st4" cx="838.5" cy="57.7" r="34"/>
	<circle class="st4" cx="922.5" cy="57.7" r="34"/>
	<circle class="st4" cx="1006.6" cy="57.7" r="34"/>
	<circle class="st5" cx="133.3" cy="53.8" r="34"/>
	<circle class="st5" cx="221.9" cy="53.8" r="34"/>
	<circle class="st5" cx="309.8" cy="53.8" r="34"/>
	<circle class="st5" cx="397.6" cy="53.8" r="34"/>
	<circle class="st5" cx="485.5" cy="53.8" r="34"/>
	<circle class="st5" cx="573.3" cy="53.8" r="34"/>
	<circle class="st5" cx="661.2" cy="53.8" r="34"/>
	<circle class="st5" cx="750.4" cy="54.7" r="34"/>
	<circle class="st5" cx="836.5" cy="53.8" r="34"/>
	<circle class="st5" cx="922.5" cy="53.8" r="34"/>
	<circle class="st5" cx="749" cy="53.8" r="34"/>
	<circle class="st5" cx="1008.6" cy="53.8" r="34"/>
	<circle class="st5" cx="1004.6" cy="228.8" r="34"/>
	<circle class="st5" cx="1084.6" cy="228.8" r="34"/>
	<g>
		<path d="M153.9,138.5c0-0.9-1.9-1.6-3-1.9c-0.2,0-0.2-0.1-0.2-0.1c0-0.5,1-0.6,1.3-0.6c1.2,0,4,0.5,4,1.3c0,0.2-0.1,0.6-0.1,1v4.8
			l15.8-0.3v-6.6c0-0.7-1-1.5-2.9-2.1c-0.1,0-0.2-0.1-0.2-0.2c0-0.2,0.4-0.5,0.8-0.5h0c2,0.3,4.4,0.7,4.4,1.7c0,0.3-0.2,0.6-0.2,0.9
			V153c0,1.4-0.6,2.8-1.2,2.8c-0.5,0-0.7-0.6-0.8-1.5l-15.7,0.4c0,1.1-0.4,2.1-1.2,2.1c-0.4,0-0.7-0.8-0.7-1.9V138.5z M155.8,144
			v9.5l15.7-0.3v-9.4L155.8,144z"/>
	</g>
	<g>
		<path d="M251.8,137.2c0-0.5-0.2-1.1-0.6-1.5c-1,0.1-2,0.1-2.8,0.2c-3.5,0.4-4,1.1-4.7,1.1c-0.8,0-4.3-2-4.3-2.5
			c0-0.1,0.1-0.2,0.3-0.2c0.1,0,0.3,0,0.5,0.1c1.9,0.5,2.4,0.6,4.8,0.6c1.9,0,11.7-0.6,12.1-0.6c1.7-0.2,1.3-1.2,3.8-1.2
			c0.3,0,3.3,0.3,3.3,1.4c0,0.8-1.2,0.8-2.7,0.8c-2.3,0-5.7,0.1-8.8,0.2c1.2,1.2,1.6,1.9,1.6,2.4c0,0.8-0.9,1.1-1.4,2.2
			c8.1,8.5,6.6,4.1,11.1,8.6c1.3,1.4,1.8,2.3,1.8,2.8c0,0.5-0.4,0.7-0.6,0.7c-0.3,0-0.7-0.2-1.3-0.8L252.4,141
			c-7,9.9-15,12.2-15.7,12.2c-0.2,0-0.4-0.1-0.4-0.2c0-0.1,0.2-0.3,0.7-0.6c3.1-1.2,12.2-7.9,14.7-15.1V137.2z"/>
	</g>
	<g>
		<path d="M342.5,133.9c4.8-0.3,2.9-1.3,6.5-1.3c2.1,0,2.7,0.5,2.7,1.3c0,0.7-0.6,0.9-2.3,0.9h-19.3v11.5c0,1.4,0.6,2.3,3.4,2.3H344
			c4.2,0,3.4-1.3,7-1.3c2,0,2.6,0.6,2.6,1.4c0,0.7-0.5,0.9-1.8,1h-19.6c-2.4,0-4-0.6-4-2.7v-10.4c0-1.2-0.3-1.8-2.8-2.4
			c-0.4-0.1-0.5-0.2-0.5-0.3c0-0.2,0.9-0.5,1.5-0.5c1.6,0,2.8,0.3,3.6,0.6H342.5z"/>
	</g>
	<g>
		<path d="M434.5,132.3c2.1-0.2,1.8-0.7,3.1-0.7c2.2,0,2.2,0.4,2.2,0.6c0,0.4-0.5,1.1-0.5,2.1v12.2c0,5.2-1.1,5.4-1.4,5.4
			c-0.5,0-0.6-1.4-0.6-3.6v-15.1l-14.4,1.1c-2.6,0.2-3.2,0.9-4,0.9c-0.9,0-4.6-2.1-4.6-2.7c0-0.1,0.2-0.2,0.4-0.2
			c0.1,0,0.3,0,0.4,0.1c1.6,0.5,3.6,0.8,6.3,0.8c3.3,0,7.4-0.3,12.8-0.8H434.5z"/>
	</g>
	<g>
		<path d="M515.5,136c-6.5,10.7-15.3,14.2-15.8,14.2c-0.2,0-0.3,0-0.3-0.2s0.1-0.3,0.4-0.4c6.6-3.4,12.3-10.5,15.2-17.4
			c0-0.1,0.1-0.5,0.1-0.6c0-0.6-1.1-1.8-2.6-2.6c0,0,0,0,0-0.1c0-0.2,0.4-0.3,0.8-0.3c0.1,0,0.2,0,0.4,0c1.2,0.6,4.2,2.2,4.2,3
			c0,0.4-0.4,0.6-0.6,1.1c-0.4,0.8-0.8,1.7-1.3,2.5c9.4,9.4,8.6,5.4,12,9.3c1.4,1.7,1.8,2.8,1.8,3.3c0,0.4-0.2,0.6-0.6,0.6
			c-0.3,0-0.5-0.2-0.8-0.5L515.5,136z"/>
	</g>
	<g>
		<path d="M613.5,145.9c2.3-0.1,2.8-1,4.7-1c0.4,0,0.8,0,1.3,0.1c2.4,0.4,2.5,0.7,2.6,1.5c-0.2,0.6-0.4,0.8-1,0.8
			c-0.8,0-2.2-0.2-5-0.3c-1,0-2.2,0-3.5,0c-5,0-11.4,0.2-16.3,0.4c-3.7,0.2-3.6,0.8-4.3,0.8c-0.7,0-5.5-2-5.5-2.6
			c0-0.1,0.1-0.2,0.3-0.2c0.1,0,0.3,0,0.6,0.1c2.2,0.6,5,0.9,8.3,0.9c0.7,0,1.5,0,2.3,0c-0.6-1.2-0.6-6.1-1-8.6
			c-0.2-1.2-0.5-2.7-1.6-4.4c-0.1-0.1-0.1-0.2-0.1-0.3s0-0.2,0.2-0.2c0.1,0,0.3,0.1,0.6,0.3l2.5,1.7c1,0.6,1.2,1,1.2,1.4
			c0,0.4-0.4,0.7-0.4,1.3c0.2,2.9,0.2,4.8,0.2,6c0,2.1-0.2,2.2-0.5,2.7c1.3,0.1,7.7-0.2,9.2-0.2l1.6-13c0-0.1,0-0.3,0-0.4
			c0-0.6-0.4-1.5-2.3-2.4c0,0,0-0.1,0-0.1c0-0.2,0.3-0.4,0.8-0.4c0.3,0,4.3,0.8,4.3,1.9c0,0.4-0.3,0.7-0.4,1.1
			c-0.6,4.1-1.6,9.8-2.2,13.2H613.5z"/>
	</g>
	<g>
		<path d="M697.9,135.2c-1.9,0.1-3.3,0.2-6.1,0.4c-2.2,0.2-2.3,0.6-2.9,0.6c-0.6,0-3.8-1.3-3.8-1.8c0-0.1,0.1-0.1,0.2-0.1
			c0.3,0,0.8,0.1,1.4,0.2c0.8,0.1,1.7,0.1,2.8,0.1c2.1,0,4.6-0.2,8.4-0.4v-8c0-0.9-1.5-1.6-4-2.6c-0.2,0-0.2-0.1-0.2-0.2
			c0-0.2,0.5-0.4,1.1-0.4c1.5,0.3,3.6,0.9,4.5,1.3c0.6,0.2,0.7,0.5,0.7,0.8c0,0.3-0.1,0.6-0.1,0.9v28.4c0,2-0.7,3.7-1.3,3.7
			c-0.4,0-0.7-1.2-0.7-2.3v-10.7c-2,0.1-3.4,0.2-6.1,0.4c-2.2,0.2-2.3,0.6-2.9,0.6c-0.6,0-3.8-1.3-3.8-1.8c0-0.1,0.1-0.1,0.2-0.1
			c0.3,0,0.8,0.1,1.4,0.2c0.8,0.1,1.7,0.1,2.7,0.1c2.1,0,4.7-0.2,8.5-0.4V135.2z"/>
	</g>
	<g>
		<path d="M781,127.1c0-0.8-1.6-1.6-3.9-2.6c-0.2-0.1-0.3-0.2-0.3-0.2c0-0.2,0.6-0.4,1.2-0.4c1.5,0.2,3.5,0.9,4.5,1.3
			c0.6,0.2,0.8,0.5,0.8,0.8c0,0.3-0.2,0.6-0.2,0.9v9.8h4.1c1.8,0,1.6-1,3.5-1c1.8,0.1,2.6,0.4,2.6,1.1c0,0.5-0.3,0.8-1.3,0.8h-8.9
			v9.2h4.1c1.8,0,1.6-0.9,3.5-1c1.8,0.1,2.6,0.5,2.6,1.2c0,0.4-0.3,0.8-1.3,0.8h-8.9v7.7c0,2-0.6,3.6-1.3,3.6
			c-0.3,0-0.8-1.2-0.8-2.3V127.1z"/>
	</g>
	<g>
		<path d="M872.2,125.1c0-0.6-0.5-1.3-3.9-2.5c-0.1,0-0.2-0.1-0.2-0.2c0-0.2,0.5-0.4,1-0.5c2.2,0.4,3.4,0.8,4.4,1.1
			c0.6,0.2,0.8,0.5,0.8,0.8c0,0.3-0.2,0.6-0.2,1v28.6c0,2-0.6,3.7-1.2,3.7c-0.3,0-0.8-1.1-0.8-2.3v-14.1h-8.6v10.4
			c0,2-0.7,3.6-1.2,3.6c-0.2,0-0.7-1.3-0.7-2.3v-25.2c0-0.8-0.5-1.3-3.1-2.3c-0.1,0-0.2-0.1-0.2-0.2c0-0.2,0.7-0.5,1-0.5
			c1.4,0.2,2.6,0.6,3.5,0.9c0.6,0.2,0.8,0.5,0.8,0.8c0,0.4-0.2,0.7-0.2,0.9v12.6h8.6V125.1z"/>
	</g>
	<g>
		<path d="M956.9,139c-2.5,0.1-3.2,0.2-4.2,0.4c-2.2,0.2-2.4,0.7-2.9,0.7c-0.6,0-3.7-1.3-3.7-1.9c0,0,0.1-0.1,0.2-0.1
			c0.2,0,0.8,0.1,1.4,0.2c0.8,0.1,1.7,0.1,2.6,0.1c1.9,0,4.1-0.2,6.7-0.4v-10.4c0-1-1.3-1.6-3.3-2.5c-0.1,0-0.2-0.1-0.2-0.1
			c0-0.2,0.6-0.5,1-0.5c0.3,0,3,0.7,4,1.1c0.6,0.2,0.7,0.5,0.7,0.8c0,0.3-0.1,0.6-0.1,0.9v23.4c0,2-0.7,3.6-1.2,3.6
			c-0.4,0-0.8-1.2-0.8-2.3V139z M965.3,125.1c0-0.8-1.5-1.7-3.9-2.6c-0.1,0-0.2-0.1-0.2-0.2c0-0.2,0.6-0.4,1-0.4
			c0.3,0,2.9,0.6,4.6,1.2c0.6,0.2,0.7,0.5,0.7,0.8c0,0.3-0.1,0.6-0.1,0.9v28.5c0,2-0.7,3.6-1.3,3.6c-0.4,0-0.7-1.2-0.7-2.3V125.1z"
			/>
	</g>
	<g>
		<path d="M208.4,224.5c0-0.8-1.2-1.5-2.8-1.8c-0.3,0-0.4-0.1-0.4-0.2c0-0.2,0.7-0.6,1.4-0.6c1.5,0,3.1,0.4,4,0.8l15.3-0.3
			c2.6-0.1,2.4-0.7,3.6-0.7c1,0,2.6,0.2,2.6,0.7c0,0.4-0.7,1-1,1.9l-2.4,11.9c1.1,0.1,1.8,0.4,1.8,0.8c0,0.9-0.7,1-1.1,1l-18.4,0.4
			c0,1.3-0.4,2.3-0.9,2.3c-0.4,0-0.6-0.6-0.7-1.7L208.4,224.5z M210.4,223.6l0.6,13.8l12.4-0.4c2.7,0,2.5-0.7,4-0.7l1.3-13
			L210.4,223.6z"/>
	</g>
	<g>
		<path d="M296.3,234.6c0,1.8,0.6,2.3,2.2,2.3h9.5c6.2,0,4.2-1.3,8.2-1.3c2.4,0,3,0.5,3,1.2c0,0.6-0.3,1.1-2,1.1h-19.6
			c-1.6,0-3.4-1.3-3.4-2.6v-10.5c0-0.7-1.1-1.5-3-2c-0.4-0.1-0.5-0.2-0.5-0.4c0-0.2,0.4-0.4,0.9-0.5c1,0,2.9,0.3,4.3,0.6
			c0.6,0.1,0.7,0.3,0.7,0.6c0,0.4-0.2,1-0.2,1.9V234.6z"/>
	</g>
	<g>
		<path d="M394.2,219.1c0.3,0.2,0.4,0.2,0.4,0.4c0,0.2-0.4,0.5-0.6,1.1c6.5,0.6,9.7,5,9.7,9c0,4.8-3.4,9.7-10.9,9.7
			c-7.1,0-10.7-4.5-10.7-9.8c0-4.2,3.4-8.7,10.1-9c0.1-0.6-0.2-1.2-1-1.6c0,0-0.1-0.1-0.1-0.1c0-0.2,0.2-0.4,0.8-0.4
			c0.2,0,0.4,0,0.7,0.1L394.2,219.1z M384.1,229.9c0,4,2.9,7.9,8.8,7.9s8.8-4,8.8-7.9c0-4-2.9-7.9-8.8-7.9S384.1,226,384.1,229.9z"
			/>
	</g>
	<g>
		<path d="M489.8,217.4c2.2-0.2,1.5-0.8,3.3-0.8c2.4,0,2.4,0.5,2.4,0.6c0,0.4-0.5,0.9-0.8,1.8l-1.8,6.2c1,0.1,1.5,0.6,1.5,1
			c0,0.1,0,0.7-1.1,0.7l-18.6,0.3v7.1c0,0.9,0.9,1.3,2.4,1.3h10.4c5.2-0.2,4.4-1.2,7.5-1.2c1.7,0,2.9,0.4,2.9,1.3c0,0.8-0.6,1-2.6,1
			h-19.7c-1.6,0-2.9-0.8-2.9-1.9V228c0-0.7-1-1.3-2.3-1.6c-0.3,0-0.4-0.2-0.4-0.3c0-0.2,0.4-0.6,1.2-0.6c1.7,0,2.9,0.4,3.7,0.7
			l13.8-0.4c2.3-0.2,2.2-0.6,3.1-0.6l0.7-7c-6,0.3-8.8,0.4-14.8,0.9c-1.8,0.2-2.3,0.7-2.9,0.7c-0.7,0-3.8-2.1-3.8-2.6
			c0-0.2,0.2-0.2,0.4-0.2c0.2,0,0.5,0.1,0.9,0.2c1,0.4,2.1,0.6,5.2,0.6c2.5,0,6.2-0.2,12.1-0.5H489.8z"/>
	</g>
	<g>
		<path d="M575.9,221.7l0.5,0c3.9-0.4,2.7-1.3,5.6-1.3c0.9,0,3.2,0.5,3.2,1.3c0,0.7-0.6,0.9-2.2,0.9c-0.8,0-1.9,0-3.2-0.1
			c-5,0.2-8.6,0.3-16.7,0.8c-2.9,0.2-3.1,0.8-3.8,0.8c-0.7,0-3.8-1.9-3.8-2.3c0-0.1,0.1-0.2,0.2-0.2c0.2,0,0.5,0.1,0.9,0.2
			c1.3,0.4,2.9,0.5,5.6,0.6L575.9,221.7z M571.4,223.8c0.4,0.2,0.6,0.4,0.6,0.6c0,0.3-0.3,0.6-0.6,1.2c4.7,0.5,7.1,3.6,7.1,6.7
			c0,3.3-2.8,6.6-8.1,6.6c-5.2,0-8.2-3.1-8.2-6.6c0-3.2,2.5-6.3,7.4-6.7c0.2-0.3,0.4-0.8,0.4-1.2c0-0.3-0.1-0.6-0.4-0.9
			c-0.1-0.1-0.2-0.2-0.2-0.3c0-0.1,0-0.1,0.2-0.1s0.3,0,0.6,0.2L571.4,223.8z M568.8,218.5c-3.3,0-4.8-1.7-4.8-2.1
			c0-0.1,0-0.1,0.2-0.1c0.2,0,0.4,0,0.8,0.2c0.9,0.2,1.9,0.3,3.7,0.3c0.8,0,4.5-0.1,5.3-0.1c0.5,0,1.9-0.1,1.9,0.8
			c0,0.7-0.4,1-2.5,1H568.8z M564.4,231.9c0,2.6,1.9,5.2,5.8,5.2c4,0,6-2.6,6-5.2c0-2.7-2-5.3-6-5.3
			C566.4,226.6,564.4,229.3,564.4,231.9z"/>
	</g>
	<g>
		<path d="M667.1,236c2.6-0.1,2-0.8,3.9-0.8c2,0,4,0.5,4,1.4c0,0.3-0.4,0.9-1.5,0.9c-1.1,0-3-0.4-6.7-0.5c-5.6,0-11.1,0.2-17.2,0.3
			h-0.2c-3.4,0-3.7,0.7-4.4,0.7s-5.3-2-5.3-2.6c0-0.1,0.1-0.2,0.3-0.2c0.1,0,0.3,0,0.5,0.1c2,0.5,6.1,0.9,16.1,1v-14.3
			c0-0.9-0.6-1.5-2.3-1.8c-0.2,0-0.2-0.1-0.2-0.2c0-0.2,0.3-0.4,0.8-0.5c1.3,0,4.2,0.4,4.2,1.5c0,0.3-0.2,0.7-0.2,1.2l-0.7,14
			l8.6-0.4L667.1,236z"/>
	</g>
	<g>
		<path d="M749.8,217.1c0-0.8-1.6-1.6-3.9-2.6c-0.2,0-0.2-0.1-0.2-0.2c0-0.2,0.5-0.4,1.1-0.4c1.5,0.3,3.6,0.9,4.4,1.3
			c0.6,0.2,0.7,0.5,0.7,0.8c0,0.3-0.1,0.6-0.1,0.9v28.5c0,2-0.6,3.6-1.3,3.6c-0.4,0-0.8-1.2-0.8-2.3v-16.9c-1.6,0-3,0.1-5.9,0.3
			c-2.2,0.2-2.3,0.7-2.9,0.7c-0.7,0-3.7-1.4-3.7-1.9c0-0.1,0.1-0.1,0.2-0.1c0.3,0,0.8,0.1,1.4,0.2c0.8,0.1,1.7,0.1,2.7,0.1
			c2.1,0,4.6-0.2,8.2-0.4V217.1z"/>
	</g>
	<g>
		<path d="M834.1,215.5c0-0.7-1.2-1.4-3.1-1.9c-0.4-0.1-0.5-0.2-0.5-0.4c0-0.2,0.5-0.5,1.4-0.5c1.2,0,2.4,0.3,3.9,0.6
			c0.6,0.1,0.8,0.3,0.8,0.6c0,0.4-0.2,0.9-0.2,1.6v14.7c4.3,0,2.9-1.2,5.8-1.2c1.7,0,2.3,0.4,2.3,1.1c0,0.8-0.6,1.1-2.1,1.1h-6.1
			v9.6c0,6.9-1.3,7-1.5,7c-0.4,0-0.6-1-0.6-3.9V215.5z"/>
	</g>
	<g>
		<path d="M921.4,216.1c0-0.8-1.8-1.7-3.5-2.1c-0.3-0.1-0.4-0.2-0.4-0.3c0-0.2,0.6-0.5,1.3-0.5c1.3,0,3.1,0.5,4.1,0.7
			c0.6,0.2,0.8,0.4,0.8,0.7c0,0.3-0.2,0.8-0.2,1.4v26.3c0,5.9-1.3,5.9-1.5,5.9c-0.5,0-0.6-1.3-0.6-3.3V216.1z"/>
	</g>
	<g>
		<path d="M271,303.4c1.2-0.1,0.7-0.6,1.7-0.6c0.8,0,2.3,0.2,2.3,0.8c0,0.4-0.6,0.9-0.8,1.4c-0.8,7.9-0.8,13.4-4.2,18.9
			c-0.2,0.4-0.5,0.6-0.6,0.6c-0.1,0-0.1-0.1-0.1-0.2c0-0.2,0-0.4,0.2-0.8c1.5-3.4,2.1-7.9,2.5-13.5c-5.8,2.3-11.8,4.3-17.1,5.4
			c-1,0.3-1.1,0.9-1.7,0.9c-0.4,0-4.1-1.5-5-2.3c-0.1-0.1-0.1-0.2-0.1-0.2c0-0.1,0.2-0.2,0.4-0.2c0.1,0,0.2,0,0.4,0
			c0.7,0.2,1.6,0.3,2.6,0.3c4.5,0,11.8-1.9,20.7-4.6c0-1.5,0.1-3.1,0.2-4.8l-14,0.8c-2,0.1-2.1,0.6-2.8,0.6c-1,0-4.3-1.8-4.3-2.3
			c0-0.1,0.1-0.1,0.3-0.1c0.2,0,0.4,0,0.6,0.1c1.3,0.3,2.5,0.6,5.3,0.6l13.4-0.7L271,303.4z"/>
	</g>
	<g>
		<path d="M127.4,68.6v-1c3,0,4.3-0.5,4.3-2.4V46c0-1.4-0.7-1.9-2-1.9H127v-0.8c3-0.4,4.8-1.4,6.7-2.8v24.6c0,1.9,1.4,2.4,4.5,2.4v1
			H127.4z"/>
	</g>
	<g>
		<path d="M229.5,60.7l-1.6,7.1h-13v-1.2c1.6-4.6,5-9.2,8.3-12.1c3.3-3,3.9-5.1,3.9-8.1c0-4.1-2-5.6-4.8-5.6c-2.6,0-4.6,1.2-4.6,3.7
			c0,2.3,0.8,2,0.8,3.3c0,1.3-0.8,1.7-1.4,1.7c-0.9,0-1.4-1.3-1.4-3c0-3,2.1-6.7,6.8-6.7c4.7,0,6.7,2.6,6.7,7.1
			c0,3.9-1.7,6.6-6,10.2c-2.7,2.2-5.1,4.8-7,8.7h8.1c2.3,0,3.5-1,4.9-5.2L229.5,60.7z"/>
	</g>
	<g>
		<path d="M308.6,52.6c-0.3,0.1-0.6,0.2-0.8,0.2c-0.4,0-0.7-0.2-0.7-0.7c0-0.5,0.2-0.6,0.6-0.6c0.2,0,0.5,0,0.8,0.2
			c3.6,0,5.8-2.3,5.8-6.2c0-3.1-1.3-5.7-4.3-5.7c-3.3,0-3.8,1.3-3.8,2.7c0,0.6,0.1,1.3,0.1,1.7c0,1.2-0.7,2-1.2,2s-1.5-0.5-1.5-2.1
			c0-2.3,2.1-5.2,6.4-5.2c4,0,6.3,2.5,6.3,6.6c0,3.5-2.2,5.9-5,6.7c3.8,0.8,5.6,3.8,5.6,6.9c0,4.3-2.2,8.4-7.6,8.4
			c-4.3,0-6.6-2.8-6.6-6c0-1.6,0.8-2.1,1.5-2.1c0.6,0,1.4,0.6,1.4,1.9c0,0.5-0.1,1.1-0.1,1.8c0,1.7,0.5,3.6,3.8,3.6
			c3.9,0,5.5-3.4,5.5-7.5C314.9,55.2,312.9,52.6,308.6,52.6L308.6,52.6z"/>
	</g>
	<g>
		<path d="M394.2,65.7v-0.9c2.2,0,3.1-0.3,3.1-1.6v-4.9h-8.7v-1.1l9.7-19.4h0.9v19.4h4.1v1.2h-4.1v4.9c0,1.3,1,1.5,3,1.5v0.9H394.2z
			 M397.3,41.8l-7.7,15.4h7.7V41.8z"/>
	</g>
	<g>
		<path d="M489.5,43.5h-10.4L478.6,54c1.3-1.7,3-2.5,5.4-2.5c4.9,0,7,4.3,7,8.8c0,4.1-2.2,9-7,9c-4.5,0-7-3-7-6.4
			c0-1.2,0.7-1.7,1.3-1.7c0.8,0,1.4,0.6,1.4,1.6c0,0.7-0.1,1.4-0.1,2.2c0,1.6,0.5,3.2,4,3.2c3.7,0,5.4-4.4,5.4-8
			c0-4-1.6-7.8-5.4-7.8c-2.5,0-4.4,1.9-5.3,3.5l-0.7-0.3l0.7-14.1H490L489.5,43.5z"/>
	</g>
	<g>
		<path d="M574.4,46.6c3.4,0,5.9,3.1,5.9,8.8c0,6.2-3.6,9-7,9c-4.2,0-7.2-3.6-7.2-12.8c0-9.4,3.1-15.8,8.6-15.8
			c3.5,0,5.1,2.1,5.1,3.7c0,1.3-0.5,2-1.4,2c-0.8,0-1.4-0.7-1.4-2c0-1.4-1-2.5-3-2.5c-3.3,0-5.8,5.1-5.8,14
			C569.3,48.7,571.4,46.6,574.4,46.6z M573.3,63.4c3.4,0,5-3,5-8.5c0-4.2-1.7-7.1-4.6-7.1c-2.5,0-4.6,2.7-5.6,4.9
			C568,61.6,570.5,63.4,573.3,63.4z"/>
	</g>
	<g>
		<path d="M669.3,42.4v1.3c-3.1,6.2-7.5,14.5-7.5,22.3c0,0.2,0,1.4,0,1.7c0,1.7-0.6,2.6-1.3,2.6c-0.7,0-1.4-0.6-1.4-2.2v-0.3
			c0.3-6.9,4.1-13.8,8.7-23.3h-8.6c-2.2,0-3.3,3-4,5.4l-0.5-0.2l1.4-7.3H669.3z"/>
	</g>
	<g>
		<path d="M754,46.3c0,3.5-1.8,5.3-4.4,6.4c3.6,1.2,5.6,3.7,5.6,8.4c0,4-3.3,7.3-7.1,7.3c-3.9,0-7-2.6-7-6.9c0-2.9,0.8-5.3,4.9-7.8
			c-2.3-1-3.9-3.5-3.9-7.2c0-2.9,1.9-6.7,6.1-6.7C751.6,39.7,754,42,754,46.3z M748.1,67.4c3.6,0,5.6-2.8,5.6-6.3
			c0-3.4-2.4-5.4-6.7-7.1c-3.4,2.1-4.1,3.5-4.1,7.3C742.9,65.3,745.2,67.4,748.1,67.4z M743.2,46.4c0,2.9,2.1,4.6,5.5,5.9
			c2.5-1.3,3.8-2.9,3.8-6c0-3.5-1.7-5.7-4.4-5.7C745.3,40.6,743.2,42.5,743.2,46.4z"/>
	</g>
	<g>
		<path d="M834.9,55.6c-3.4,0-5.9-3.1-5.9-9c0-6.1,3.6-8.9,7-8.9c4.2,0,7.2,3.6,7.2,12.9c0,9.4-3.1,15.7-8.5,15.7
			c-3.5,0-5.1-2.1-5.1-3.7c0-1.3,0.5-1.9,1.3-1.9s1.5,0.7,1.5,1.9c0,1.4,1,2.5,3,2.5c3.3,0,5.8-5.1,5.8-14
			C839.9,53.4,837.9,55.6,834.9,55.6z M836,38.7c-3.4,0-5,3-5,8.4c0,4.4,1.6,7.3,4.6,7.3c2.5,0,4.6-2.7,5.6-4.9
			C841.2,40.5,838.7,38.7,836,38.7z"/>
	</g>
	<g>
		<path d="M913.7,52.8h19.4v2.1h-19.4V52.8z"/>
	</g>
	<g>
		<path d="M1008.5,43h1.8v10.9h8.7v2.1h-8.7v11h-1.8v-11h-8.8v-2.1h8.8V43z"/>
	</g>
	<g>
		<path d="M354.3,302.7c2.7-0.2,2.1-1.2,4.4-1.2c0.8,0,3.3,0.2,3.3,1.3c0,0.5-0.2,0.8-1.5,0.9l-19.8,0.4v7.1l12.4-0.4
			c2.6-0.1,1.7-1.1,4.4-1.1c0.6,0,3.6,0,3.6,1.1c0,0.4-0.5,0.8-1.9,0.8l-18.4,0.5v6.6c0,1.5,0.9,1.7,2.6,1.7l12.9-0.2
			c2.5,0,1.7-1.2,4.8-1.2c1.8,0,3,0.4,3,1.4c0,0.2-0.3,0.6-1.1,0.6l-20.8,0.4c-1.7,0-3.4-0.7-3.4-2.5v-13.4c0-1.1-0.9-2.2-3.3-2.7
			c-0.2,0-0.3-0.1-0.3-0.2c0-0.1,0.2-0.5,1.2-0.5c1.6,0,3.2,0.5,4.1,0.9L354.3,302.7z"/>
	</g>
	<g>
		<path d="M438.3,312.6c-3.9,4.4-8.4,8.3-15,9.8c-0.3,0.1-0.6,0.1-0.8,0.1c-0.3,0-0.4-0.1-0.4-0.2s0.2-0.3,0.7-0.5
			c5.2-1.6,11.3-6.3,15-12.2c0-0.1,0-0.3,0-0.4c0-0.5-0.1-1.2-0.5-1.5c-0.2,0-0.5,0-0.9,0c-1.4,0-3.6,0.2-5,0.3
			c-2,0.2-2.3,0.7-2.9,0.7c-0.8,0-3.8-1.7-3.8-2.1c0-0.1,0.1-0.2,0.3-0.2c0.1,0,0.3,0,0.6,0.1c0.5,0.2,1.7,0.4,5.2,0.4
			c5.5,0,11.1-0.5,11.7-0.6c2.5-0.1,1.1-1,4.7-1c2,0.1,3,0.5,3,1.2c0,0.3,0,0.8-1.4,0.9c-2.1,0.1-7.2,0.1-10.3,0.1
			c1.2,1.5,1.5,2.3,1.5,2.8s-0.3,0.7-0.6,1c-0.2,0.2-0.3,0.3-0.4,0.4c9.2,7.2,7.4,3.6,11.2,6.7c1.6,1.4,2,2.3,2,2.8
			c0,0.4-0.3,0.6-0.6,0.6c-0.4,0-0.9-0.2-1.5-0.8L438.3,312.6z M440.6,300.7c0.8,0,1.5-0.2,2.1-0.2c0.7,0,1.2,0.2,1.3,0.7
			c0,0.8-1,1.1-4.7,1.3h-2.7c-2.9-0.3-4.4-1.7-4.4-2.2c0-0.1,0-0.1,0.2-0.1c0.2,0,0.4,0.1,0.7,0.2c1,0.2,1.6,0.3,3.2,0.3H440.6z"/>
	</g>
	<g>
		<path d="M532.5,318.7c2.6,0,1.5-1.1,4.6-1.1c1.5,0,3.5,0.7,3.5,1.5c0,0.8-1.5,0.8-2,0.8c-1.3,0-3.1-0.2-5.4-0.2h-3.4
			c-4.5,0-8.8,0.1-11.3,0.2c-3.7,0.3-4,1-4.6,1c-0.2,0-0.4-0.1-0.8-0.3c-0.8-0.6-2-1.3-2.8-1.8c-0.2-0.2-0.2-0.3-0.2-0.4
			c0-0.1,0.2-0.2,0.4-0.2c0.2,0,0.4,0.1,0.6,0.1c1.1,0.2,2.2,0.5,6.1,0.6l11.5-0.4c1.5-4.4,2.2-9.1,2.2-9.5c0-1-0.8-1.6-2.3-2.3
			c-0.1-0.3,0.4-0.5,1.1-0.5c0.5,0,2.9,0.9,3.3,1.2c0.4,0.2,0.6,0.5,0.6,0.7c0,0.4-0.5,0.9-0.7,1.6c-0.8,2.9-2,6.1-3.1,8.8
			L532.5,318.7z M531.1,303.2l0.2,0c2.2-0.3,1-1,4.1-1c1.9,0.1,2.9,0.6,3,1.3c0,0.7-0.6,0.8-2.2,0.8c-0.8,0-1.8,0-3.2-0.1
			c-3.3,0-6.9,0.1-13.3,0.4c-2.8,0.2-3.1,0.8-3.8,0.8c-0.6,0-3.3-1.6-3.9-2c-0.1-0.2-0.1-0.3-0.1-0.4c0-0.1,0.1-0.2,0.3-0.2
			c0.1,0,0.3,0,0.6,0.1c1.3,0.4,3.2,0.8,5.7,0.6L531.1,303.2z M521,316.4c-0.1,1.4-0.5,2.1-0.9,2.1c-0.4,0-0.7-0.5-0.9-1.5
			c-0.4-2.8-0.6-5.8-3-8.2c-0.2-0.2-0.2-0.3-0.2-0.4c0-0.1,0.1-0.2,0.3-0.2c0.1,0,0.2,0,0.5,0.1C520.7,310.5,521,311.3,521,316.4z"
			/>
	</g>
	<g>
		<path d="M623.2,304.1c2.1-0.1,1.4-1.1,3.7-1.1c0.3,0,0.7,0,1.2,0.1c2.3,0.2,2.7,0.8,2.7,1.4c0,0.7-0.5,0.8-1.2,0.8
			c-0.7,0-4.2-0.2-5-0.2l-4.2,0.1v20.8c0,1.8-0.6,3.8-1.3,3.8c-0.5,0-0.8-0.7-0.8-2.5v-22l-10.3,0.3v20.4c0,1.9-0.7,3.8-1.3,3.8
			c-0.5,0-0.8-1.3-0.8-2.7v-21.4l-2.2,0.2c-2.5,0.2-2.4,0.8-3.1,0.8c-1.2,0-5.2-2.3-5.2-2.7c0-0.1,0.1-0.1,0.2-0.1
			c0.1,0,0.3,0,0.6,0.1c2.5,0.5,4.6,0.8,7.7,0.8c0.8,0,1.6,0,2.5,0L623.2,304.1z"/>
	</g>
	<g>
		<path d="M707.1,305.4c5,0,5.1-1,7.5-1c0.4,0,0.8,0,1.3,0.1c1.6,0.2,2.3,0.6,2.3,1.4c0,0.6-0.4,0.7-1,0.7c-0.7,0-1.9-0.1-3.6-0.2
			l-12.3,0v19.8c0,5-1.1,5.1-1.4,5.1c-0.6,0-0.7-1.7-0.7-4.5v-20.3l-7.3,0.3c-3,0.2-3.1,0.9-3.8,0.9c-0.6,0-5.6-1.9-5.6-2.7
			c0-0.1,0.1-0.1,0.3-0.1c0.1,0,0.3,0,0.6,0.1c3.1,0.6,5.6,0.9,10.3,0.8L707.1,305.4z"/>
	</g>
	<g>
		<path d="M796,311.9c4.7-0.3,4-0.9,5.7-0.9c0.4,0,1,0,1.8,0.1c2.1,0.3,2.6,0.6,2.6,1.3c0,0.8-0.6,0.8-1,0.8c-0.9,0-2.7-0.4-6-0.4
			c-7.8,0-13.7,0.2-19.8,0.4c-2.4,0.2-2.7,0.8-3.4,0.8c-0.9,0-5.1-2.1-5.1-2.6c0-0.1,0.1-0.2,0.2-0.2c0.2,0,0.4,0,0.6,0.2
			c2.1,0.5,6.1,0.8,11.5,0.8c3.6,0,7.9-0.1,12.6-0.4H796z"/>
	</g>
	<g>
		<path d="M889.5,297.4c0-1-1.8-1.7-3.5-2.3c-0.3-0.1-0.4-0.2-0.4-0.4c0-0.2,0.6-0.4,1.2-0.4c0.6,0,0.9,0.1,4.2,0.8
			c0.6,0.2,0.8,0.4,0.8,0.8s-0.2,0.9-0.2,1.5v24.8c0,4.7-0.2,6.1-1,6.9c-0.1,0.1-0.2,0.2-0.3,0.2c-0.5,0-0.7-1.8-0.7-4.2l0-13.4
			c-5.1,2-11.7,3.7-17.5,5.1c-1.9,0.4-1.7,1.2-2.4,1.2c-0.8,0-2.9-1-5.2-2.3c-0.3-0.2-0.4-0.4-0.4-0.6c0-0.1,0.2-0.2,0.4-0.2
			c0.2,0,0.6,0,0.9,0.2c0.8,0.2,1.7,0.3,2.8,0.3c5.6,0,15-2.4,21.4-4.4V297.4z"/>
	</g>
	<g>
		<path d="M962.1,308.1c-2.4,0.1-3.2,0.2-4.2,0.4c-2.2,0.2-2.3,0.6-2.9,0.6c-0.6,0-3.8-1.3-3.8-1.8c0-0.1,0.1-0.1,0.2-0.1
			c0.3,0,0.8,0.1,1.4,0.2c0.8,0.1,1.7,0.1,2.6,0.1c1.9,0,4.2-0.2,6.7-0.4v-5.4c0-1-1.5-1.7-3.4-2.5c-0.2,0-0.2-0.1-0.2-0.2
			c0-0.2,0.5-0.4,1.1-0.4c1,0.2,3.1,0.8,3.9,1.2c0.6,0.2,0.7,0.5,0.7,0.8c0,0.3-0.1,0.6-0.1,0.9v23.4c0,1.8-0.7,3.6-1.2,3.6
			c-0.4,0-0.8-1.4-0.8-2.3v-8c-0.9,0-2.2,0.2-4.2,0.3c-2.2,0.2-2.3,0.7-2.9,0.7c-0.6,0-3.7-1.4-3.7-1.9c0-0.1,0.1-0.1,0.2-0.1
			c0.3,0,0.8,0.1,1.4,0.2c0.8,0.1,1.7,0.1,2.5,0.1c1.9,0,4-0.2,6.7-0.4V308.1z M970.4,299c0-0.8-1.6-1.6-3.9-2.6
			c-0.2,0-0.2-0.1-0.2-0.2c0-0.2,0.5-0.4,1.1-0.4c1.5,0.3,3.6,0.9,4.5,1.3c0.6,0.2,0.8,0.6,0.8,1c0,0.4-0.2,0.7-0.2,1v28.4
			c0,1.6-0.6,3.6-1.3,3.6c-0.4,0-0.8-1.2-0.8-2.3V299z"/>
	</g>
	<path class="st5" d="M165.3,346.8H59.6c-8.6,0-15.5-6.9-15.5-15.5v-27c0-8.6,6.9-15.5,15.5-15.5h105.7c8.6,0,15.5,6.9,15.5,15.5v27
		C180.8,339.9,173.8,346.8,165.3,346.8z"/>
	<path class="st5" d="M1110.5,342.8h-75c-8.7,0-15.8-7.1-15.8-15.8v-26.4c0-8.7,7.1-15.8,15.8-15.8h75c8.7,0,15.8,7.1,15.8,15.8V327
		C1126.3,335.7,1119.2,342.8,1110.5,342.8z"/>
	<path class="st5" d="M133.6,261.8h-56c-8.6,0-15.5-6.9-15.5-15.5v-27c0-8.6,6.9-15.5,15.5-15.5h56c8.6,0,15.5,6.9,15.5,15.5v27
		C149.1,254.8,142.2,261.8,133.6,261.8z"/>
	<path class="st5" d="M96.6,171.7h-51c-8.6,0-15.5-6.9-15.5-15.5v-27c0-8.6,6.9-15.5,15.5-15.5h51c8.6,0,15.5,6.9,15.5,15.5v27
		C112.1,164.8,105.1,171.7,96.6,171.7z"/>
	<circle class="st6" cx="133.3" cy="53.8" r="29.8"/>
	<circle class="st6" cx="222.3" cy="53.8" r="29.8"/>
	<circle class="st6" cx="309.4" cy="53.8" r="29.8"/>
	<circle class="st6" cx="397.4" cy="53.8" r="29.8"/>
	<circle class="st6" cx="484.5" cy="53.8" r="29.8"/>
	<circle class="st6" cx="573.5" cy="53.8" r="29.8"/>
	<circle class="st6" cx="660.6" cy="53.8" r="29.8"/>
	<circle class="st6" cx="750.6" cy="53.8" r="29.8"/>
	<circle class="st6" cx="837.7" cy="53.8" r="29.8"/>
	<circle class="st6" cx="922.7" cy="53.8" r="29.8"/>
	<circle class="st6" cx="1008.8" cy="53.8" r="29.8"/>
</g>
</svg>
