<?xml version="1.0" encoding="utf-8"?>
<!-- Generator: Adobe Illustrator 22.0.1, SVG Export Plug-In . SVG Version: 6.00 Build 0)  -->
<svg version="1.1" id="Layer_1" xmlns="http://www.w3.org/2000/svg" xmlns:xlink="http://www.w3.org/1999/xlink" x="0px" y="0px"
	 viewBox="0 0 334.3 69.7" style="enable-background:new 0 0 334.3 69.7;" xml:space="preserve">
<style type="text/css">
	.st0{fill:#231F20;}
</style>
<g>
	<path d="M23,42.3c0-2.4,2-4.4,4.4-4.4c2.4,0,4.4,2,4.4,4.4c0,2.4-2,4.4-4.4,4.4C24.9,46.7,23,44.7,23,42.3z"/>
	<g>
		<rect x="25.7" y="2.3" width="3.3" height="40"/>
	</g>
	<path class="st0" d="M80.8,67.6H63.3c-0.8,0-1.5-0.3-2.1-0.9c-0.6-0.6-0.8-1.3-0.8-2.1c0-0.8,0.3-1.5,0.8-2
		c0.6-0.6,1.2-0.9,2.1-0.9h5.8V27.6h-5.9c-0.8,0-1.5-0.3-2.1-0.8c-0.6-0.6-0.8-1.2-0.8-2.1s0.3-1.5,0.8-2.1c0.6-0.6,1.2-0.8,2.1-0.8
		h8.8c0.8,0,1.5,0.3,2,0.9c0.6,0.6,0.9,1.3,0.9,2v37h5.9c0.8,0,1.5,0.3,2,0.9c0.6,0.6,0.9,1.3,0.9,2c0,0.8-0.3,1.5-0.8,2.1
		C82.3,67.3,81.6,67.6,80.8,67.6z"/>
	<path class="st0" d="M121.5,67.6H104c-0.8,0-1.5-0.3-2.1-0.9c-0.6-0.6-0.8-1.3-0.8-2.1c0-0.8,0.3-1.5,0.8-2
		c0.6-0.6,1.2-0.9,2.1-0.9h5.8V27.6h-5.9c-0.8,0-1.5-0.3-2.1-0.8c-0.6-0.6-0.8-1.2-0.8-2.1s0.3-1.5,0.8-2.1c0.6-0.6,1.2-0.8,2.1-0.8
		h8.8c0.8,0,1.5,0.3,2,0.9c0.6,0.6,0.9,1.3,0.9,2v37h5.9c0.8,0,1.5,0.3,2,0.9c0.6,0.6,0.9,1.3,0.9,2c0,0.8-0.3,1.5-0.8,2.1
		C123,67.3,122.3,67.6,121.5,67.6z"/>
	<path class="st0" d="M156.2,39.7V59l1.7,2.8h2.4l1.8-2.9V24.7c0-0.8,0.3-1.5,0.9-2.1c0.6-0.6,1.3-0.9,2.1-0.9c0.8,0,1.5,0.3,2,0.9
		c0.6,0.6,0.9,1.3,0.9,2v35.1c0,0.4-0.2,1-0.7,1.8l-2.7,4.4c-0.6,1-1.4,1.5-2.5,1.5h-5.4c-1.7,0-2.8-0.8-3.3-2.3
		c-0.5,1.6-1.6,2.3-3.2,2.3H145c-1.5,0-2.5-0.5-3.2-1.6l-2.5-4.2c-0.5-0.8-0.7-1.4-0.7-2V24.7c0-0.8,0.3-1.5,0.9-2.1
		c0.6-0.6,1.3-0.9,2.1-0.9c0.8,0,1.4,0.3,2,0.9c0.6,0.6,0.8,1.3,0.8,2.1V59l1.7,2.8h2.5l1.8-2.9V39.7c0-0.8,0.3-1.5,0.8-2.1
		c0.6-0.6,1.2-0.8,2.1-0.8c0.8,0,1.5,0.3,2.1,0.8C156,38.2,156.2,38.9,156.2,39.7z"/>
	<path class="st0" d="M181.4,64.7V37.2c0-0.8,0.3-1.5,0.8-2.1s1.2-0.9,2.1-0.9c0.8,0,1.5,0.3,2.1,0.9c0.6,0.6,0.8,1.3,0.8,2.1v3.6
		l4.7-4c2-1.7,3.9-2.5,5.7-2.5h4.2c2.4,0,4.4,0.8,6.1,2.6c1.7,1.7,2.6,3.7,2.6,6.1v1.6c0,0.8-0.3,1.5-0.8,2.1
		c-0.6,0.6-1.2,0.9-2.1,0.9s-1.5-0.3-2.1-0.8s-0.8-1.2-0.8-2.1V43c0-0.8-0.3-1.5-0.8-2.1c-0.6-0.6-1.2-0.8-2.1-0.8h-3.8
		c-0.8,0-1.7,0.4-2.7,1.3l-8.2,7.1v16.2c0,0.8-0.3,1.5-0.9,2.1c-0.6,0.6-1.3,0.8-2,0.8c-0.8,0-1.5-0.3-2.1-0.8
		C181.6,66.2,181.4,65.5,181.4,64.7z"/>
	<path class="st0" d="M245.4,67.5h-17.6c-0.8,0-1.5-0.3-2.1-0.8c-0.6-0.6-0.8-1.2-0.8-2.1c0-0.8,0.3-1.5,0.8-2
		c0.6-0.6,1.2-0.9,2.1-0.9h5.9V40.1h-5.9c-0.8,0-1.5-0.3-2.1-0.9c-0.6-0.6-0.8-1.3-0.8-2c0-0.8,0.3-1.5,0.8-2.1
		c0.6-0.6,1.2-0.9,2.1-0.9h8.8c0.8,0,1.5,0.3,2.1,0.9c0.6,0.6,0.8,1.3,0.8,2.1v24.5h5.8c0.8,0,1.5,0.3,2.1,0.8
		c0.6,0.6,0.9,1.2,0.9,2.1c0,0.8-0.3,1.5-0.9,2.1C246.8,67.2,246.1,67.5,245.4,67.5z M233.6,19.2h3c0.8,0,1.5,0.3,2.1,0.8
		c0.6,0.6,0.8,1.2,0.8,2.1v2.5c0,0.8-0.3,1.5-0.8,2.1c-0.6,0.6-1.2,0.9-2.1,0.9h-3.1c-0.8,0-1.5-0.3-2.1-0.9c-0.6-0.6-0.8-1.3-0.8-2
		l0.1-2.6c0-0.8,0.3-1.5,0.8-2.1C232.1,19.5,232.8,19.2,233.6,19.2z"/>
	<path class="st0" d="M283,67.6h-5.8c-2.4,0-4.4-0.8-6.2-2.6c-1.7-1.7-2.6-3.7-2.6-6.1V40.1h-3c-0.8,0-1.5-0.3-2.1-0.8
		c-0.6-0.6-0.8-1.2-0.8-2.1c0-0.8,0.3-1.5,0.8-2.1c0.6-0.6,1.2-0.8,2.1-0.8h3v-7.1c0-0.8,0.3-1.5,0.8-2.1c0.6-0.6,1.2-0.8,2.1-0.8
		c0.8,0,1.4,0.3,2,0.9c0.6,0.6,0.9,1.3,0.9,2v7.1h11.6c0.8,0,1.5,0.3,2,0.9c0.6,0.6,0.9,1.3,0.9,2c0,0.8-0.3,1.5-0.9,2.1
		c-0.6,0.6-1.3,0.8-2,0.8h-11.7v18.8c0,0.8,0.3,1.5,0.9,2c0.6,0.6,1.3,0.9,2.1,0.9h5.7c1.5,0,2.6-0.8,3.1-2.5
		c0.5-1.7,1.5-2.5,2.9-2.5c0.8,0,1.5,0.3,2.1,0.8c0.5,0.6,0.8,1.3,0.8,2.1c0,1.7-0.8,3.5-2.5,5.2C287.6,66.7,285.5,67.6,283,67.6z"
		/>
	<path class="st0" d="M332.4,45.2v7c0,0.8-0.3,1.5-0.9,2c-0.6,0.6-1.3,0.9-2,0.9h-20.5v1.7c0,1,0.4,1.8,1.3,2.5l1.7,1.4
		c0.9,0.7,1.8,1.1,2.6,1.1h14.9c0.8,0,1.5,0.3,2,0.8c0.6,0.6,0.9,1.2,0.9,2.1c0,0.8-0.3,1.5-0.9,2c-0.6,0.6-1.3,0.9-2,0.9h-15.3
		c-1,0-2.1-0.2-3.2-0.6c-1.1-0.4-1.9-0.9-2.5-1.3l-2.6-2.3c-0.8-0.6-1.5-1.5-2-2.7c-0.5-1.1-0.8-2.2-0.8-3.2V44.2
		c0-0.8,0.3-1.8,0.9-3.1c0.6-1.3,1.3-2.3,2.2-3l2.4-1.9c1.6-1.3,3.3-1.9,5.3-1.9h8.1c2,0,4,0.8,5.8,2.6l2.2,2.1
		C331.6,40.3,332.4,42.4,332.4,45.2z M309.1,44.8v4.5h17.6v-4c0-1.1-0.3-1.9-1-2.5l-1.7-1.5c-0.9-0.7-1.7-1.1-2.3-1.1h-7.3
		c-0.9,0-1.7,0.3-2.4,0.9l-1.7,1.4C309.5,43.1,309.1,43.8,309.1,44.8z"/>
	<polygon points="9.1,68.2 2.1,68.2 24.1,1.7 31,1.7 	"/>
	<polygon points="46,68.2 53,68.2 31,1.7 24.1,1.7 	"/>
</g>
</svg>
